M48
; DRILL file {KiCad 5.1.6-c6e7f7d~86~ubuntu19.10.1} date Mon Jan 18 20:20:03 2021
; FORMAT={-:-/ absolute / inch / decimal}
; #@! TF.CreationDate,2021-01-18T20:20:03+01:00
; #@! TF.GenerationSoftware,Kicad,Pcbnew,5.1.6-c6e7f7d~86~ubuntu19.10.1
; #@! TF.FileFunction,Plated,1,2,PTH
FMAT,2
INCH
T1C0.0157
T2C0.0181
T3C0.0200
T4C0.0315
T5C0.0394
%
G90
G05
T1
X1.7126Y-3.4724
X1.7626Y-4.7752
X1.8386Y-3.4724
X1.8437Y-4.7752
X1.9004Y-4.6535
X1.9551Y-4.3488
X2.0394Y-3.4724
X2.0575Y-5.0815
X2.0665Y-4.6575
X2.1402Y-5.0815
X2.248Y-3.4724
X2.2835Y-4.126
X2.3579Y-4.4685
X2.4055Y-3.4134
X2.4232Y-5.0398
X2.4409Y-3.6929
X2.4727Y-3.358
X2.5118Y-3.6929
X2.5275Y-3.4562
X2.561Y-3.0988
X2.5748Y-4.1024
X2.5761Y-3.6911
X2.6014Y-3.4656
X2.7244Y-3.4488
X2.7638Y-3.5787
X2.7913Y-4.0945
X2.8583Y-3.7165
X2.8622Y-4.9264
X2.8701Y-3.7835
X2.8898Y-3.6417
X2.9134Y-3.8937
X3.0Y-3.4882
X3.0Y-3.5669
X3.0276Y-3.6417
X3.0728Y-4.7693
X3.1713Y-3.1748
X3.2008Y-3.5236
X3.2185Y-4.9756
X3.2854Y-3.5232
X3.3772Y-3.0886
X3.4799Y-3.7134
T2
X1.6276Y-3.6858
X1.6276Y-4.0307
X1.6195Y-3.1164
X1.6195Y-3.4613
T3
X1.7772Y-3.7689
X1.7772Y-3.8689
X1.9422Y-3.7689
X1.9422Y-3.8189
X1.9422Y-3.8689
X1.9422Y-3.9189
X1.9422Y-3.9689
X2.1072Y-3.9689
T4
X3.4299Y-3.3909
X3.622Y-3.3909
T5
X1.9291Y-3.6024
X2.4039Y-3.752
X2.5039Y-3.752
X3.2724Y-4.8213
X3.2724Y-4.9213
X2.9488Y-3.1063
X2.9488Y-3.2063
X2.4173Y-3.1732
X2.6378Y-3.2205
X2.7378Y-3.2205
X2.3457Y-4.7543
X2.3457Y-4.8543
X2.8228Y-3.8858
X3.3504Y-4.2677
X3.3504Y-4.3677
X2.126Y-4.1102
X2.2402Y-3.1811
X2.3906Y-4.2984
X2.3906Y-4.3984
X2.6654Y-3.8858
X2.2795Y-3.6142
X2.2165Y-3.7638
X3.4669Y-4.0236
X3.5669Y-4.0236
T0
M30
