G04 #@! TF.GenerationSoftware,KiCad,Pcbnew,5.1.6-c6e7f7d~86~ubuntu19.10.1*
G04 #@! TF.CreationDate,2021-01-18T20:18:48+01:00*
G04 #@! TF.ProjectId,receiver_test,72656365-6976-4657-925f-746573742e6b,rev?*
G04 #@! TF.SameCoordinates,Original*
G04 #@! TF.FileFunction,Copper,L2,Bot*
G04 #@! TF.FilePolarity,Positive*
%FSLAX46Y46*%
G04 Gerber Fmt 4.6, Leading zero omitted, Abs format (unit mm)*
G04 Created by KiCad (PCBNEW 5.1.6-c6e7f7d~86~ubuntu19.10.1) date 2021-01-18 20:18:48*
%MOMM*%
%LPD*%
G01*
G04 APERTURE LIST*
G04 #@! TA.AperFunction,ComponentPad*
%ADD10O,1.700000X1.700000*%
G04 #@! TD*
G04 #@! TA.AperFunction,ComponentPad*
%ADD11R,1.700000X1.700000*%
G04 #@! TD*
G04 #@! TA.AperFunction,ViaPad*
%ADD12C,0.970000*%
G04 #@! TD*
G04 #@! TA.AperFunction,SMDPad,CuDef*
%ADD13R,5.080000X2.420000*%
G04 #@! TD*
G04 #@! TA.AperFunction,ComponentPad*
%ADD14C,1.500000*%
G04 #@! TD*
G04 #@! TA.AperFunction,ViaPad*
%ADD15C,1.016000*%
G04 #@! TD*
G04 #@! TA.AperFunction,ViaPad*
%ADD16C,0.800000*%
G04 #@! TD*
G04 #@! TA.AperFunction,Conductor*
%ADD17C,0.635000*%
G04 #@! TD*
G04 #@! TA.AperFunction,Conductor*
%ADD18C,0.508000*%
G04 #@! TD*
G04 #@! TA.AperFunction,Conductor*
%ADD19C,0.300000*%
G04 #@! TD*
G04 #@! TA.AperFunction,Conductor*
%ADD20C,0.250000*%
G04 #@! TD*
G04 #@! TA.AperFunction,Conductor*
%ADD21C,0.457200*%
G04 #@! TD*
G04 #@! TA.AperFunction,Conductor*
%ADD22C,0.254000*%
G04 #@! TD*
G04 APERTURE END LIST*
D10*
X83120000Y-125000000D03*
D11*
X83120000Y-122460000D03*
D10*
X59580000Y-123300000D03*
D11*
X59580000Y-120760000D03*
G04 #@! TA.AperFunction,SMDPad,CuDef*
G36*
G01*
X66250000Y-89349999D02*
X66250000Y-90250001D01*
G75*
G02*
X66000001Y-90500000I-249999J0D01*
G01*
X65349999Y-90500000D01*
G75*
G02*
X65100000Y-90250001I0J249999D01*
G01*
X65100000Y-89349999D01*
G75*
G02*
X65349999Y-89100000I249999J0D01*
G01*
X66000001Y-89100000D01*
G75*
G02*
X66250000Y-89349999I0J-249999D01*
G01*
G37*
G04 #@! TD.AperFunction*
G04 #@! TA.AperFunction,SMDPad,CuDef*
G36*
G01*
X68300000Y-89349999D02*
X68300000Y-90250001D01*
G75*
G02*
X68050001Y-90500000I-249999J0D01*
G01*
X67399999Y-90500000D01*
G75*
G02*
X67150000Y-90250001I0J249999D01*
G01*
X67150000Y-89349999D01*
G75*
G02*
X67399999Y-89100000I249999J0D01*
G01*
X68050001Y-89100000D01*
G75*
G02*
X68300000Y-89349999I0J-249999D01*
G01*
G37*
G04 #@! TD.AperFunction*
G04 #@! TA.AperFunction,SMDPad,CuDef*
G36*
G01*
X64550001Y-91650000D02*
X63649999Y-91650000D01*
G75*
G02*
X63400000Y-91400001I0J249999D01*
G01*
X63400000Y-90749999D01*
G75*
G02*
X63649999Y-90500000I249999J0D01*
G01*
X64550001Y-90500000D01*
G75*
G02*
X64800000Y-90749999I0J-249999D01*
G01*
X64800000Y-91400001D01*
G75*
G02*
X64550001Y-91650000I-249999J0D01*
G01*
G37*
G04 #@! TD.AperFunction*
G04 #@! TA.AperFunction,SMDPad,CuDef*
G36*
G01*
X64550001Y-93700000D02*
X63649999Y-93700000D01*
G75*
G02*
X63400000Y-93450001I0J249999D01*
G01*
X63400000Y-92799999D01*
G75*
G02*
X63649999Y-92550000I249999J0D01*
G01*
X64550001Y-92550000D01*
G75*
G02*
X64800000Y-92799999I0J-249999D01*
G01*
X64800000Y-93450001D01*
G75*
G02*
X64550001Y-93700000I-249999J0D01*
G01*
G37*
G04 #@! TD.AperFunction*
G04 #@! TA.AperFunction,SMDPad,CuDef*
G36*
G01*
X64750001Y-88250000D02*
X63849999Y-88250000D01*
G75*
G02*
X63600000Y-88000001I0J249999D01*
G01*
X63600000Y-87349999D01*
G75*
G02*
X63849999Y-87100000I249999J0D01*
G01*
X64750001Y-87100000D01*
G75*
G02*
X65000000Y-87349999I0J-249999D01*
G01*
X65000000Y-88000001D01*
G75*
G02*
X64750001Y-88250000I-249999J0D01*
G01*
G37*
G04 #@! TD.AperFunction*
G04 #@! TA.AperFunction,SMDPad,CuDef*
G36*
G01*
X64750001Y-90300000D02*
X63849999Y-90300000D01*
G75*
G02*
X63600000Y-90050001I0J249999D01*
G01*
X63600000Y-89399999D01*
G75*
G02*
X63849999Y-89150000I249999J0D01*
G01*
X64750001Y-89150000D01*
G75*
G02*
X65000000Y-89399999I0J-249999D01*
G01*
X65000000Y-90050001D01*
G75*
G02*
X64750001Y-90300000I-249999J0D01*
G01*
G37*
G04 #@! TD.AperFunction*
G04 #@! TA.AperFunction,SMDPad,CuDef*
G36*
G01*
X59749999Y-90250000D02*
X60650001Y-90250000D01*
G75*
G02*
X60900000Y-90499999I0J-249999D01*
G01*
X60900000Y-91150001D01*
G75*
G02*
X60650001Y-91400000I-249999J0D01*
G01*
X59749999Y-91400000D01*
G75*
G02*
X59500000Y-91150001I0J249999D01*
G01*
X59500000Y-90499999D01*
G75*
G02*
X59749999Y-90250000I249999J0D01*
G01*
G37*
G04 #@! TD.AperFunction*
G04 #@! TA.AperFunction,SMDPad,CuDef*
G36*
G01*
X59749999Y-88200000D02*
X60650001Y-88200000D01*
G75*
G02*
X60900000Y-88449999I0J-249999D01*
G01*
X60900000Y-89100001D01*
G75*
G02*
X60650001Y-89350000I-249999J0D01*
G01*
X59749999Y-89350000D01*
G75*
G02*
X59500000Y-89100001I0J249999D01*
G01*
X59500000Y-88449999D01*
G75*
G02*
X59749999Y-88200000I249999J0D01*
G01*
G37*
G04 #@! TD.AperFunction*
G04 #@! TA.AperFunction,SMDPad,CuDef*
G36*
G01*
X62650001Y-91650000D02*
X61749999Y-91650000D01*
G75*
G02*
X61500000Y-91400001I0J249999D01*
G01*
X61500000Y-90749999D01*
G75*
G02*
X61749999Y-90500000I249999J0D01*
G01*
X62650001Y-90500000D01*
G75*
G02*
X62900000Y-90749999I0J-249999D01*
G01*
X62900000Y-91400001D01*
G75*
G02*
X62650001Y-91650000I-249999J0D01*
G01*
G37*
G04 #@! TD.AperFunction*
G04 #@! TA.AperFunction,SMDPad,CuDef*
G36*
G01*
X62650001Y-93700000D02*
X61749999Y-93700000D01*
G75*
G02*
X61500000Y-93450001I0J249999D01*
G01*
X61500000Y-92799999D01*
G75*
G02*
X61749999Y-92550000I249999J0D01*
G01*
X62650001Y-92550000D01*
G75*
G02*
X62900000Y-92799999I0J-249999D01*
G01*
X62900000Y-93450001D01*
G75*
G02*
X62650001Y-93700000I-249999J0D01*
G01*
G37*
G04 #@! TD.AperFunction*
G04 #@! TA.AperFunction,SMDPad,CuDef*
G36*
G01*
X62850001Y-88250000D02*
X61949999Y-88250000D01*
G75*
G02*
X61700000Y-88000001I0J249999D01*
G01*
X61700000Y-87349999D01*
G75*
G02*
X61949999Y-87100000I249999J0D01*
G01*
X62850001Y-87100000D01*
G75*
G02*
X63100000Y-87349999I0J-249999D01*
G01*
X63100000Y-88000001D01*
G75*
G02*
X62850001Y-88250000I-249999J0D01*
G01*
G37*
G04 #@! TD.AperFunction*
G04 #@! TA.AperFunction,SMDPad,CuDef*
G36*
G01*
X62850001Y-90300000D02*
X61949999Y-90300000D01*
G75*
G02*
X61700000Y-90050001I0J249999D01*
G01*
X61700000Y-89399999D01*
G75*
G02*
X61949999Y-89150000I249999J0D01*
G01*
X62850001Y-89150000D01*
G75*
G02*
X63100000Y-89399999I0J-249999D01*
G01*
X63100000Y-90050001D01*
G75*
G02*
X62850001Y-90300000I-249999J0D01*
G01*
G37*
G04 #@! TD.AperFunction*
D12*
X41340000Y-102380000D03*
X41340000Y-93620000D03*
D13*
X37900000Y-102380000D03*
X37900000Y-93620000D03*
D12*
X41136000Y-87916000D03*
X41136000Y-79156000D03*
D13*
X37696000Y-87916000D03*
X37696000Y-79156000D03*
D14*
X92000000Y-86130000D03*
X87120000Y-86130000D03*
D15*
X53523000Y-100810000D03*
X45141000Y-98270000D03*
X45141000Y-95730000D03*
X49332000Y-100810000D03*
X49332000Y-99540000D03*
X49332000Y-98270000D03*
X49332000Y-97000000D03*
X49332000Y-95730000D03*
D10*
X60720000Y-111720000D03*
D11*
X60720000Y-109180000D03*
X67700000Y-98700000D03*
D10*
X85100000Y-110940000D03*
D11*
X85100000Y-108400000D03*
D10*
X90600000Y-102200000D03*
D11*
X88060000Y-102200000D03*
X54000000Y-104400000D03*
X56300000Y-95600000D03*
X71700000Y-98700000D03*
X49000000Y-91500000D03*
X57900000Y-91800000D03*
X61400000Y-80600000D03*
X56900000Y-80800000D03*
D10*
X74900000Y-78900000D03*
D11*
X74900000Y-81440000D03*
D10*
X69540000Y-81800000D03*
D11*
X67000000Y-81800000D03*
D10*
X61060000Y-95300000D03*
D11*
X63600000Y-95300000D03*
D16*
X88390000Y-94320000D03*
X72700000Y-125130000D03*
X65050000Y-78710000D03*
X80550000Y-80640000D03*
X85780000Y-78450000D03*
X83450000Y-89490000D03*
X78050000Y-121140000D03*
X46830000Y-121290000D03*
X44770000Y-121290000D03*
X52260000Y-129070000D03*
X54360000Y-129070000D03*
X61550000Y-128010000D03*
X49660000Y-110460000D03*
X66075000Y-88025000D03*
X69200000Y-87600000D03*
X61100000Y-86700000D03*
X43500000Y-88200000D03*
X46701000Y-88199000D03*
X51800000Y-88200000D03*
X57100000Y-88200000D03*
X65431898Y-93754972D03*
X58000000Y-104800000D03*
X65400000Y-104200000D03*
X70200000Y-90900000D03*
X76200000Y-90600000D03*
X76200000Y-88600000D03*
X72600000Y-94400000D03*
X72900000Y-96100000D03*
X74000000Y-98900000D03*
X70900000Y-104000000D03*
X81300000Y-89500000D03*
X81750000Y-126380000D03*
X59890000Y-113500000D03*
X63800000Y-93800000D03*
X62000000Y-93800000D03*
X62806330Y-85293664D03*
X64199574Y-87788664D03*
X76900000Y-92500000D03*
X73400000Y-92500000D03*
X48270000Y-118200000D03*
X52490000Y-118300000D03*
D17*
X65431898Y-93754972D02*
X66645028Y-93754972D01*
X66645028Y-93754972D02*
X67400000Y-93000000D01*
D18*
X37696000Y-79156000D02*
X41136000Y-79156000D01*
X37696000Y-87916000D02*
X41136000Y-87916000D01*
X37900000Y-93620000D02*
X41340000Y-93620000D01*
X37900000Y-102380000D02*
X41340000Y-102380000D01*
D19*
X83120000Y-122460000D02*
X82120000Y-123460000D01*
X82120000Y-123460000D02*
X81750000Y-123830000D01*
X81750000Y-126380000D02*
X81750000Y-123830000D01*
X59070000Y-112680000D02*
X59890000Y-113500000D01*
X59070000Y-110830000D02*
X60720000Y-109180000D01*
X59070000Y-112680000D02*
X59070000Y-110830000D01*
D20*
X63800000Y-93400000D02*
X64100000Y-93100000D01*
X63800000Y-93800000D02*
X63800000Y-93400000D01*
X62000000Y-93300000D02*
X62200000Y-93100000D01*
X62000000Y-93800000D02*
X62000000Y-93300000D01*
D19*
X62400000Y-87700000D02*
X62400000Y-85699994D01*
X62400000Y-85699994D02*
X62806330Y-85293664D01*
X76900000Y-92500000D02*
X73400000Y-92500000D01*
X52390000Y-118200000D02*
X52490000Y-118300000D01*
X48270000Y-118200000D02*
X52390000Y-118200000D01*
D21*
X64400000Y-89800000D02*
X64300000Y-89700000D01*
X65700000Y-89800000D02*
X64400000Y-89800000D01*
X64300000Y-90900000D02*
X64100000Y-91100000D01*
X64300000Y-89700000D02*
X64300000Y-90900000D01*
X62200000Y-89900000D02*
X62400000Y-89700000D01*
X62200000Y-91100000D02*
X62200000Y-89900000D01*
X60500000Y-91100000D02*
X60200000Y-90800000D01*
X62200000Y-91100000D02*
X60500000Y-91100000D01*
D22*
G36*
X97123001Y-129623000D02*
G01*
X35877000Y-129623000D01*
X35877000Y-125760961D01*
X37573000Y-125760961D01*
X37573000Y-126239039D01*
X37666268Y-126707930D01*
X37849221Y-127149615D01*
X38114826Y-127547122D01*
X38452878Y-127885174D01*
X38850385Y-128150779D01*
X39292070Y-128333732D01*
X39760961Y-128427000D01*
X40239039Y-128427000D01*
X40707930Y-128333732D01*
X41149615Y-128150779D01*
X41547122Y-127885174D01*
X41885174Y-127547122D01*
X42150779Y-127149615D01*
X42333732Y-126707930D01*
X42422999Y-126259151D01*
X80523000Y-126259151D01*
X80523000Y-126500849D01*
X80570153Y-126737903D01*
X80662647Y-126961202D01*
X80796927Y-127162167D01*
X80967833Y-127333073D01*
X81168798Y-127467353D01*
X81392097Y-127559847D01*
X81629151Y-127607000D01*
X81870849Y-127607000D01*
X82107903Y-127559847D01*
X82331202Y-127467353D01*
X82532167Y-127333073D01*
X82703073Y-127162167D01*
X82837353Y-126961202D01*
X82929847Y-126737903D01*
X82942451Y-126674538D01*
X82954830Y-126677000D01*
X83285170Y-126677000D01*
X83609163Y-126612554D01*
X83914357Y-126486138D01*
X84189025Y-126302611D01*
X84422611Y-126069025D01*
X84606138Y-125794357D01*
X84619971Y-125760961D01*
X90573000Y-125760961D01*
X90573000Y-126239039D01*
X90666268Y-126707930D01*
X90849221Y-127149615D01*
X91114826Y-127547122D01*
X91452878Y-127885174D01*
X91850385Y-128150779D01*
X92292070Y-128333732D01*
X92760961Y-128427000D01*
X93239039Y-128427000D01*
X93707930Y-128333732D01*
X94149615Y-128150779D01*
X94547122Y-127885174D01*
X94885174Y-127547122D01*
X95150779Y-127149615D01*
X95333732Y-126707930D01*
X95427000Y-126239039D01*
X95427000Y-125760961D01*
X95333732Y-125292070D01*
X95150779Y-124850385D01*
X94885174Y-124452878D01*
X94547122Y-124114826D01*
X94149615Y-123849221D01*
X93707930Y-123666268D01*
X93239039Y-123573000D01*
X92760961Y-123573000D01*
X92292070Y-123666268D01*
X91850385Y-123849221D01*
X91452878Y-124114826D01*
X91114826Y-124452878D01*
X90849221Y-124850385D01*
X90666268Y-125292070D01*
X90573000Y-125760961D01*
X84619971Y-125760961D01*
X84732554Y-125489163D01*
X84797000Y-125165170D01*
X84797000Y-124834830D01*
X84732554Y-124510837D01*
X84606138Y-124205643D01*
X84456020Y-123980976D01*
X84557606Y-123897606D01*
X84660952Y-123771679D01*
X84737745Y-123628010D01*
X84785034Y-123472120D01*
X84801001Y-123310000D01*
X84801001Y-121610000D01*
X84785034Y-121447880D01*
X84737745Y-121291990D01*
X84660952Y-121148321D01*
X84557606Y-121022394D01*
X84431679Y-120919048D01*
X84288010Y-120842255D01*
X84132120Y-120794966D01*
X83970000Y-120778999D01*
X82270000Y-120778999D01*
X82107880Y-120794966D01*
X81951990Y-120842255D01*
X81808321Y-120919048D01*
X81682394Y-121022394D01*
X81579048Y-121148321D01*
X81502255Y-121291990D01*
X81454966Y-121447880D01*
X81438999Y-121610000D01*
X81438999Y-122759315D01*
X81093093Y-123105221D01*
X81055815Y-123135814D01*
X81025222Y-123173092D01*
X81025221Y-123173093D01*
X80933725Y-123284582D01*
X80843003Y-123454310D01*
X80787137Y-123638475D01*
X80768273Y-123830000D01*
X80773001Y-123878003D01*
X80773000Y-125633642D01*
X80662647Y-125798798D01*
X80570153Y-126022097D01*
X80523000Y-126259151D01*
X42422999Y-126259151D01*
X42427000Y-126239039D01*
X42427000Y-125760961D01*
X42333732Y-125292070D01*
X42150779Y-124850385D01*
X41885174Y-124452878D01*
X41547122Y-124114826D01*
X41149615Y-123849221D01*
X40707930Y-123666268D01*
X40239039Y-123573000D01*
X39760961Y-123573000D01*
X39292070Y-123666268D01*
X38850385Y-123849221D01*
X38452878Y-124114826D01*
X38114826Y-124452878D01*
X37849221Y-124850385D01*
X37666268Y-125292070D01*
X37573000Y-125760961D01*
X35877000Y-125760961D01*
X35877000Y-119910000D01*
X57898999Y-119910000D01*
X57898999Y-121610000D01*
X57914966Y-121772120D01*
X57962255Y-121928010D01*
X58039048Y-122071679D01*
X58142394Y-122197606D01*
X58243980Y-122280976D01*
X58093862Y-122505643D01*
X57967446Y-122810837D01*
X57903000Y-123134830D01*
X57903000Y-123465170D01*
X57967446Y-123789163D01*
X58093862Y-124094357D01*
X58277389Y-124369025D01*
X58510975Y-124602611D01*
X58785643Y-124786138D01*
X59090837Y-124912554D01*
X59414830Y-124977000D01*
X59745170Y-124977000D01*
X60069163Y-124912554D01*
X60374357Y-124786138D01*
X60649025Y-124602611D01*
X60882611Y-124369025D01*
X61066138Y-124094357D01*
X61192554Y-123789163D01*
X61257000Y-123465170D01*
X61257000Y-123134830D01*
X61192554Y-122810837D01*
X61066138Y-122505643D01*
X60916020Y-122280976D01*
X61017606Y-122197606D01*
X61120952Y-122071679D01*
X61197745Y-121928010D01*
X61245034Y-121772120D01*
X61261001Y-121610000D01*
X61261001Y-119910000D01*
X61245034Y-119747880D01*
X61197745Y-119591990D01*
X61120952Y-119448321D01*
X61017606Y-119322394D01*
X60891679Y-119219048D01*
X60748010Y-119142255D01*
X60592120Y-119094966D01*
X60430000Y-119078999D01*
X58730000Y-119078999D01*
X58567880Y-119094966D01*
X58411990Y-119142255D01*
X58268321Y-119219048D01*
X58142394Y-119322394D01*
X58039048Y-119448321D01*
X57962255Y-119591990D01*
X57914966Y-119747880D01*
X57898999Y-119910000D01*
X35877000Y-119910000D01*
X35877000Y-118079151D01*
X47043000Y-118079151D01*
X47043000Y-118320849D01*
X47090153Y-118557903D01*
X47182647Y-118781202D01*
X47316927Y-118982167D01*
X47487833Y-119153073D01*
X47688798Y-119287353D01*
X47912097Y-119379847D01*
X48149151Y-119427000D01*
X48390849Y-119427000D01*
X48627903Y-119379847D01*
X48851202Y-119287353D01*
X49016358Y-119177000D01*
X51631760Y-119177000D01*
X51707833Y-119253073D01*
X51908798Y-119387353D01*
X52132097Y-119479847D01*
X52369151Y-119527000D01*
X52610849Y-119527000D01*
X52847903Y-119479847D01*
X53071202Y-119387353D01*
X53272167Y-119253073D01*
X53443073Y-119082167D01*
X53577353Y-118881202D01*
X53669847Y-118657903D01*
X53717000Y-118420849D01*
X53717000Y-118179151D01*
X53669847Y-117942097D01*
X53577353Y-117718798D01*
X53443073Y-117517833D01*
X53272167Y-117346927D01*
X53071202Y-117212647D01*
X52847903Y-117120153D01*
X52610849Y-117073000D01*
X52369151Y-117073000D01*
X52132097Y-117120153D01*
X51908798Y-117212647D01*
X51893304Y-117223000D01*
X49016358Y-117223000D01*
X48851202Y-117112647D01*
X48627903Y-117020153D01*
X48390849Y-116973000D01*
X48149151Y-116973000D01*
X47912097Y-117020153D01*
X47688798Y-117112647D01*
X47487833Y-117246927D01*
X47316927Y-117417833D01*
X47182647Y-117618798D01*
X47090153Y-117842097D01*
X47043000Y-118079151D01*
X35877000Y-118079151D01*
X35877000Y-110830000D01*
X58088273Y-110830000D01*
X58093001Y-110878003D01*
X58093000Y-112632007D01*
X58088273Y-112680000D01*
X58093000Y-112727992D01*
X58107137Y-112871524D01*
X58163003Y-113055690D01*
X58253724Y-113225418D01*
X58375814Y-113374186D01*
X58413098Y-113404784D01*
X58671402Y-113663088D01*
X58710153Y-113857903D01*
X58802647Y-114081202D01*
X58936927Y-114282167D01*
X59107833Y-114453073D01*
X59308798Y-114587353D01*
X59532097Y-114679847D01*
X59769151Y-114727000D01*
X60010849Y-114727000D01*
X60247903Y-114679847D01*
X60471202Y-114587353D01*
X60672167Y-114453073D01*
X60843073Y-114282167D01*
X60977353Y-114081202D01*
X61069847Y-113857903D01*
X61117000Y-113620849D01*
X61117000Y-113379151D01*
X61111592Y-113351962D01*
X61209163Y-113332554D01*
X61514357Y-113206138D01*
X61789025Y-113022611D01*
X62022611Y-112789025D01*
X62206138Y-112514357D01*
X62332554Y-112209163D01*
X62397000Y-111885170D01*
X62397000Y-111554830D01*
X62332554Y-111230837D01*
X62206138Y-110925643D01*
X62056020Y-110700976D01*
X62157606Y-110617606D01*
X62260952Y-110491679D01*
X62337745Y-110348010D01*
X62385034Y-110192120D01*
X62401001Y-110030000D01*
X62401001Y-108330000D01*
X62385034Y-108167880D01*
X62337745Y-108011990D01*
X62260952Y-107868321D01*
X62157606Y-107742394D01*
X62031679Y-107639048D01*
X61888010Y-107562255D01*
X61847611Y-107550000D01*
X83418999Y-107550000D01*
X83418999Y-109250000D01*
X83434966Y-109412120D01*
X83482255Y-109568010D01*
X83559048Y-109711679D01*
X83662394Y-109837606D01*
X83763980Y-109920976D01*
X83613862Y-110145643D01*
X83487446Y-110450837D01*
X83423000Y-110774830D01*
X83423000Y-111105170D01*
X83487446Y-111429163D01*
X83613862Y-111734357D01*
X83797389Y-112009025D01*
X84030975Y-112242611D01*
X84305643Y-112426138D01*
X84610837Y-112552554D01*
X84934830Y-112617000D01*
X85265170Y-112617000D01*
X85589163Y-112552554D01*
X85894357Y-112426138D01*
X86169025Y-112242611D01*
X86402611Y-112009025D01*
X86586138Y-111734357D01*
X86712554Y-111429163D01*
X86777000Y-111105170D01*
X86777000Y-110774830D01*
X86712554Y-110450837D01*
X86586138Y-110145643D01*
X86436020Y-109920976D01*
X86537606Y-109837606D01*
X86640952Y-109711679D01*
X86717745Y-109568010D01*
X86765034Y-109412120D01*
X86781001Y-109250000D01*
X86781001Y-107550000D01*
X86765034Y-107387880D01*
X86717745Y-107231990D01*
X86640952Y-107088321D01*
X86537606Y-106962394D01*
X86411679Y-106859048D01*
X86268010Y-106782255D01*
X86112120Y-106734966D01*
X85950000Y-106718999D01*
X84250000Y-106718999D01*
X84087880Y-106734966D01*
X83931990Y-106782255D01*
X83788321Y-106859048D01*
X83662394Y-106962394D01*
X83559048Y-107088321D01*
X83482255Y-107231990D01*
X83434966Y-107387880D01*
X83418999Y-107550000D01*
X61847611Y-107550000D01*
X61732120Y-107514966D01*
X61570000Y-107498999D01*
X59870000Y-107498999D01*
X59707880Y-107514966D01*
X59551990Y-107562255D01*
X59408321Y-107639048D01*
X59282394Y-107742394D01*
X59179048Y-107868321D01*
X59102255Y-108011990D01*
X59054966Y-108167880D01*
X59038999Y-108330000D01*
X59038999Y-109479315D01*
X58413093Y-110105221D01*
X58375815Y-110135814D01*
X58345222Y-110173092D01*
X58345221Y-110173093D01*
X58253725Y-110284582D01*
X58163003Y-110454310D01*
X58107137Y-110638475D01*
X58088273Y-110830000D01*
X35877000Y-110830000D01*
X35877000Y-104227367D01*
X37614250Y-104225000D01*
X37773000Y-104066250D01*
X37773000Y-102507000D01*
X37753000Y-102507000D01*
X37753000Y-102253000D01*
X37773000Y-102253000D01*
X37773000Y-100693750D01*
X38027000Y-100693750D01*
X38027000Y-102253000D01*
X38047000Y-102253000D01*
X38047000Y-102507000D01*
X38027000Y-102507000D01*
X38027000Y-104066250D01*
X38185750Y-104225000D01*
X40440000Y-104228072D01*
X40564482Y-104215812D01*
X40684180Y-104179502D01*
X40794494Y-104120537D01*
X40891185Y-104041185D01*
X40970537Y-103944494D01*
X41029502Y-103834180D01*
X41065812Y-103714482D01*
X41078072Y-103590000D01*
X41077940Y-103550000D01*
X52318999Y-103550000D01*
X52318999Y-105250000D01*
X52334966Y-105412120D01*
X52382255Y-105568010D01*
X52459048Y-105711679D01*
X52562394Y-105837606D01*
X52688321Y-105940952D01*
X52831990Y-106017745D01*
X52987880Y-106065034D01*
X53150000Y-106081001D01*
X54850000Y-106081001D01*
X55012120Y-106065034D01*
X55168010Y-106017745D01*
X55311679Y-105940952D01*
X55437606Y-105837606D01*
X55540952Y-105711679D01*
X55617745Y-105568010D01*
X55665034Y-105412120D01*
X55681001Y-105250000D01*
X55681001Y-103550000D01*
X55665034Y-103387880D01*
X55617745Y-103231990D01*
X55540952Y-103088321D01*
X55437606Y-102962394D01*
X55311679Y-102859048D01*
X55168010Y-102782255D01*
X55012120Y-102734966D01*
X54850000Y-102718999D01*
X53150000Y-102718999D01*
X52987880Y-102734966D01*
X52831990Y-102782255D01*
X52688321Y-102859048D01*
X52562394Y-102962394D01*
X52459048Y-103088321D01*
X52382255Y-103231990D01*
X52334966Y-103387880D01*
X52318999Y-103550000D01*
X41077940Y-103550000D01*
X41077670Y-103468986D01*
X41202445Y-103496981D01*
X41423001Y-103502355D01*
X41640367Y-103464596D01*
X41846189Y-103385158D01*
X41894534Y-103359316D01*
X41927811Y-103147416D01*
X41340000Y-102559605D01*
X41325858Y-102573748D01*
X41146253Y-102394143D01*
X41160395Y-102380000D01*
X41519605Y-102380000D01*
X42107416Y-102967811D01*
X42319316Y-102934534D01*
X42408683Y-102732824D01*
X42456981Y-102517555D01*
X42462355Y-102296999D01*
X42424596Y-102079633D01*
X42345158Y-101873811D01*
X42319316Y-101825466D01*
X42107416Y-101792189D01*
X41519605Y-102380000D01*
X41160395Y-102380000D01*
X41146253Y-102365858D01*
X41325858Y-102186253D01*
X41340000Y-102200395D01*
X41927811Y-101612584D01*
X41894534Y-101400684D01*
X41780136Y-101350000D01*
X86378999Y-101350000D01*
X86378999Y-103050000D01*
X86394966Y-103212120D01*
X86442255Y-103368010D01*
X86519048Y-103511679D01*
X86622394Y-103637606D01*
X86748321Y-103740952D01*
X86891990Y-103817745D01*
X87047880Y-103865034D01*
X87210000Y-103881001D01*
X88910000Y-103881001D01*
X89072120Y-103865034D01*
X89228010Y-103817745D01*
X89371679Y-103740952D01*
X89497606Y-103637606D01*
X89580976Y-103536020D01*
X89805643Y-103686138D01*
X90110837Y-103812554D01*
X90434830Y-103877000D01*
X90765170Y-103877000D01*
X91089163Y-103812554D01*
X91394357Y-103686138D01*
X91669025Y-103502611D01*
X91902611Y-103269025D01*
X92086138Y-102994357D01*
X92212554Y-102689163D01*
X92277000Y-102365170D01*
X92277000Y-102034830D01*
X92212554Y-101710837D01*
X92086138Y-101405643D01*
X91902611Y-101130975D01*
X91669025Y-100897389D01*
X91394357Y-100713862D01*
X91089163Y-100587446D01*
X90765170Y-100523000D01*
X90434830Y-100523000D01*
X90110837Y-100587446D01*
X89805643Y-100713862D01*
X89580976Y-100863980D01*
X89497606Y-100762394D01*
X89371679Y-100659048D01*
X89228010Y-100582255D01*
X89072120Y-100534966D01*
X88910000Y-100518999D01*
X87210000Y-100518999D01*
X87047880Y-100534966D01*
X86891990Y-100582255D01*
X86748321Y-100659048D01*
X86622394Y-100762394D01*
X86519048Y-100888321D01*
X86442255Y-101031990D01*
X86394966Y-101187880D01*
X86378999Y-101350000D01*
X41780136Y-101350000D01*
X41692824Y-101311317D01*
X41477555Y-101263019D01*
X41256999Y-101257645D01*
X41077677Y-101288795D01*
X41078072Y-101170000D01*
X41065812Y-101045518D01*
X41029502Y-100925820D01*
X40970537Y-100815506D01*
X40891185Y-100718815D01*
X40794494Y-100639463D01*
X40684180Y-100580498D01*
X40564482Y-100544188D01*
X40440000Y-100531928D01*
X38185750Y-100535000D01*
X38027000Y-100693750D01*
X37773000Y-100693750D01*
X37614250Y-100535000D01*
X35877000Y-100532633D01*
X35877000Y-97850000D01*
X66018999Y-97850000D01*
X66018999Y-99550000D01*
X66034966Y-99712120D01*
X66082255Y-99868010D01*
X66159048Y-100011679D01*
X66262394Y-100137606D01*
X66388321Y-100240952D01*
X66531990Y-100317745D01*
X66687880Y-100365034D01*
X66850000Y-100381001D01*
X68550000Y-100381001D01*
X68712120Y-100365034D01*
X68868010Y-100317745D01*
X69011679Y-100240952D01*
X69137606Y-100137606D01*
X69240952Y-100011679D01*
X69317745Y-99868010D01*
X69365034Y-99712120D01*
X69381001Y-99550000D01*
X69381001Y-97850000D01*
X70018999Y-97850000D01*
X70018999Y-99550000D01*
X70034966Y-99712120D01*
X70082255Y-99868010D01*
X70159048Y-100011679D01*
X70262394Y-100137606D01*
X70388321Y-100240952D01*
X70531990Y-100317745D01*
X70687880Y-100365034D01*
X70850000Y-100381001D01*
X72550000Y-100381001D01*
X72712120Y-100365034D01*
X72868010Y-100317745D01*
X73011679Y-100240952D01*
X73137606Y-100137606D01*
X73240952Y-100011679D01*
X73317745Y-99868010D01*
X73365034Y-99712120D01*
X73381001Y-99550000D01*
X73381001Y-97850000D01*
X73365034Y-97687880D01*
X73317745Y-97531990D01*
X73240952Y-97388321D01*
X73137606Y-97262394D01*
X73011679Y-97159048D01*
X72868010Y-97082255D01*
X72712120Y-97034966D01*
X72550000Y-97018999D01*
X70850000Y-97018999D01*
X70687880Y-97034966D01*
X70531990Y-97082255D01*
X70388321Y-97159048D01*
X70262394Y-97262394D01*
X70159048Y-97388321D01*
X70082255Y-97531990D01*
X70034966Y-97687880D01*
X70018999Y-97850000D01*
X69381001Y-97850000D01*
X69365034Y-97687880D01*
X69317745Y-97531990D01*
X69240952Y-97388321D01*
X69137606Y-97262394D01*
X69011679Y-97159048D01*
X68868010Y-97082255D01*
X68712120Y-97034966D01*
X68550000Y-97018999D01*
X66850000Y-97018999D01*
X66687880Y-97034966D01*
X66531990Y-97082255D01*
X66388321Y-97159048D01*
X66262394Y-97262394D01*
X66159048Y-97388321D01*
X66082255Y-97531990D01*
X66034966Y-97687880D01*
X66018999Y-97850000D01*
X35877000Y-97850000D01*
X35877000Y-95467367D01*
X37614250Y-95465000D01*
X37773000Y-95306250D01*
X37773000Y-93747000D01*
X37753000Y-93747000D01*
X37753000Y-93493000D01*
X37773000Y-93493000D01*
X37773000Y-91933750D01*
X38027000Y-91933750D01*
X38027000Y-93493000D01*
X38047000Y-93493000D01*
X38047000Y-93747000D01*
X38027000Y-93747000D01*
X38027000Y-95306250D01*
X38185750Y-95465000D01*
X40440000Y-95468072D01*
X40564482Y-95455812D01*
X40684180Y-95419502D01*
X40794494Y-95360537D01*
X40891185Y-95281185D01*
X40970537Y-95184494D01*
X41029502Y-95074180D01*
X41065812Y-94954482D01*
X41078072Y-94830000D01*
X41077807Y-94750000D01*
X54618999Y-94750000D01*
X54618999Y-96450000D01*
X54634966Y-96612120D01*
X54682255Y-96768010D01*
X54759048Y-96911679D01*
X54862394Y-97037606D01*
X54988321Y-97140952D01*
X55131990Y-97217745D01*
X55287880Y-97265034D01*
X55450000Y-97281001D01*
X57150000Y-97281001D01*
X57312120Y-97265034D01*
X57468010Y-97217745D01*
X57611679Y-97140952D01*
X57737606Y-97037606D01*
X57840952Y-96911679D01*
X57917745Y-96768010D01*
X57965034Y-96612120D01*
X57981001Y-96450000D01*
X57981001Y-95656891D01*
X59618519Y-95656891D01*
X59715843Y-95931252D01*
X59864822Y-96181355D01*
X60059731Y-96397588D01*
X60293080Y-96571641D01*
X60555901Y-96696825D01*
X60703110Y-96741476D01*
X60933000Y-96620155D01*
X60933000Y-95427000D01*
X59739186Y-95427000D01*
X59618519Y-95656891D01*
X57981001Y-95656891D01*
X57981001Y-94750000D01*
X57965034Y-94587880D01*
X57917745Y-94431990D01*
X57840952Y-94288321D01*
X57737606Y-94162394D01*
X57611679Y-94059048D01*
X57468010Y-93982255D01*
X57312120Y-93934966D01*
X57150000Y-93918999D01*
X55450000Y-93918999D01*
X55287880Y-93934966D01*
X55131990Y-93982255D01*
X54988321Y-94059048D01*
X54862394Y-94162394D01*
X54759048Y-94288321D01*
X54682255Y-94431990D01*
X54634966Y-94587880D01*
X54618999Y-94750000D01*
X41077807Y-94750000D01*
X41077670Y-94708986D01*
X41202445Y-94736981D01*
X41423001Y-94742355D01*
X41640367Y-94704596D01*
X41846189Y-94625158D01*
X41894534Y-94599316D01*
X41927811Y-94387416D01*
X41340000Y-93799605D01*
X41325858Y-93813748D01*
X41146253Y-93634143D01*
X41160395Y-93620000D01*
X41519605Y-93620000D01*
X42107416Y-94207811D01*
X42319316Y-94174534D01*
X42408683Y-93972824D01*
X42456981Y-93757555D01*
X42462355Y-93536999D01*
X42424596Y-93319633D01*
X42345158Y-93113811D01*
X42319316Y-93065466D01*
X42107416Y-93032189D01*
X41519605Y-93620000D01*
X41160395Y-93620000D01*
X41146253Y-93605858D01*
X41325858Y-93426253D01*
X41340000Y-93440395D01*
X41927811Y-92852584D01*
X41894534Y-92640684D01*
X41692824Y-92551317D01*
X41477555Y-92503019D01*
X41256999Y-92497645D01*
X41077677Y-92528795D01*
X41078072Y-92410000D01*
X41065812Y-92285518D01*
X41029502Y-92165820D01*
X40970537Y-92055506D01*
X40891185Y-91958815D01*
X40794494Y-91879463D01*
X40684180Y-91820498D01*
X40564482Y-91784188D01*
X40440000Y-91771928D01*
X38185750Y-91775000D01*
X38027000Y-91933750D01*
X37773000Y-91933750D01*
X37614250Y-91775000D01*
X35877000Y-91772633D01*
X35877000Y-90650000D01*
X47318999Y-90650000D01*
X47318999Y-92350000D01*
X47334966Y-92512120D01*
X47382255Y-92668010D01*
X47459048Y-92811679D01*
X47562394Y-92937606D01*
X47688321Y-93040952D01*
X47831990Y-93117745D01*
X47987880Y-93165034D01*
X48150000Y-93181001D01*
X49850000Y-93181001D01*
X50012120Y-93165034D01*
X50168010Y-93117745D01*
X50311679Y-93040952D01*
X50437606Y-92937606D01*
X50540952Y-92811679D01*
X50617745Y-92668010D01*
X50665034Y-92512120D01*
X50681001Y-92350000D01*
X50681001Y-90950000D01*
X56218999Y-90950000D01*
X56218999Y-92650000D01*
X56234966Y-92812120D01*
X56282255Y-92968010D01*
X56359048Y-93111679D01*
X56462394Y-93237606D01*
X56588321Y-93340952D01*
X56731990Y-93417745D01*
X56887880Y-93465034D01*
X57050000Y-93481001D01*
X58750000Y-93481001D01*
X58912120Y-93465034D01*
X59068010Y-93417745D01*
X59211679Y-93340952D01*
X59337606Y-93237606D01*
X59440952Y-93111679D01*
X59517745Y-92968010D01*
X59565034Y-92812120D01*
X59581001Y-92650000D01*
X59581001Y-92214356D01*
X59749999Y-92231001D01*
X60650001Y-92231001D01*
X60844546Y-92211840D01*
X60751285Y-92386318D01*
X60689770Y-92589106D01*
X60668999Y-92799999D01*
X60668999Y-93450001D01*
X60689770Y-93660894D01*
X60751285Y-93863682D01*
X60766373Y-93891910D01*
X60703110Y-93858524D01*
X60555901Y-93903175D01*
X60293080Y-94028359D01*
X60059731Y-94202412D01*
X59864822Y-94418645D01*
X59715843Y-94668748D01*
X59618519Y-94943109D01*
X59739186Y-95173000D01*
X60933000Y-95173000D01*
X60933000Y-95153000D01*
X61187000Y-95153000D01*
X61187000Y-95173000D01*
X61207000Y-95173000D01*
X61207000Y-95427000D01*
X61187000Y-95427000D01*
X61187000Y-96620155D01*
X61416890Y-96741476D01*
X61564099Y-96696825D01*
X61826920Y-96571641D01*
X61979229Y-96458035D01*
X61982255Y-96468010D01*
X62059048Y-96611679D01*
X62162394Y-96737606D01*
X62288321Y-96840952D01*
X62431990Y-96917745D01*
X62587880Y-96965034D01*
X62750000Y-96981001D01*
X64450000Y-96981001D01*
X64612120Y-96965034D01*
X64768010Y-96917745D01*
X64911679Y-96840952D01*
X65037606Y-96737606D01*
X65140952Y-96611679D01*
X65217745Y-96468010D01*
X65265034Y-96312120D01*
X65281001Y-96150000D01*
X65281001Y-94450000D01*
X65265034Y-94287880D01*
X65257020Y-94261460D01*
X65314383Y-94214383D01*
X65448820Y-94050572D01*
X65548715Y-93863682D01*
X65610230Y-93660894D01*
X65631001Y-93450001D01*
X65631001Y-92799999D01*
X65610230Y-92589106D01*
X65548715Y-92386318D01*
X65544885Y-92379151D01*
X72173000Y-92379151D01*
X72173000Y-92620849D01*
X72220153Y-92857903D01*
X72312647Y-93081202D01*
X72446927Y-93282167D01*
X72617833Y-93453073D01*
X72818798Y-93587353D01*
X73042097Y-93679847D01*
X73279151Y-93727000D01*
X73520849Y-93727000D01*
X73757903Y-93679847D01*
X73981202Y-93587353D01*
X74146358Y-93477000D01*
X76153642Y-93477000D01*
X76318798Y-93587353D01*
X76542097Y-93679847D01*
X76779151Y-93727000D01*
X77020849Y-93727000D01*
X77257903Y-93679847D01*
X77481202Y-93587353D01*
X77682167Y-93453073D01*
X77853073Y-93282167D01*
X77987353Y-93081202D01*
X78079847Y-92857903D01*
X78127000Y-92620849D01*
X78127000Y-92379151D01*
X78079847Y-92142097D01*
X77987353Y-91918798D01*
X77853073Y-91717833D01*
X77682167Y-91546927D01*
X77481202Y-91412647D01*
X77257903Y-91320153D01*
X77020849Y-91273000D01*
X76779151Y-91273000D01*
X76542097Y-91320153D01*
X76318798Y-91412647D01*
X76153642Y-91523000D01*
X74146358Y-91523000D01*
X73981202Y-91412647D01*
X73757903Y-91320153D01*
X73520849Y-91273000D01*
X73279151Y-91273000D01*
X73042097Y-91320153D01*
X72818798Y-91412647D01*
X72617833Y-91546927D01*
X72446927Y-91717833D01*
X72312647Y-91918798D01*
X72220153Y-92142097D01*
X72173000Y-92379151D01*
X65544885Y-92379151D01*
X65448820Y-92199428D01*
X65367221Y-92100000D01*
X65448820Y-92000572D01*
X65548715Y-91813682D01*
X65610230Y-91610894D01*
X65631001Y-91400001D01*
X65631001Y-91331001D01*
X66000001Y-91331001D01*
X66210894Y-91310230D01*
X66413682Y-91248715D01*
X66600572Y-91148820D01*
X66764383Y-91014383D01*
X66768987Y-91008773D01*
X66795506Y-91030537D01*
X66905820Y-91089502D01*
X67025518Y-91125812D01*
X67150000Y-91138072D01*
X67439250Y-91135000D01*
X67598000Y-90976250D01*
X67598000Y-89927000D01*
X67852000Y-89927000D01*
X67852000Y-90976250D01*
X68010750Y-91135000D01*
X68300000Y-91138072D01*
X68424482Y-91125812D01*
X68544180Y-91089502D01*
X68654494Y-91030537D01*
X68751185Y-90951185D01*
X68830537Y-90854494D01*
X68889502Y-90744180D01*
X68925812Y-90624482D01*
X68938072Y-90500000D01*
X68935000Y-90085750D01*
X68776250Y-89927000D01*
X67852000Y-89927000D01*
X67598000Y-89927000D01*
X67578000Y-89927000D01*
X67578000Y-89673000D01*
X67598000Y-89673000D01*
X67598000Y-88623750D01*
X67852000Y-88623750D01*
X67852000Y-89673000D01*
X68776250Y-89673000D01*
X68935000Y-89514250D01*
X68938072Y-89100000D01*
X68925812Y-88975518D01*
X68889502Y-88855820D01*
X68830537Y-88745506D01*
X68751185Y-88648815D01*
X68654494Y-88569463D01*
X68544180Y-88510498D01*
X68424482Y-88474188D01*
X68300000Y-88461928D01*
X68010750Y-88465000D01*
X67852000Y-88623750D01*
X67598000Y-88623750D01*
X67439250Y-88465000D01*
X67150000Y-88461928D01*
X67025518Y-88474188D01*
X66905820Y-88510498D01*
X66795506Y-88569463D01*
X66768987Y-88591227D01*
X66764383Y-88585617D01*
X66600572Y-88451180D01*
X66413682Y-88351285D01*
X66210894Y-88289770D01*
X66000001Y-88268999D01*
X65792604Y-88268999D01*
X65810230Y-88210894D01*
X65831001Y-88000001D01*
X65831001Y-87349999D01*
X65810230Y-87139106D01*
X65748715Y-86936318D01*
X65648820Y-86749428D01*
X65514383Y-86585617D01*
X65350572Y-86451180D01*
X65163682Y-86351285D01*
X64960894Y-86289770D01*
X64750001Y-86268999D01*
X63849999Y-86268999D01*
X63639106Y-86289770D01*
X63436318Y-86351285D01*
X63414879Y-86362744D01*
X63588497Y-86246737D01*
X63759403Y-86075831D01*
X63826990Y-85974679D01*
X85543000Y-85974679D01*
X85543000Y-86285321D01*
X85603604Y-86589994D01*
X85722481Y-86876989D01*
X85895064Y-87135279D01*
X86114721Y-87354936D01*
X86373011Y-87527519D01*
X86660006Y-87646396D01*
X86964679Y-87707000D01*
X87275321Y-87707000D01*
X87579994Y-87646396D01*
X87866989Y-87527519D01*
X88125279Y-87354936D01*
X88344936Y-87135279D01*
X88377199Y-87086993D01*
X91222612Y-87086993D01*
X91288137Y-87325860D01*
X91535116Y-87441760D01*
X91799960Y-87507250D01*
X92072492Y-87519812D01*
X92342238Y-87478965D01*
X92598832Y-87386277D01*
X92711863Y-87325860D01*
X92777388Y-87086993D01*
X92000000Y-86309605D01*
X91222612Y-87086993D01*
X88377199Y-87086993D01*
X88517519Y-86876989D01*
X88636396Y-86589994D01*
X88697000Y-86285321D01*
X88697000Y-86202492D01*
X90610188Y-86202492D01*
X90651035Y-86472238D01*
X90743723Y-86728832D01*
X90804140Y-86841863D01*
X91043007Y-86907388D01*
X91820395Y-86130000D01*
X92179605Y-86130000D01*
X92956993Y-86907388D01*
X93195860Y-86841863D01*
X93311760Y-86594884D01*
X93377250Y-86330040D01*
X93389812Y-86057508D01*
X93348965Y-85787762D01*
X93256277Y-85531168D01*
X93195860Y-85418137D01*
X92956993Y-85352612D01*
X92179605Y-86130000D01*
X91820395Y-86130000D01*
X91043007Y-85352612D01*
X90804140Y-85418137D01*
X90688240Y-85665116D01*
X90622750Y-85929960D01*
X90610188Y-86202492D01*
X88697000Y-86202492D01*
X88697000Y-85974679D01*
X88636396Y-85670006D01*
X88517519Y-85383011D01*
X88377200Y-85173007D01*
X91222612Y-85173007D01*
X92000000Y-85950395D01*
X92777388Y-85173007D01*
X92711863Y-84934140D01*
X92464884Y-84818240D01*
X92200040Y-84752750D01*
X91927508Y-84740188D01*
X91657762Y-84781035D01*
X91401168Y-84873723D01*
X91288137Y-84934140D01*
X91222612Y-85173007D01*
X88377200Y-85173007D01*
X88344936Y-85124721D01*
X88125279Y-84905064D01*
X87866989Y-84732481D01*
X87579994Y-84613604D01*
X87275321Y-84553000D01*
X86964679Y-84553000D01*
X86660006Y-84613604D01*
X86373011Y-84732481D01*
X86114721Y-84905064D01*
X85895064Y-85124721D01*
X85722481Y-85383011D01*
X85603604Y-85670006D01*
X85543000Y-85974679D01*
X63826990Y-85974679D01*
X63893683Y-85874866D01*
X63986177Y-85651567D01*
X64033330Y-85414513D01*
X64033330Y-85172815D01*
X63986177Y-84935761D01*
X63893683Y-84712462D01*
X63759403Y-84511497D01*
X63588497Y-84340591D01*
X63387532Y-84206311D01*
X63164233Y-84113817D01*
X62927179Y-84066664D01*
X62685481Y-84066664D01*
X62448427Y-84113817D01*
X62225128Y-84206311D01*
X62024163Y-84340591D01*
X61853257Y-84511497D01*
X61718977Y-84712462D01*
X61626483Y-84935761D01*
X61582503Y-85156862D01*
X61493003Y-85324304D01*
X61437137Y-85508469D01*
X61418273Y-85699994D01*
X61423001Y-85747997D01*
X61423001Y-86411855D01*
X61349428Y-86451180D01*
X61185617Y-86585617D01*
X61051180Y-86749428D01*
X60951285Y-86936318D01*
X60889770Y-87139106D01*
X60868999Y-87349999D01*
X60868999Y-87562158D01*
X60485750Y-87565000D01*
X60327000Y-87723750D01*
X60327000Y-88648000D01*
X60347000Y-88648000D01*
X60347000Y-88902000D01*
X60327000Y-88902000D01*
X60327000Y-88922000D01*
X60073000Y-88922000D01*
X60073000Y-88902000D01*
X59023750Y-88902000D01*
X58865000Y-89060750D01*
X58861928Y-89350000D01*
X58874188Y-89474482D01*
X58910498Y-89594180D01*
X58969463Y-89704494D01*
X58991227Y-89731013D01*
X58985617Y-89735617D01*
X58851180Y-89899428D01*
X58751285Y-90086318D01*
X58741371Y-90118999D01*
X57050000Y-90118999D01*
X56887880Y-90134966D01*
X56731990Y-90182255D01*
X56588321Y-90259048D01*
X56462394Y-90362394D01*
X56359048Y-90488321D01*
X56282255Y-90631990D01*
X56234966Y-90787880D01*
X56218999Y-90950000D01*
X50681001Y-90950000D01*
X50681001Y-90650000D01*
X50665034Y-90487880D01*
X50617745Y-90331990D01*
X50540952Y-90188321D01*
X50437606Y-90062394D01*
X50311679Y-89959048D01*
X50168010Y-89882255D01*
X50012120Y-89834966D01*
X49850000Y-89818999D01*
X48150000Y-89818999D01*
X47987880Y-89834966D01*
X47831990Y-89882255D01*
X47688321Y-89959048D01*
X47562394Y-90062394D01*
X47459048Y-90188321D01*
X47382255Y-90331990D01*
X47334966Y-90487880D01*
X47318999Y-90650000D01*
X35877000Y-90650000D01*
X35877000Y-89763089D01*
X37410250Y-89761000D01*
X37569000Y-89602250D01*
X37569000Y-88043000D01*
X37549000Y-88043000D01*
X37549000Y-87789000D01*
X37569000Y-87789000D01*
X37569000Y-86229750D01*
X37823000Y-86229750D01*
X37823000Y-87789000D01*
X37843000Y-87789000D01*
X37843000Y-88043000D01*
X37823000Y-88043000D01*
X37823000Y-89602250D01*
X37981750Y-89761000D01*
X40236000Y-89764072D01*
X40360482Y-89751812D01*
X40480180Y-89715502D01*
X40590494Y-89656537D01*
X40687185Y-89577185D01*
X40766537Y-89480494D01*
X40825502Y-89370180D01*
X40861812Y-89250482D01*
X40874072Y-89126000D01*
X40873670Y-89004986D01*
X40998445Y-89032981D01*
X41219001Y-89038355D01*
X41436367Y-89000596D01*
X41642189Y-88921158D01*
X41690534Y-88895316D01*
X41723811Y-88683416D01*
X41136000Y-88095605D01*
X41121858Y-88109748D01*
X40942253Y-87930143D01*
X40956395Y-87916000D01*
X41315605Y-87916000D01*
X41903416Y-88503811D01*
X42115316Y-88470534D01*
X42204683Y-88268824D01*
X42220124Y-88200000D01*
X58861928Y-88200000D01*
X58865000Y-88489250D01*
X59023750Y-88648000D01*
X60073000Y-88648000D01*
X60073000Y-87723750D01*
X59914250Y-87565000D01*
X59500000Y-87561928D01*
X59375518Y-87574188D01*
X59255820Y-87610498D01*
X59145506Y-87669463D01*
X59048815Y-87748815D01*
X58969463Y-87845506D01*
X58910498Y-87955820D01*
X58874188Y-88075518D01*
X58861928Y-88200000D01*
X42220124Y-88200000D01*
X42252981Y-88053555D01*
X42258355Y-87832999D01*
X42220596Y-87615633D01*
X42141158Y-87409811D01*
X42115316Y-87361466D01*
X41903416Y-87328189D01*
X41315605Y-87916000D01*
X40956395Y-87916000D01*
X40942253Y-87901858D01*
X41121858Y-87722253D01*
X41136000Y-87736395D01*
X41723811Y-87148584D01*
X41690534Y-86936684D01*
X41488824Y-86847317D01*
X41273555Y-86799019D01*
X41052999Y-86793645D01*
X40873677Y-86824795D01*
X40874072Y-86706000D01*
X40861812Y-86581518D01*
X40825502Y-86461820D01*
X40766537Y-86351506D01*
X40687185Y-86254815D01*
X40590494Y-86175463D01*
X40480180Y-86116498D01*
X40360482Y-86080188D01*
X40236000Y-86067928D01*
X37981750Y-86071000D01*
X37823000Y-86229750D01*
X37569000Y-86229750D01*
X37410250Y-86071000D01*
X35877000Y-86068911D01*
X35877000Y-81003089D01*
X37410250Y-81001000D01*
X37569000Y-80842250D01*
X37569000Y-79283000D01*
X37549000Y-79283000D01*
X37549000Y-79029000D01*
X37569000Y-79029000D01*
X37569000Y-77469750D01*
X37823000Y-77469750D01*
X37823000Y-79029000D01*
X37843000Y-79029000D01*
X37843000Y-79283000D01*
X37823000Y-79283000D01*
X37823000Y-80842250D01*
X37981750Y-81001000D01*
X40236000Y-81004072D01*
X40360482Y-80991812D01*
X40480180Y-80955502D01*
X40590494Y-80896537D01*
X40687185Y-80817185D01*
X40766537Y-80720494D01*
X40825502Y-80610180D01*
X40861812Y-80490482D01*
X40874072Y-80366000D01*
X40873670Y-80244986D01*
X40998445Y-80272981D01*
X41219001Y-80278355D01*
X41436367Y-80240596D01*
X41642189Y-80161158D01*
X41690534Y-80135316D01*
X41723811Y-79923416D01*
X41136000Y-79335605D01*
X41121858Y-79349748D01*
X40942253Y-79170143D01*
X40956395Y-79156000D01*
X41315605Y-79156000D01*
X41903416Y-79743811D01*
X42115316Y-79710534D01*
X42204683Y-79508824D01*
X42252981Y-79293555D01*
X42258355Y-79072999D01*
X42220596Y-78855633D01*
X42184057Y-78760961D01*
X45573000Y-78760961D01*
X45573000Y-79239039D01*
X45666268Y-79707930D01*
X45849221Y-80149615D01*
X46114826Y-80547122D01*
X46452878Y-80885174D01*
X46850385Y-81150779D01*
X47292070Y-81333732D01*
X47760961Y-81427000D01*
X48239039Y-81427000D01*
X48707930Y-81333732D01*
X49149615Y-81150779D01*
X49547122Y-80885174D01*
X49885174Y-80547122D01*
X50150779Y-80149615D01*
X50233462Y-79950000D01*
X55218999Y-79950000D01*
X55218999Y-81650000D01*
X55234966Y-81812120D01*
X55282255Y-81968010D01*
X55359048Y-82111679D01*
X55462394Y-82237606D01*
X55588321Y-82340952D01*
X55731990Y-82417745D01*
X55887880Y-82465034D01*
X56050000Y-82481001D01*
X57750000Y-82481001D01*
X57912120Y-82465034D01*
X58068010Y-82417745D01*
X58211679Y-82340952D01*
X58337606Y-82237606D01*
X58440952Y-82111679D01*
X58517745Y-81968010D01*
X58565034Y-81812120D01*
X58581001Y-81650000D01*
X58581001Y-79950000D01*
X58565034Y-79787880D01*
X58553544Y-79750000D01*
X59718999Y-79750000D01*
X59718999Y-81450000D01*
X59734966Y-81612120D01*
X59782255Y-81768010D01*
X59859048Y-81911679D01*
X59962394Y-82037606D01*
X60088321Y-82140952D01*
X60231990Y-82217745D01*
X60387880Y-82265034D01*
X60550000Y-82281001D01*
X62250000Y-82281001D01*
X62412120Y-82265034D01*
X62568010Y-82217745D01*
X62711679Y-82140952D01*
X62837606Y-82037606D01*
X62940952Y-81911679D01*
X63017745Y-81768010D01*
X63065034Y-81612120D01*
X63081001Y-81450000D01*
X63081001Y-80950000D01*
X65318999Y-80950000D01*
X65318999Y-82650000D01*
X65334966Y-82812120D01*
X65382255Y-82968010D01*
X65459048Y-83111679D01*
X65562394Y-83237606D01*
X65688321Y-83340952D01*
X65831990Y-83417745D01*
X65987880Y-83465034D01*
X66150000Y-83481001D01*
X67850000Y-83481001D01*
X68012120Y-83465034D01*
X68168010Y-83417745D01*
X68311679Y-83340952D01*
X68437606Y-83237606D01*
X68540952Y-83111679D01*
X68617745Y-82968010D01*
X68620771Y-82958035D01*
X68773080Y-83071641D01*
X69035901Y-83196825D01*
X69183110Y-83241476D01*
X69413000Y-83120155D01*
X69413000Y-81927000D01*
X69667000Y-81927000D01*
X69667000Y-83120155D01*
X69896890Y-83241476D01*
X70044099Y-83196825D01*
X70306920Y-83071641D01*
X70540269Y-82897588D01*
X70735178Y-82681355D01*
X70884157Y-82431252D01*
X70981481Y-82156891D01*
X70860814Y-81927000D01*
X69667000Y-81927000D01*
X69413000Y-81927000D01*
X69393000Y-81927000D01*
X69393000Y-81673000D01*
X69413000Y-81673000D01*
X69413000Y-80479845D01*
X69667000Y-80479845D01*
X69667000Y-81673000D01*
X70860814Y-81673000D01*
X70981481Y-81443109D01*
X70884157Y-81168748D01*
X70735178Y-80918645D01*
X70540269Y-80702412D01*
X70389561Y-80590000D01*
X73218999Y-80590000D01*
X73218999Y-82290000D01*
X73234966Y-82452120D01*
X73282255Y-82608010D01*
X73359048Y-82751679D01*
X73462394Y-82877606D01*
X73588321Y-82980952D01*
X73731990Y-83057745D01*
X73887880Y-83105034D01*
X74050000Y-83121001D01*
X75750000Y-83121001D01*
X75912120Y-83105034D01*
X76068010Y-83057745D01*
X76211679Y-82980952D01*
X76337606Y-82877606D01*
X76440952Y-82751679D01*
X76517745Y-82608010D01*
X76565034Y-82452120D01*
X76581001Y-82290000D01*
X76581001Y-80590000D01*
X76565034Y-80427880D01*
X76517745Y-80271990D01*
X76440952Y-80128321D01*
X76337606Y-80002394D01*
X76211679Y-79899048D01*
X76068010Y-79822255D01*
X76058035Y-79819229D01*
X76171641Y-79666920D01*
X76296825Y-79404099D01*
X76341476Y-79256890D01*
X76220155Y-79027000D01*
X75027000Y-79027000D01*
X75027000Y-79047000D01*
X74773000Y-79047000D01*
X74773000Y-79027000D01*
X73579845Y-79027000D01*
X73458524Y-79256890D01*
X73503175Y-79404099D01*
X73628359Y-79666920D01*
X73741965Y-79819229D01*
X73731990Y-79822255D01*
X73588321Y-79899048D01*
X73462394Y-80002394D01*
X73359048Y-80128321D01*
X73282255Y-80271990D01*
X73234966Y-80427880D01*
X73218999Y-80590000D01*
X70389561Y-80590000D01*
X70306920Y-80528359D01*
X70044099Y-80403175D01*
X69896890Y-80358524D01*
X69667000Y-80479845D01*
X69413000Y-80479845D01*
X69183110Y-80358524D01*
X69035901Y-80403175D01*
X68773080Y-80528359D01*
X68620771Y-80641965D01*
X68617745Y-80631990D01*
X68540952Y-80488321D01*
X68437606Y-80362394D01*
X68311679Y-80259048D01*
X68168010Y-80182255D01*
X68012120Y-80134966D01*
X67850000Y-80118999D01*
X66150000Y-80118999D01*
X65987880Y-80134966D01*
X65831990Y-80182255D01*
X65688321Y-80259048D01*
X65562394Y-80362394D01*
X65459048Y-80488321D01*
X65382255Y-80631990D01*
X65334966Y-80787880D01*
X65318999Y-80950000D01*
X63081001Y-80950000D01*
X63081001Y-79750000D01*
X63065034Y-79587880D01*
X63017745Y-79431990D01*
X62940952Y-79288321D01*
X62837606Y-79162394D01*
X62711679Y-79059048D01*
X62568010Y-78982255D01*
X62412120Y-78934966D01*
X62250000Y-78918999D01*
X60550000Y-78918999D01*
X60387880Y-78934966D01*
X60231990Y-78982255D01*
X60088321Y-79059048D01*
X59962394Y-79162394D01*
X59859048Y-79288321D01*
X59782255Y-79431990D01*
X59734966Y-79587880D01*
X59718999Y-79750000D01*
X58553544Y-79750000D01*
X58517745Y-79631990D01*
X58440952Y-79488321D01*
X58337606Y-79362394D01*
X58211679Y-79259048D01*
X58068010Y-79182255D01*
X57912120Y-79134966D01*
X57750000Y-79118999D01*
X56050000Y-79118999D01*
X55887880Y-79134966D01*
X55731990Y-79182255D01*
X55588321Y-79259048D01*
X55462394Y-79362394D01*
X55359048Y-79488321D01*
X55282255Y-79631990D01*
X55234966Y-79787880D01*
X55218999Y-79950000D01*
X50233462Y-79950000D01*
X50333732Y-79707930D01*
X50427000Y-79239039D01*
X50427000Y-78760961D01*
X50383667Y-78543110D01*
X73458524Y-78543110D01*
X73579845Y-78773000D01*
X74773000Y-78773000D01*
X74773000Y-77579186D01*
X75027000Y-77579186D01*
X75027000Y-78773000D01*
X76220155Y-78773000D01*
X76226508Y-78760961D01*
X90573000Y-78760961D01*
X90573000Y-79239039D01*
X90666268Y-79707930D01*
X90849221Y-80149615D01*
X91114826Y-80547122D01*
X91452878Y-80885174D01*
X91850385Y-81150779D01*
X92292070Y-81333732D01*
X92760961Y-81427000D01*
X93239039Y-81427000D01*
X93707930Y-81333732D01*
X94149615Y-81150779D01*
X94547122Y-80885174D01*
X94885174Y-80547122D01*
X95150779Y-80149615D01*
X95333732Y-79707930D01*
X95427000Y-79239039D01*
X95427000Y-78760961D01*
X95333732Y-78292070D01*
X95150779Y-77850385D01*
X94885174Y-77452878D01*
X94547122Y-77114826D01*
X94149615Y-76849221D01*
X93707930Y-76666268D01*
X93239039Y-76573000D01*
X92760961Y-76573000D01*
X92292070Y-76666268D01*
X91850385Y-76849221D01*
X91452878Y-77114826D01*
X91114826Y-77452878D01*
X90849221Y-77850385D01*
X90666268Y-78292070D01*
X90573000Y-78760961D01*
X76226508Y-78760961D01*
X76341476Y-78543110D01*
X76296825Y-78395901D01*
X76171641Y-78133080D01*
X75997588Y-77899731D01*
X75781355Y-77704822D01*
X75531252Y-77555843D01*
X75256891Y-77458519D01*
X75027000Y-77579186D01*
X74773000Y-77579186D01*
X74543109Y-77458519D01*
X74268748Y-77555843D01*
X74018645Y-77704822D01*
X73802412Y-77899731D01*
X73628359Y-78133080D01*
X73503175Y-78395901D01*
X73458524Y-78543110D01*
X50383667Y-78543110D01*
X50333732Y-78292070D01*
X50150779Y-77850385D01*
X49885174Y-77452878D01*
X49547122Y-77114826D01*
X49149615Y-76849221D01*
X48707930Y-76666268D01*
X48239039Y-76573000D01*
X47760961Y-76573000D01*
X47292070Y-76666268D01*
X46850385Y-76849221D01*
X46452878Y-77114826D01*
X46114826Y-77452878D01*
X45849221Y-77850385D01*
X45666268Y-78292070D01*
X45573000Y-78760961D01*
X42184057Y-78760961D01*
X42141158Y-78649811D01*
X42115316Y-78601466D01*
X41903416Y-78568189D01*
X41315605Y-79156000D01*
X40956395Y-79156000D01*
X40942253Y-79141858D01*
X41121858Y-78962253D01*
X41136000Y-78976395D01*
X41723811Y-78388584D01*
X41690534Y-78176684D01*
X41488824Y-78087317D01*
X41273555Y-78039019D01*
X41052999Y-78033645D01*
X40873677Y-78064795D01*
X40874072Y-77946000D01*
X40861812Y-77821518D01*
X40825502Y-77701820D01*
X40766537Y-77591506D01*
X40687185Y-77494815D01*
X40590494Y-77415463D01*
X40480180Y-77356498D01*
X40360482Y-77320188D01*
X40236000Y-77307928D01*
X37981750Y-77311000D01*
X37823000Y-77469750D01*
X37569000Y-77469750D01*
X37410250Y-77311000D01*
X35877000Y-77308911D01*
X35877000Y-75377000D01*
X97123000Y-75377000D01*
X97123001Y-129623000D01*
G37*
X97123001Y-129623000D02*
X35877000Y-129623000D01*
X35877000Y-125760961D01*
X37573000Y-125760961D01*
X37573000Y-126239039D01*
X37666268Y-126707930D01*
X37849221Y-127149615D01*
X38114826Y-127547122D01*
X38452878Y-127885174D01*
X38850385Y-128150779D01*
X39292070Y-128333732D01*
X39760961Y-128427000D01*
X40239039Y-128427000D01*
X40707930Y-128333732D01*
X41149615Y-128150779D01*
X41547122Y-127885174D01*
X41885174Y-127547122D01*
X42150779Y-127149615D01*
X42333732Y-126707930D01*
X42422999Y-126259151D01*
X80523000Y-126259151D01*
X80523000Y-126500849D01*
X80570153Y-126737903D01*
X80662647Y-126961202D01*
X80796927Y-127162167D01*
X80967833Y-127333073D01*
X81168798Y-127467353D01*
X81392097Y-127559847D01*
X81629151Y-127607000D01*
X81870849Y-127607000D01*
X82107903Y-127559847D01*
X82331202Y-127467353D01*
X82532167Y-127333073D01*
X82703073Y-127162167D01*
X82837353Y-126961202D01*
X82929847Y-126737903D01*
X82942451Y-126674538D01*
X82954830Y-126677000D01*
X83285170Y-126677000D01*
X83609163Y-126612554D01*
X83914357Y-126486138D01*
X84189025Y-126302611D01*
X84422611Y-126069025D01*
X84606138Y-125794357D01*
X84619971Y-125760961D01*
X90573000Y-125760961D01*
X90573000Y-126239039D01*
X90666268Y-126707930D01*
X90849221Y-127149615D01*
X91114826Y-127547122D01*
X91452878Y-127885174D01*
X91850385Y-128150779D01*
X92292070Y-128333732D01*
X92760961Y-128427000D01*
X93239039Y-128427000D01*
X93707930Y-128333732D01*
X94149615Y-128150779D01*
X94547122Y-127885174D01*
X94885174Y-127547122D01*
X95150779Y-127149615D01*
X95333732Y-126707930D01*
X95427000Y-126239039D01*
X95427000Y-125760961D01*
X95333732Y-125292070D01*
X95150779Y-124850385D01*
X94885174Y-124452878D01*
X94547122Y-124114826D01*
X94149615Y-123849221D01*
X93707930Y-123666268D01*
X93239039Y-123573000D01*
X92760961Y-123573000D01*
X92292070Y-123666268D01*
X91850385Y-123849221D01*
X91452878Y-124114826D01*
X91114826Y-124452878D01*
X90849221Y-124850385D01*
X90666268Y-125292070D01*
X90573000Y-125760961D01*
X84619971Y-125760961D01*
X84732554Y-125489163D01*
X84797000Y-125165170D01*
X84797000Y-124834830D01*
X84732554Y-124510837D01*
X84606138Y-124205643D01*
X84456020Y-123980976D01*
X84557606Y-123897606D01*
X84660952Y-123771679D01*
X84737745Y-123628010D01*
X84785034Y-123472120D01*
X84801001Y-123310000D01*
X84801001Y-121610000D01*
X84785034Y-121447880D01*
X84737745Y-121291990D01*
X84660952Y-121148321D01*
X84557606Y-121022394D01*
X84431679Y-120919048D01*
X84288010Y-120842255D01*
X84132120Y-120794966D01*
X83970000Y-120778999D01*
X82270000Y-120778999D01*
X82107880Y-120794966D01*
X81951990Y-120842255D01*
X81808321Y-120919048D01*
X81682394Y-121022394D01*
X81579048Y-121148321D01*
X81502255Y-121291990D01*
X81454966Y-121447880D01*
X81438999Y-121610000D01*
X81438999Y-122759315D01*
X81093093Y-123105221D01*
X81055815Y-123135814D01*
X81025222Y-123173092D01*
X81025221Y-123173093D01*
X80933725Y-123284582D01*
X80843003Y-123454310D01*
X80787137Y-123638475D01*
X80768273Y-123830000D01*
X80773001Y-123878003D01*
X80773000Y-125633642D01*
X80662647Y-125798798D01*
X80570153Y-126022097D01*
X80523000Y-126259151D01*
X42422999Y-126259151D01*
X42427000Y-126239039D01*
X42427000Y-125760961D01*
X42333732Y-125292070D01*
X42150779Y-124850385D01*
X41885174Y-124452878D01*
X41547122Y-124114826D01*
X41149615Y-123849221D01*
X40707930Y-123666268D01*
X40239039Y-123573000D01*
X39760961Y-123573000D01*
X39292070Y-123666268D01*
X38850385Y-123849221D01*
X38452878Y-124114826D01*
X38114826Y-124452878D01*
X37849221Y-124850385D01*
X37666268Y-125292070D01*
X37573000Y-125760961D01*
X35877000Y-125760961D01*
X35877000Y-119910000D01*
X57898999Y-119910000D01*
X57898999Y-121610000D01*
X57914966Y-121772120D01*
X57962255Y-121928010D01*
X58039048Y-122071679D01*
X58142394Y-122197606D01*
X58243980Y-122280976D01*
X58093862Y-122505643D01*
X57967446Y-122810837D01*
X57903000Y-123134830D01*
X57903000Y-123465170D01*
X57967446Y-123789163D01*
X58093862Y-124094357D01*
X58277389Y-124369025D01*
X58510975Y-124602611D01*
X58785643Y-124786138D01*
X59090837Y-124912554D01*
X59414830Y-124977000D01*
X59745170Y-124977000D01*
X60069163Y-124912554D01*
X60374357Y-124786138D01*
X60649025Y-124602611D01*
X60882611Y-124369025D01*
X61066138Y-124094357D01*
X61192554Y-123789163D01*
X61257000Y-123465170D01*
X61257000Y-123134830D01*
X61192554Y-122810837D01*
X61066138Y-122505643D01*
X60916020Y-122280976D01*
X61017606Y-122197606D01*
X61120952Y-122071679D01*
X61197745Y-121928010D01*
X61245034Y-121772120D01*
X61261001Y-121610000D01*
X61261001Y-119910000D01*
X61245034Y-119747880D01*
X61197745Y-119591990D01*
X61120952Y-119448321D01*
X61017606Y-119322394D01*
X60891679Y-119219048D01*
X60748010Y-119142255D01*
X60592120Y-119094966D01*
X60430000Y-119078999D01*
X58730000Y-119078999D01*
X58567880Y-119094966D01*
X58411990Y-119142255D01*
X58268321Y-119219048D01*
X58142394Y-119322394D01*
X58039048Y-119448321D01*
X57962255Y-119591990D01*
X57914966Y-119747880D01*
X57898999Y-119910000D01*
X35877000Y-119910000D01*
X35877000Y-118079151D01*
X47043000Y-118079151D01*
X47043000Y-118320849D01*
X47090153Y-118557903D01*
X47182647Y-118781202D01*
X47316927Y-118982167D01*
X47487833Y-119153073D01*
X47688798Y-119287353D01*
X47912097Y-119379847D01*
X48149151Y-119427000D01*
X48390849Y-119427000D01*
X48627903Y-119379847D01*
X48851202Y-119287353D01*
X49016358Y-119177000D01*
X51631760Y-119177000D01*
X51707833Y-119253073D01*
X51908798Y-119387353D01*
X52132097Y-119479847D01*
X52369151Y-119527000D01*
X52610849Y-119527000D01*
X52847903Y-119479847D01*
X53071202Y-119387353D01*
X53272167Y-119253073D01*
X53443073Y-119082167D01*
X53577353Y-118881202D01*
X53669847Y-118657903D01*
X53717000Y-118420849D01*
X53717000Y-118179151D01*
X53669847Y-117942097D01*
X53577353Y-117718798D01*
X53443073Y-117517833D01*
X53272167Y-117346927D01*
X53071202Y-117212647D01*
X52847903Y-117120153D01*
X52610849Y-117073000D01*
X52369151Y-117073000D01*
X52132097Y-117120153D01*
X51908798Y-117212647D01*
X51893304Y-117223000D01*
X49016358Y-117223000D01*
X48851202Y-117112647D01*
X48627903Y-117020153D01*
X48390849Y-116973000D01*
X48149151Y-116973000D01*
X47912097Y-117020153D01*
X47688798Y-117112647D01*
X47487833Y-117246927D01*
X47316927Y-117417833D01*
X47182647Y-117618798D01*
X47090153Y-117842097D01*
X47043000Y-118079151D01*
X35877000Y-118079151D01*
X35877000Y-110830000D01*
X58088273Y-110830000D01*
X58093001Y-110878003D01*
X58093000Y-112632007D01*
X58088273Y-112680000D01*
X58093000Y-112727992D01*
X58107137Y-112871524D01*
X58163003Y-113055690D01*
X58253724Y-113225418D01*
X58375814Y-113374186D01*
X58413098Y-113404784D01*
X58671402Y-113663088D01*
X58710153Y-113857903D01*
X58802647Y-114081202D01*
X58936927Y-114282167D01*
X59107833Y-114453073D01*
X59308798Y-114587353D01*
X59532097Y-114679847D01*
X59769151Y-114727000D01*
X60010849Y-114727000D01*
X60247903Y-114679847D01*
X60471202Y-114587353D01*
X60672167Y-114453073D01*
X60843073Y-114282167D01*
X60977353Y-114081202D01*
X61069847Y-113857903D01*
X61117000Y-113620849D01*
X61117000Y-113379151D01*
X61111592Y-113351962D01*
X61209163Y-113332554D01*
X61514357Y-113206138D01*
X61789025Y-113022611D01*
X62022611Y-112789025D01*
X62206138Y-112514357D01*
X62332554Y-112209163D01*
X62397000Y-111885170D01*
X62397000Y-111554830D01*
X62332554Y-111230837D01*
X62206138Y-110925643D01*
X62056020Y-110700976D01*
X62157606Y-110617606D01*
X62260952Y-110491679D01*
X62337745Y-110348010D01*
X62385034Y-110192120D01*
X62401001Y-110030000D01*
X62401001Y-108330000D01*
X62385034Y-108167880D01*
X62337745Y-108011990D01*
X62260952Y-107868321D01*
X62157606Y-107742394D01*
X62031679Y-107639048D01*
X61888010Y-107562255D01*
X61847611Y-107550000D01*
X83418999Y-107550000D01*
X83418999Y-109250000D01*
X83434966Y-109412120D01*
X83482255Y-109568010D01*
X83559048Y-109711679D01*
X83662394Y-109837606D01*
X83763980Y-109920976D01*
X83613862Y-110145643D01*
X83487446Y-110450837D01*
X83423000Y-110774830D01*
X83423000Y-111105170D01*
X83487446Y-111429163D01*
X83613862Y-111734357D01*
X83797389Y-112009025D01*
X84030975Y-112242611D01*
X84305643Y-112426138D01*
X84610837Y-112552554D01*
X84934830Y-112617000D01*
X85265170Y-112617000D01*
X85589163Y-112552554D01*
X85894357Y-112426138D01*
X86169025Y-112242611D01*
X86402611Y-112009025D01*
X86586138Y-111734357D01*
X86712554Y-111429163D01*
X86777000Y-111105170D01*
X86777000Y-110774830D01*
X86712554Y-110450837D01*
X86586138Y-110145643D01*
X86436020Y-109920976D01*
X86537606Y-109837606D01*
X86640952Y-109711679D01*
X86717745Y-109568010D01*
X86765034Y-109412120D01*
X86781001Y-109250000D01*
X86781001Y-107550000D01*
X86765034Y-107387880D01*
X86717745Y-107231990D01*
X86640952Y-107088321D01*
X86537606Y-106962394D01*
X86411679Y-106859048D01*
X86268010Y-106782255D01*
X86112120Y-106734966D01*
X85950000Y-106718999D01*
X84250000Y-106718999D01*
X84087880Y-106734966D01*
X83931990Y-106782255D01*
X83788321Y-106859048D01*
X83662394Y-106962394D01*
X83559048Y-107088321D01*
X83482255Y-107231990D01*
X83434966Y-107387880D01*
X83418999Y-107550000D01*
X61847611Y-107550000D01*
X61732120Y-107514966D01*
X61570000Y-107498999D01*
X59870000Y-107498999D01*
X59707880Y-107514966D01*
X59551990Y-107562255D01*
X59408321Y-107639048D01*
X59282394Y-107742394D01*
X59179048Y-107868321D01*
X59102255Y-108011990D01*
X59054966Y-108167880D01*
X59038999Y-108330000D01*
X59038999Y-109479315D01*
X58413093Y-110105221D01*
X58375815Y-110135814D01*
X58345222Y-110173092D01*
X58345221Y-110173093D01*
X58253725Y-110284582D01*
X58163003Y-110454310D01*
X58107137Y-110638475D01*
X58088273Y-110830000D01*
X35877000Y-110830000D01*
X35877000Y-104227367D01*
X37614250Y-104225000D01*
X37773000Y-104066250D01*
X37773000Y-102507000D01*
X37753000Y-102507000D01*
X37753000Y-102253000D01*
X37773000Y-102253000D01*
X37773000Y-100693750D01*
X38027000Y-100693750D01*
X38027000Y-102253000D01*
X38047000Y-102253000D01*
X38047000Y-102507000D01*
X38027000Y-102507000D01*
X38027000Y-104066250D01*
X38185750Y-104225000D01*
X40440000Y-104228072D01*
X40564482Y-104215812D01*
X40684180Y-104179502D01*
X40794494Y-104120537D01*
X40891185Y-104041185D01*
X40970537Y-103944494D01*
X41029502Y-103834180D01*
X41065812Y-103714482D01*
X41078072Y-103590000D01*
X41077940Y-103550000D01*
X52318999Y-103550000D01*
X52318999Y-105250000D01*
X52334966Y-105412120D01*
X52382255Y-105568010D01*
X52459048Y-105711679D01*
X52562394Y-105837606D01*
X52688321Y-105940952D01*
X52831990Y-106017745D01*
X52987880Y-106065034D01*
X53150000Y-106081001D01*
X54850000Y-106081001D01*
X55012120Y-106065034D01*
X55168010Y-106017745D01*
X55311679Y-105940952D01*
X55437606Y-105837606D01*
X55540952Y-105711679D01*
X55617745Y-105568010D01*
X55665034Y-105412120D01*
X55681001Y-105250000D01*
X55681001Y-103550000D01*
X55665034Y-103387880D01*
X55617745Y-103231990D01*
X55540952Y-103088321D01*
X55437606Y-102962394D01*
X55311679Y-102859048D01*
X55168010Y-102782255D01*
X55012120Y-102734966D01*
X54850000Y-102718999D01*
X53150000Y-102718999D01*
X52987880Y-102734966D01*
X52831990Y-102782255D01*
X52688321Y-102859048D01*
X52562394Y-102962394D01*
X52459048Y-103088321D01*
X52382255Y-103231990D01*
X52334966Y-103387880D01*
X52318999Y-103550000D01*
X41077940Y-103550000D01*
X41077670Y-103468986D01*
X41202445Y-103496981D01*
X41423001Y-103502355D01*
X41640367Y-103464596D01*
X41846189Y-103385158D01*
X41894534Y-103359316D01*
X41927811Y-103147416D01*
X41340000Y-102559605D01*
X41325858Y-102573748D01*
X41146253Y-102394143D01*
X41160395Y-102380000D01*
X41519605Y-102380000D01*
X42107416Y-102967811D01*
X42319316Y-102934534D01*
X42408683Y-102732824D01*
X42456981Y-102517555D01*
X42462355Y-102296999D01*
X42424596Y-102079633D01*
X42345158Y-101873811D01*
X42319316Y-101825466D01*
X42107416Y-101792189D01*
X41519605Y-102380000D01*
X41160395Y-102380000D01*
X41146253Y-102365858D01*
X41325858Y-102186253D01*
X41340000Y-102200395D01*
X41927811Y-101612584D01*
X41894534Y-101400684D01*
X41780136Y-101350000D01*
X86378999Y-101350000D01*
X86378999Y-103050000D01*
X86394966Y-103212120D01*
X86442255Y-103368010D01*
X86519048Y-103511679D01*
X86622394Y-103637606D01*
X86748321Y-103740952D01*
X86891990Y-103817745D01*
X87047880Y-103865034D01*
X87210000Y-103881001D01*
X88910000Y-103881001D01*
X89072120Y-103865034D01*
X89228010Y-103817745D01*
X89371679Y-103740952D01*
X89497606Y-103637606D01*
X89580976Y-103536020D01*
X89805643Y-103686138D01*
X90110837Y-103812554D01*
X90434830Y-103877000D01*
X90765170Y-103877000D01*
X91089163Y-103812554D01*
X91394357Y-103686138D01*
X91669025Y-103502611D01*
X91902611Y-103269025D01*
X92086138Y-102994357D01*
X92212554Y-102689163D01*
X92277000Y-102365170D01*
X92277000Y-102034830D01*
X92212554Y-101710837D01*
X92086138Y-101405643D01*
X91902611Y-101130975D01*
X91669025Y-100897389D01*
X91394357Y-100713862D01*
X91089163Y-100587446D01*
X90765170Y-100523000D01*
X90434830Y-100523000D01*
X90110837Y-100587446D01*
X89805643Y-100713862D01*
X89580976Y-100863980D01*
X89497606Y-100762394D01*
X89371679Y-100659048D01*
X89228010Y-100582255D01*
X89072120Y-100534966D01*
X88910000Y-100518999D01*
X87210000Y-100518999D01*
X87047880Y-100534966D01*
X86891990Y-100582255D01*
X86748321Y-100659048D01*
X86622394Y-100762394D01*
X86519048Y-100888321D01*
X86442255Y-101031990D01*
X86394966Y-101187880D01*
X86378999Y-101350000D01*
X41780136Y-101350000D01*
X41692824Y-101311317D01*
X41477555Y-101263019D01*
X41256999Y-101257645D01*
X41077677Y-101288795D01*
X41078072Y-101170000D01*
X41065812Y-101045518D01*
X41029502Y-100925820D01*
X40970537Y-100815506D01*
X40891185Y-100718815D01*
X40794494Y-100639463D01*
X40684180Y-100580498D01*
X40564482Y-100544188D01*
X40440000Y-100531928D01*
X38185750Y-100535000D01*
X38027000Y-100693750D01*
X37773000Y-100693750D01*
X37614250Y-100535000D01*
X35877000Y-100532633D01*
X35877000Y-97850000D01*
X66018999Y-97850000D01*
X66018999Y-99550000D01*
X66034966Y-99712120D01*
X66082255Y-99868010D01*
X66159048Y-100011679D01*
X66262394Y-100137606D01*
X66388321Y-100240952D01*
X66531990Y-100317745D01*
X66687880Y-100365034D01*
X66850000Y-100381001D01*
X68550000Y-100381001D01*
X68712120Y-100365034D01*
X68868010Y-100317745D01*
X69011679Y-100240952D01*
X69137606Y-100137606D01*
X69240952Y-100011679D01*
X69317745Y-99868010D01*
X69365034Y-99712120D01*
X69381001Y-99550000D01*
X69381001Y-97850000D01*
X70018999Y-97850000D01*
X70018999Y-99550000D01*
X70034966Y-99712120D01*
X70082255Y-99868010D01*
X70159048Y-100011679D01*
X70262394Y-100137606D01*
X70388321Y-100240952D01*
X70531990Y-100317745D01*
X70687880Y-100365034D01*
X70850000Y-100381001D01*
X72550000Y-100381001D01*
X72712120Y-100365034D01*
X72868010Y-100317745D01*
X73011679Y-100240952D01*
X73137606Y-100137606D01*
X73240952Y-100011679D01*
X73317745Y-99868010D01*
X73365034Y-99712120D01*
X73381001Y-99550000D01*
X73381001Y-97850000D01*
X73365034Y-97687880D01*
X73317745Y-97531990D01*
X73240952Y-97388321D01*
X73137606Y-97262394D01*
X73011679Y-97159048D01*
X72868010Y-97082255D01*
X72712120Y-97034966D01*
X72550000Y-97018999D01*
X70850000Y-97018999D01*
X70687880Y-97034966D01*
X70531990Y-97082255D01*
X70388321Y-97159048D01*
X70262394Y-97262394D01*
X70159048Y-97388321D01*
X70082255Y-97531990D01*
X70034966Y-97687880D01*
X70018999Y-97850000D01*
X69381001Y-97850000D01*
X69365034Y-97687880D01*
X69317745Y-97531990D01*
X69240952Y-97388321D01*
X69137606Y-97262394D01*
X69011679Y-97159048D01*
X68868010Y-97082255D01*
X68712120Y-97034966D01*
X68550000Y-97018999D01*
X66850000Y-97018999D01*
X66687880Y-97034966D01*
X66531990Y-97082255D01*
X66388321Y-97159048D01*
X66262394Y-97262394D01*
X66159048Y-97388321D01*
X66082255Y-97531990D01*
X66034966Y-97687880D01*
X66018999Y-97850000D01*
X35877000Y-97850000D01*
X35877000Y-95467367D01*
X37614250Y-95465000D01*
X37773000Y-95306250D01*
X37773000Y-93747000D01*
X37753000Y-93747000D01*
X37753000Y-93493000D01*
X37773000Y-93493000D01*
X37773000Y-91933750D01*
X38027000Y-91933750D01*
X38027000Y-93493000D01*
X38047000Y-93493000D01*
X38047000Y-93747000D01*
X38027000Y-93747000D01*
X38027000Y-95306250D01*
X38185750Y-95465000D01*
X40440000Y-95468072D01*
X40564482Y-95455812D01*
X40684180Y-95419502D01*
X40794494Y-95360537D01*
X40891185Y-95281185D01*
X40970537Y-95184494D01*
X41029502Y-95074180D01*
X41065812Y-94954482D01*
X41078072Y-94830000D01*
X41077807Y-94750000D01*
X54618999Y-94750000D01*
X54618999Y-96450000D01*
X54634966Y-96612120D01*
X54682255Y-96768010D01*
X54759048Y-96911679D01*
X54862394Y-97037606D01*
X54988321Y-97140952D01*
X55131990Y-97217745D01*
X55287880Y-97265034D01*
X55450000Y-97281001D01*
X57150000Y-97281001D01*
X57312120Y-97265034D01*
X57468010Y-97217745D01*
X57611679Y-97140952D01*
X57737606Y-97037606D01*
X57840952Y-96911679D01*
X57917745Y-96768010D01*
X57965034Y-96612120D01*
X57981001Y-96450000D01*
X57981001Y-95656891D01*
X59618519Y-95656891D01*
X59715843Y-95931252D01*
X59864822Y-96181355D01*
X60059731Y-96397588D01*
X60293080Y-96571641D01*
X60555901Y-96696825D01*
X60703110Y-96741476D01*
X60933000Y-96620155D01*
X60933000Y-95427000D01*
X59739186Y-95427000D01*
X59618519Y-95656891D01*
X57981001Y-95656891D01*
X57981001Y-94750000D01*
X57965034Y-94587880D01*
X57917745Y-94431990D01*
X57840952Y-94288321D01*
X57737606Y-94162394D01*
X57611679Y-94059048D01*
X57468010Y-93982255D01*
X57312120Y-93934966D01*
X57150000Y-93918999D01*
X55450000Y-93918999D01*
X55287880Y-93934966D01*
X55131990Y-93982255D01*
X54988321Y-94059048D01*
X54862394Y-94162394D01*
X54759048Y-94288321D01*
X54682255Y-94431990D01*
X54634966Y-94587880D01*
X54618999Y-94750000D01*
X41077807Y-94750000D01*
X41077670Y-94708986D01*
X41202445Y-94736981D01*
X41423001Y-94742355D01*
X41640367Y-94704596D01*
X41846189Y-94625158D01*
X41894534Y-94599316D01*
X41927811Y-94387416D01*
X41340000Y-93799605D01*
X41325858Y-93813748D01*
X41146253Y-93634143D01*
X41160395Y-93620000D01*
X41519605Y-93620000D01*
X42107416Y-94207811D01*
X42319316Y-94174534D01*
X42408683Y-93972824D01*
X42456981Y-93757555D01*
X42462355Y-93536999D01*
X42424596Y-93319633D01*
X42345158Y-93113811D01*
X42319316Y-93065466D01*
X42107416Y-93032189D01*
X41519605Y-93620000D01*
X41160395Y-93620000D01*
X41146253Y-93605858D01*
X41325858Y-93426253D01*
X41340000Y-93440395D01*
X41927811Y-92852584D01*
X41894534Y-92640684D01*
X41692824Y-92551317D01*
X41477555Y-92503019D01*
X41256999Y-92497645D01*
X41077677Y-92528795D01*
X41078072Y-92410000D01*
X41065812Y-92285518D01*
X41029502Y-92165820D01*
X40970537Y-92055506D01*
X40891185Y-91958815D01*
X40794494Y-91879463D01*
X40684180Y-91820498D01*
X40564482Y-91784188D01*
X40440000Y-91771928D01*
X38185750Y-91775000D01*
X38027000Y-91933750D01*
X37773000Y-91933750D01*
X37614250Y-91775000D01*
X35877000Y-91772633D01*
X35877000Y-90650000D01*
X47318999Y-90650000D01*
X47318999Y-92350000D01*
X47334966Y-92512120D01*
X47382255Y-92668010D01*
X47459048Y-92811679D01*
X47562394Y-92937606D01*
X47688321Y-93040952D01*
X47831990Y-93117745D01*
X47987880Y-93165034D01*
X48150000Y-93181001D01*
X49850000Y-93181001D01*
X50012120Y-93165034D01*
X50168010Y-93117745D01*
X50311679Y-93040952D01*
X50437606Y-92937606D01*
X50540952Y-92811679D01*
X50617745Y-92668010D01*
X50665034Y-92512120D01*
X50681001Y-92350000D01*
X50681001Y-90950000D01*
X56218999Y-90950000D01*
X56218999Y-92650000D01*
X56234966Y-92812120D01*
X56282255Y-92968010D01*
X56359048Y-93111679D01*
X56462394Y-93237606D01*
X56588321Y-93340952D01*
X56731990Y-93417745D01*
X56887880Y-93465034D01*
X57050000Y-93481001D01*
X58750000Y-93481001D01*
X58912120Y-93465034D01*
X59068010Y-93417745D01*
X59211679Y-93340952D01*
X59337606Y-93237606D01*
X59440952Y-93111679D01*
X59517745Y-92968010D01*
X59565034Y-92812120D01*
X59581001Y-92650000D01*
X59581001Y-92214356D01*
X59749999Y-92231001D01*
X60650001Y-92231001D01*
X60844546Y-92211840D01*
X60751285Y-92386318D01*
X60689770Y-92589106D01*
X60668999Y-92799999D01*
X60668999Y-93450001D01*
X60689770Y-93660894D01*
X60751285Y-93863682D01*
X60766373Y-93891910D01*
X60703110Y-93858524D01*
X60555901Y-93903175D01*
X60293080Y-94028359D01*
X60059731Y-94202412D01*
X59864822Y-94418645D01*
X59715843Y-94668748D01*
X59618519Y-94943109D01*
X59739186Y-95173000D01*
X60933000Y-95173000D01*
X60933000Y-95153000D01*
X61187000Y-95153000D01*
X61187000Y-95173000D01*
X61207000Y-95173000D01*
X61207000Y-95427000D01*
X61187000Y-95427000D01*
X61187000Y-96620155D01*
X61416890Y-96741476D01*
X61564099Y-96696825D01*
X61826920Y-96571641D01*
X61979229Y-96458035D01*
X61982255Y-96468010D01*
X62059048Y-96611679D01*
X62162394Y-96737606D01*
X62288321Y-96840952D01*
X62431990Y-96917745D01*
X62587880Y-96965034D01*
X62750000Y-96981001D01*
X64450000Y-96981001D01*
X64612120Y-96965034D01*
X64768010Y-96917745D01*
X64911679Y-96840952D01*
X65037606Y-96737606D01*
X65140952Y-96611679D01*
X65217745Y-96468010D01*
X65265034Y-96312120D01*
X65281001Y-96150000D01*
X65281001Y-94450000D01*
X65265034Y-94287880D01*
X65257020Y-94261460D01*
X65314383Y-94214383D01*
X65448820Y-94050572D01*
X65548715Y-93863682D01*
X65610230Y-93660894D01*
X65631001Y-93450001D01*
X65631001Y-92799999D01*
X65610230Y-92589106D01*
X65548715Y-92386318D01*
X65544885Y-92379151D01*
X72173000Y-92379151D01*
X72173000Y-92620849D01*
X72220153Y-92857903D01*
X72312647Y-93081202D01*
X72446927Y-93282167D01*
X72617833Y-93453073D01*
X72818798Y-93587353D01*
X73042097Y-93679847D01*
X73279151Y-93727000D01*
X73520849Y-93727000D01*
X73757903Y-93679847D01*
X73981202Y-93587353D01*
X74146358Y-93477000D01*
X76153642Y-93477000D01*
X76318798Y-93587353D01*
X76542097Y-93679847D01*
X76779151Y-93727000D01*
X77020849Y-93727000D01*
X77257903Y-93679847D01*
X77481202Y-93587353D01*
X77682167Y-93453073D01*
X77853073Y-93282167D01*
X77987353Y-93081202D01*
X78079847Y-92857903D01*
X78127000Y-92620849D01*
X78127000Y-92379151D01*
X78079847Y-92142097D01*
X77987353Y-91918798D01*
X77853073Y-91717833D01*
X77682167Y-91546927D01*
X77481202Y-91412647D01*
X77257903Y-91320153D01*
X77020849Y-91273000D01*
X76779151Y-91273000D01*
X76542097Y-91320153D01*
X76318798Y-91412647D01*
X76153642Y-91523000D01*
X74146358Y-91523000D01*
X73981202Y-91412647D01*
X73757903Y-91320153D01*
X73520849Y-91273000D01*
X73279151Y-91273000D01*
X73042097Y-91320153D01*
X72818798Y-91412647D01*
X72617833Y-91546927D01*
X72446927Y-91717833D01*
X72312647Y-91918798D01*
X72220153Y-92142097D01*
X72173000Y-92379151D01*
X65544885Y-92379151D01*
X65448820Y-92199428D01*
X65367221Y-92100000D01*
X65448820Y-92000572D01*
X65548715Y-91813682D01*
X65610230Y-91610894D01*
X65631001Y-91400001D01*
X65631001Y-91331001D01*
X66000001Y-91331001D01*
X66210894Y-91310230D01*
X66413682Y-91248715D01*
X66600572Y-91148820D01*
X66764383Y-91014383D01*
X66768987Y-91008773D01*
X66795506Y-91030537D01*
X66905820Y-91089502D01*
X67025518Y-91125812D01*
X67150000Y-91138072D01*
X67439250Y-91135000D01*
X67598000Y-90976250D01*
X67598000Y-89927000D01*
X67852000Y-89927000D01*
X67852000Y-90976250D01*
X68010750Y-91135000D01*
X68300000Y-91138072D01*
X68424482Y-91125812D01*
X68544180Y-91089502D01*
X68654494Y-91030537D01*
X68751185Y-90951185D01*
X68830537Y-90854494D01*
X68889502Y-90744180D01*
X68925812Y-90624482D01*
X68938072Y-90500000D01*
X68935000Y-90085750D01*
X68776250Y-89927000D01*
X67852000Y-89927000D01*
X67598000Y-89927000D01*
X67578000Y-89927000D01*
X67578000Y-89673000D01*
X67598000Y-89673000D01*
X67598000Y-88623750D01*
X67852000Y-88623750D01*
X67852000Y-89673000D01*
X68776250Y-89673000D01*
X68935000Y-89514250D01*
X68938072Y-89100000D01*
X68925812Y-88975518D01*
X68889502Y-88855820D01*
X68830537Y-88745506D01*
X68751185Y-88648815D01*
X68654494Y-88569463D01*
X68544180Y-88510498D01*
X68424482Y-88474188D01*
X68300000Y-88461928D01*
X68010750Y-88465000D01*
X67852000Y-88623750D01*
X67598000Y-88623750D01*
X67439250Y-88465000D01*
X67150000Y-88461928D01*
X67025518Y-88474188D01*
X66905820Y-88510498D01*
X66795506Y-88569463D01*
X66768987Y-88591227D01*
X66764383Y-88585617D01*
X66600572Y-88451180D01*
X66413682Y-88351285D01*
X66210894Y-88289770D01*
X66000001Y-88268999D01*
X65792604Y-88268999D01*
X65810230Y-88210894D01*
X65831001Y-88000001D01*
X65831001Y-87349999D01*
X65810230Y-87139106D01*
X65748715Y-86936318D01*
X65648820Y-86749428D01*
X65514383Y-86585617D01*
X65350572Y-86451180D01*
X65163682Y-86351285D01*
X64960894Y-86289770D01*
X64750001Y-86268999D01*
X63849999Y-86268999D01*
X63639106Y-86289770D01*
X63436318Y-86351285D01*
X63414879Y-86362744D01*
X63588497Y-86246737D01*
X63759403Y-86075831D01*
X63826990Y-85974679D01*
X85543000Y-85974679D01*
X85543000Y-86285321D01*
X85603604Y-86589994D01*
X85722481Y-86876989D01*
X85895064Y-87135279D01*
X86114721Y-87354936D01*
X86373011Y-87527519D01*
X86660006Y-87646396D01*
X86964679Y-87707000D01*
X87275321Y-87707000D01*
X87579994Y-87646396D01*
X87866989Y-87527519D01*
X88125279Y-87354936D01*
X88344936Y-87135279D01*
X88377199Y-87086993D01*
X91222612Y-87086993D01*
X91288137Y-87325860D01*
X91535116Y-87441760D01*
X91799960Y-87507250D01*
X92072492Y-87519812D01*
X92342238Y-87478965D01*
X92598832Y-87386277D01*
X92711863Y-87325860D01*
X92777388Y-87086993D01*
X92000000Y-86309605D01*
X91222612Y-87086993D01*
X88377199Y-87086993D01*
X88517519Y-86876989D01*
X88636396Y-86589994D01*
X88697000Y-86285321D01*
X88697000Y-86202492D01*
X90610188Y-86202492D01*
X90651035Y-86472238D01*
X90743723Y-86728832D01*
X90804140Y-86841863D01*
X91043007Y-86907388D01*
X91820395Y-86130000D01*
X92179605Y-86130000D01*
X92956993Y-86907388D01*
X93195860Y-86841863D01*
X93311760Y-86594884D01*
X93377250Y-86330040D01*
X93389812Y-86057508D01*
X93348965Y-85787762D01*
X93256277Y-85531168D01*
X93195860Y-85418137D01*
X92956993Y-85352612D01*
X92179605Y-86130000D01*
X91820395Y-86130000D01*
X91043007Y-85352612D01*
X90804140Y-85418137D01*
X90688240Y-85665116D01*
X90622750Y-85929960D01*
X90610188Y-86202492D01*
X88697000Y-86202492D01*
X88697000Y-85974679D01*
X88636396Y-85670006D01*
X88517519Y-85383011D01*
X88377200Y-85173007D01*
X91222612Y-85173007D01*
X92000000Y-85950395D01*
X92777388Y-85173007D01*
X92711863Y-84934140D01*
X92464884Y-84818240D01*
X92200040Y-84752750D01*
X91927508Y-84740188D01*
X91657762Y-84781035D01*
X91401168Y-84873723D01*
X91288137Y-84934140D01*
X91222612Y-85173007D01*
X88377200Y-85173007D01*
X88344936Y-85124721D01*
X88125279Y-84905064D01*
X87866989Y-84732481D01*
X87579994Y-84613604D01*
X87275321Y-84553000D01*
X86964679Y-84553000D01*
X86660006Y-84613604D01*
X86373011Y-84732481D01*
X86114721Y-84905064D01*
X85895064Y-85124721D01*
X85722481Y-85383011D01*
X85603604Y-85670006D01*
X85543000Y-85974679D01*
X63826990Y-85974679D01*
X63893683Y-85874866D01*
X63986177Y-85651567D01*
X64033330Y-85414513D01*
X64033330Y-85172815D01*
X63986177Y-84935761D01*
X63893683Y-84712462D01*
X63759403Y-84511497D01*
X63588497Y-84340591D01*
X63387532Y-84206311D01*
X63164233Y-84113817D01*
X62927179Y-84066664D01*
X62685481Y-84066664D01*
X62448427Y-84113817D01*
X62225128Y-84206311D01*
X62024163Y-84340591D01*
X61853257Y-84511497D01*
X61718977Y-84712462D01*
X61626483Y-84935761D01*
X61582503Y-85156862D01*
X61493003Y-85324304D01*
X61437137Y-85508469D01*
X61418273Y-85699994D01*
X61423001Y-85747997D01*
X61423001Y-86411855D01*
X61349428Y-86451180D01*
X61185617Y-86585617D01*
X61051180Y-86749428D01*
X60951285Y-86936318D01*
X60889770Y-87139106D01*
X60868999Y-87349999D01*
X60868999Y-87562158D01*
X60485750Y-87565000D01*
X60327000Y-87723750D01*
X60327000Y-88648000D01*
X60347000Y-88648000D01*
X60347000Y-88902000D01*
X60327000Y-88902000D01*
X60327000Y-88922000D01*
X60073000Y-88922000D01*
X60073000Y-88902000D01*
X59023750Y-88902000D01*
X58865000Y-89060750D01*
X58861928Y-89350000D01*
X58874188Y-89474482D01*
X58910498Y-89594180D01*
X58969463Y-89704494D01*
X58991227Y-89731013D01*
X58985617Y-89735617D01*
X58851180Y-89899428D01*
X58751285Y-90086318D01*
X58741371Y-90118999D01*
X57050000Y-90118999D01*
X56887880Y-90134966D01*
X56731990Y-90182255D01*
X56588321Y-90259048D01*
X56462394Y-90362394D01*
X56359048Y-90488321D01*
X56282255Y-90631990D01*
X56234966Y-90787880D01*
X56218999Y-90950000D01*
X50681001Y-90950000D01*
X50681001Y-90650000D01*
X50665034Y-90487880D01*
X50617745Y-90331990D01*
X50540952Y-90188321D01*
X50437606Y-90062394D01*
X50311679Y-89959048D01*
X50168010Y-89882255D01*
X50012120Y-89834966D01*
X49850000Y-89818999D01*
X48150000Y-89818999D01*
X47987880Y-89834966D01*
X47831990Y-89882255D01*
X47688321Y-89959048D01*
X47562394Y-90062394D01*
X47459048Y-90188321D01*
X47382255Y-90331990D01*
X47334966Y-90487880D01*
X47318999Y-90650000D01*
X35877000Y-90650000D01*
X35877000Y-89763089D01*
X37410250Y-89761000D01*
X37569000Y-89602250D01*
X37569000Y-88043000D01*
X37549000Y-88043000D01*
X37549000Y-87789000D01*
X37569000Y-87789000D01*
X37569000Y-86229750D01*
X37823000Y-86229750D01*
X37823000Y-87789000D01*
X37843000Y-87789000D01*
X37843000Y-88043000D01*
X37823000Y-88043000D01*
X37823000Y-89602250D01*
X37981750Y-89761000D01*
X40236000Y-89764072D01*
X40360482Y-89751812D01*
X40480180Y-89715502D01*
X40590494Y-89656537D01*
X40687185Y-89577185D01*
X40766537Y-89480494D01*
X40825502Y-89370180D01*
X40861812Y-89250482D01*
X40874072Y-89126000D01*
X40873670Y-89004986D01*
X40998445Y-89032981D01*
X41219001Y-89038355D01*
X41436367Y-89000596D01*
X41642189Y-88921158D01*
X41690534Y-88895316D01*
X41723811Y-88683416D01*
X41136000Y-88095605D01*
X41121858Y-88109748D01*
X40942253Y-87930143D01*
X40956395Y-87916000D01*
X41315605Y-87916000D01*
X41903416Y-88503811D01*
X42115316Y-88470534D01*
X42204683Y-88268824D01*
X42220124Y-88200000D01*
X58861928Y-88200000D01*
X58865000Y-88489250D01*
X59023750Y-88648000D01*
X60073000Y-88648000D01*
X60073000Y-87723750D01*
X59914250Y-87565000D01*
X59500000Y-87561928D01*
X59375518Y-87574188D01*
X59255820Y-87610498D01*
X59145506Y-87669463D01*
X59048815Y-87748815D01*
X58969463Y-87845506D01*
X58910498Y-87955820D01*
X58874188Y-88075518D01*
X58861928Y-88200000D01*
X42220124Y-88200000D01*
X42252981Y-88053555D01*
X42258355Y-87832999D01*
X42220596Y-87615633D01*
X42141158Y-87409811D01*
X42115316Y-87361466D01*
X41903416Y-87328189D01*
X41315605Y-87916000D01*
X40956395Y-87916000D01*
X40942253Y-87901858D01*
X41121858Y-87722253D01*
X41136000Y-87736395D01*
X41723811Y-87148584D01*
X41690534Y-86936684D01*
X41488824Y-86847317D01*
X41273555Y-86799019D01*
X41052999Y-86793645D01*
X40873677Y-86824795D01*
X40874072Y-86706000D01*
X40861812Y-86581518D01*
X40825502Y-86461820D01*
X40766537Y-86351506D01*
X40687185Y-86254815D01*
X40590494Y-86175463D01*
X40480180Y-86116498D01*
X40360482Y-86080188D01*
X40236000Y-86067928D01*
X37981750Y-86071000D01*
X37823000Y-86229750D01*
X37569000Y-86229750D01*
X37410250Y-86071000D01*
X35877000Y-86068911D01*
X35877000Y-81003089D01*
X37410250Y-81001000D01*
X37569000Y-80842250D01*
X37569000Y-79283000D01*
X37549000Y-79283000D01*
X37549000Y-79029000D01*
X37569000Y-79029000D01*
X37569000Y-77469750D01*
X37823000Y-77469750D01*
X37823000Y-79029000D01*
X37843000Y-79029000D01*
X37843000Y-79283000D01*
X37823000Y-79283000D01*
X37823000Y-80842250D01*
X37981750Y-81001000D01*
X40236000Y-81004072D01*
X40360482Y-80991812D01*
X40480180Y-80955502D01*
X40590494Y-80896537D01*
X40687185Y-80817185D01*
X40766537Y-80720494D01*
X40825502Y-80610180D01*
X40861812Y-80490482D01*
X40874072Y-80366000D01*
X40873670Y-80244986D01*
X40998445Y-80272981D01*
X41219001Y-80278355D01*
X41436367Y-80240596D01*
X41642189Y-80161158D01*
X41690534Y-80135316D01*
X41723811Y-79923416D01*
X41136000Y-79335605D01*
X41121858Y-79349748D01*
X40942253Y-79170143D01*
X40956395Y-79156000D01*
X41315605Y-79156000D01*
X41903416Y-79743811D01*
X42115316Y-79710534D01*
X42204683Y-79508824D01*
X42252981Y-79293555D01*
X42258355Y-79072999D01*
X42220596Y-78855633D01*
X42184057Y-78760961D01*
X45573000Y-78760961D01*
X45573000Y-79239039D01*
X45666268Y-79707930D01*
X45849221Y-80149615D01*
X46114826Y-80547122D01*
X46452878Y-80885174D01*
X46850385Y-81150779D01*
X47292070Y-81333732D01*
X47760961Y-81427000D01*
X48239039Y-81427000D01*
X48707930Y-81333732D01*
X49149615Y-81150779D01*
X49547122Y-80885174D01*
X49885174Y-80547122D01*
X50150779Y-80149615D01*
X50233462Y-79950000D01*
X55218999Y-79950000D01*
X55218999Y-81650000D01*
X55234966Y-81812120D01*
X55282255Y-81968010D01*
X55359048Y-82111679D01*
X55462394Y-82237606D01*
X55588321Y-82340952D01*
X55731990Y-82417745D01*
X55887880Y-82465034D01*
X56050000Y-82481001D01*
X57750000Y-82481001D01*
X57912120Y-82465034D01*
X58068010Y-82417745D01*
X58211679Y-82340952D01*
X58337606Y-82237606D01*
X58440952Y-82111679D01*
X58517745Y-81968010D01*
X58565034Y-81812120D01*
X58581001Y-81650000D01*
X58581001Y-79950000D01*
X58565034Y-79787880D01*
X58553544Y-79750000D01*
X59718999Y-79750000D01*
X59718999Y-81450000D01*
X59734966Y-81612120D01*
X59782255Y-81768010D01*
X59859048Y-81911679D01*
X59962394Y-82037606D01*
X60088321Y-82140952D01*
X60231990Y-82217745D01*
X60387880Y-82265034D01*
X60550000Y-82281001D01*
X62250000Y-82281001D01*
X62412120Y-82265034D01*
X62568010Y-82217745D01*
X62711679Y-82140952D01*
X62837606Y-82037606D01*
X62940952Y-81911679D01*
X63017745Y-81768010D01*
X63065034Y-81612120D01*
X63081001Y-81450000D01*
X63081001Y-80950000D01*
X65318999Y-80950000D01*
X65318999Y-82650000D01*
X65334966Y-82812120D01*
X65382255Y-82968010D01*
X65459048Y-83111679D01*
X65562394Y-83237606D01*
X65688321Y-83340952D01*
X65831990Y-83417745D01*
X65987880Y-83465034D01*
X66150000Y-83481001D01*
X67850000Y-83481001D01*
X68012120Y-83465034D01*
X68168010Y-83417745D01*
X68311679Y-83340952D01*
X68437606Y-83237606D01*
X68540952Y-83111679D01*
X68617745Y-82968010D01*
X68620771Y-82958035D01*
X68773080Y-83071641D01*
X69035901Y-83196825D01*
X69183110Y-83241476D01*
X69413000Y-83120155D01*
X69413000Y-81927000D01*
X69667000Y-81927000D01*
X69667000Y-83120155D01*
X69896890Y-83241476D01*
X70044099Y-83196825D01*
X70306920Y-83071641D01*
X70540269Y-82897588D01*
X70735178Y-82681355D01*
X70884157Y-82431252D01*
X70981481Y-82156891D01*
X70860814Y-81927000D01*
X69667000Y-81927000D01*
X69413000Y-81927000D01*
X69393000Y-81927000D01*
X69393000Y-81673000D01*
X69413000Y-81673000D01*
X69413000Y-80479845D01*
X69667000Y-80479845D01*
X69667000Y-81673000D01*
X70860814Y-81673000D01*
X70981481Y-81443109D01*
X70884157Y-81168748D01*
X70735178Y-80918645D01*
X70540269Y-80702412D01*
X70389561Y-80590000D01*
X73218999Y-80590000D01*
X73218999Y-82290000D01*
X73234966Y-82452120D01*
X73282255Y-82608010D01*
X73359048Y-82751679D01*
X73462394Y-82877606D01*
X73588321Y-82980952D01*
X73731990Y-83057745D01*
X73887880Y-83105034D01*
X74050000Y-83121001D01*
X75750000Y-83121001D01*
X75912120Y-83105034D01*
X76068010Y-83057745D01*
X76211679Y-82980952D01*
X76337606Y-82877606D01*
X76440952Y-82751679D01*
X76517745Y-82608010D01*
X76565034Y-82452120D01*
X76581001Y-82290000D01*
X76581001Y-80590000D01*
X76565034Y-80427880D01*
X76517745Y-80271990D01*
X76440952Y-80128321D01*
X76337606Y-80002394D01*
X76211679Y-79899048D01*
X76068010Y-79822255D01*
X76058035Y-79819229D01*
X76171641Y-79666920D01*
X76296825Y-79404099D01*
X76341476Y-79256890D01*
X76220155Y-79027000D01*
X75027000Y-79027000D01*
X75027000Y-79047000D01*
X74773000Y-79047000D01*
X74773000Y-79027000D01*
X73579845Y-79027000D01*
X73458524Y-79256890D01*
X73503175Y-79404099D01*
X73628359Y-79666920D01*
X73741965Y-79819229D01*
X73731990Y-79822255D01*
X73588321Y-79899048D01*
X73462394Y-80002394D01*
X73359048Y-80128321D01*
X73282255Y-80271990D01*
X73234966Y-80427880D01*
X73218999Y-80590000D01*
X70389561Y-80590000D01*
X70306920Y-80528359D01*
X70044099Y-80403175D01*
X69896890Y-80358524D01*
X69667000Y-80479845D01*
X69413000Y-80479845D01*
X69183110Y-80358524D01*
X69035901Y-80403175D01*
X68773080Y-80528359D01*
X68620771Y-80641965D01*
X68617745Y-80631990D01*
X68540952Y-80488321D01*
X68437606Y-80362394D01*
X68311679Y-80259048D01*
X68168010Y-80182255D01*
X68012120Y-80134966D01*
X67850000Y-80118999D01*
X66150000Y-80118999D01*
X65987880Y-80134966D01*
X65831990Y-80182255D01*
X65688321Y-80259048D01*
X65562394Y-80362394D01*
X65459048Y-80488321D01*
X65382255Y-80631990D01*
X65334966Y-80787880D01*
X65318999Y-80950000D01*
X63081001Y-80950000D01*
X63081001Y-79750000D01*
X63065034Y-79587880D01*
X63017745Y-79431990D01*
X62940952Y-79288321D01*
X62837606Y-79162394D01*
X62711679Y-79059048D01*
X62568010Y-78982255D01*
X62412120Y-78934966D01*
X62250000Y-78918999D01*
X60550000Y-78918999D01*
X60387880Y-78934966D01*
X60231990Y-78982255D01*
X60088321Y-79059048D01*
X59962394Y-79162394D01*
X59859048Y-79288321D01*
X59782255Y-79431990D01*
X59734966Y-79587880D01*
X59718999Y-79750000D01*
X58553544Y-79750000D01*
X58517745Y-79631990D01*
X58440952Y-79488321D01*
X58337606Y-79362394D01*
X58211679Y-79259048D01*
X58068010Y-79182255D01*
X57912120Y-79134966D01*
X57750000Y-79118999D01*
X56050000Y-79118999D01*
X55887880Y-79134966D01*
X55731990Y-79182255D01*
X55588321Y-79259048D01*
X55462394Y-79362394D01*
X55359048Y-79488321D01*
X55282255Y-79631990D01*
X55234966Y-79787880D01*
X55218999Y-79950000D01*
X50233462Y-79950000D01*
X50333732Y-79707930D01*
X50427000Y-79239039D01*
X50427000Y-78760961D01*
X50383667Y-78543110D01*
X73458524Y-78543110D01*
X73579845Y-78773000D01*
X74773000Y-78773000D01*
X74773000Y-77579186D01*
X75027000Y-77579186D01*
X75027000Y-78773000D01*
X76220155Y-78773000D01*
X76226508Y-78760961D01*
X90573000Y-78760961D01*
X90573000Y-79239039D01*
X90666268Y-79707930D01*
X90849221Y-80149615D01*
X91114826Y-80547122D01*
X91452878Y-80885174D01*
X91850385Y-81150779D01*
X92292070Y-81333732D01*
X92760961Y-81427000D01*
X93239039Y-81427000D01*
X93707930Y-81333732D01*
X94149615Y-81150779D01*
X94547122Y-80885174D01*
X94885174Y-80547122D01*
X95150779Y-80149615D01*
X95333732Y-79707930D01*
X95427000Y-79239039D01*
X95427000Y-78760961D01*
X95333732Y-78292070D01*
X95150779Y-77850385D01*
X94885174Y-77452878D01*
X94547122Y-77114826D01*
X94149615Y-76849221D01*
X93707930Y-76666268D01*
X93239039Y-76573000D01*
X92760961Y-76573000D01*
X92292070Y-76666268D01*
X91850385Y-76849221D01*
X91452878Y-77114826D01*
X91114826Y-77452878D01*
X90849221Y-77850385D01*
X90666268Y-78292070D01*
X90573000Y-78760961D01*
X76226508Y-78760961D01*
X76341476Y-78543110D01*
X76296825Y-78395901D01*
X76171641Y-78133080D01*
X75997588Y-77899731D01*
X75781355Y-77704822D01*
X75531252Y-77555843D01*
X75256891Y-77458519D01*
X75027000Y-77579186D01*
X74773000Y-77579186D01*
X74543109Y-77458519D01*
X74268748Y-77555843D01*
X74018645Y-77704822D01*
X73802412Y-77899731D01*
X73628359Y-78133080D01*
X73503175Y-78395901D01*
X73458524Y-78543110D01*
X50383667Y-78543110D01*
X50333732Y-78292070D01*
X50150779Y-77850385D01*
X49885174Y-77452878D01*
X49547122Y-77114826D01*
X49149615Y-76849221D01*
X48707930Y-76666268D01*
X48239039Y-76573000D01*
X47760961Y-76573000D01*
X47292070Y-76666268D01*
X46850385Y-76849221D01*
X46452878Y-77114826D01*
X46114826Y-77452878D01*
X45849221Y-77850385D01*
X45666268Y-78292070D01*
X45573000Y-78760961D01*
X42184057Y-78760961D01*
X42141158Y-78649811D01*
X42115316Y-78601466D01*
X41903416Y-78568189D01*
X41315605Y-79156000D01*
X40956395Y-79156000D01*
X40942253Y-79141858D01*
X41121858Y-78962253D01*
X41136000Y-78976395D01*
X41723811Y-78388584D01*
X41690534Y-78176684D01*
X41488824Y-78087317D01*
X41273555Y-78039019D01*
X41052999Y-78033645D01*
X40873677Y-78064795D01*
X40874072Y-77946000D01*
X40861812Y-77821518D01*
X40825502Y-77701820D01*
X40766537Y-77591506D01*
X40687185Y-77494815D01*
X40590494Y-77415463D01*
X40480180Y-77356498D01*
X40360482Y-77320188D01*
X40236000Y-77307928D01*
X37981750Y-77311000D01*
X37823000Y-77469750D01*
X37569000Y-77469750D01*
X37410250Y-77311000D01*
X35877000Y-77308911D01*
X35877000Y-75377000D01*
X97123000Y-75377000D01*
X97123001Y-129623000D01*
M02*
