G04 #@! TF.GenerationSoftware,KiCad,Pcbnew,5.1.6-c6e7f7d~86~ubuntu19.10.1*
G04 #@! TF.CreationDate,2021-01-18T20:18:48+01:00*
G04 #@! TF.ProjectId,receiver_test,72656365-6976-4657-925f-746573742e6b,rev?*
G04 #@! TF.SameCoordinates,Original*
G04 #@! TF.FileFunction,Copper,L1,Top*
G04 #@! TF.FilePolarity,Positive*
%FSLAX46Y46*%
G04 Gerber Fmt 4.6, Leading zero omitted, Abs format (unit mm)*
G04 Created by KiCad (PCBNEW 5.1.6-c6e7f7d~86~ubuntu19.10.1) date 2021-01-18 20:18:48*
%MOMM*%
%LPD*%
G01*
G04 APERTURE LIST*
G04 #@! TA.AperFunction,ComponentPad*
%ADD10O,1.700000X1.700000*%
G04 #@! TD*
G04 #@! TA.AperFunction,ComponentPad*
%ADD11R,1.700000X1.700000*%
G04 #@! TD*
G04 #@! TA.AperFunction,ViaPad*
%ADD12C,0.970000*%
G04 #@! TD*
G04 #@! TA.AperFunction,SMDPad,CuDef*
%ADD13R,5.080000X2.420000*%
G04 #@! TD*
G04 #@! TA.AperFunction,SMDPad,CuDef*
%ADD14R,5.080000X2.290000*%
G04 #@! TD*
G04 #@! TA.AperFunction,ComponentPad*
%ADD15C,1.500000*%
G04 #@! TD*
G04 #@! TA.AperFunction,Conductor*
%ADD16R,5.334000X4.191000*%
G04 #@! TD*
G04 #@! TA.AperFunction,SMDPad,CuDef*
%ADD17R,2.540000X1.651000*%
G04 #@! TD*
G04 #@! TA.AperFunction,ViaPad*
%ADD18C,1.016000*%
G04 #@! TD*
G04 #@! TA.AperFunction,Conductor*
%ADD19R,5.334000X1.651000*%
G04 #@! TD*
G04 #@! TA.AperFunction,Conductor*
%ADD20R,1.270000X6.731000*%
G04 #@! TD*
G04 #@! TA.AperFunction,SMDPad,CuDef*
%ADD21R,0.650000X0.400000*%
G04 #@! TD*
G04 #@! TA.AperFunction,SMDPad,CuDef*
%ADD22R,0.900000X0.800000*%
G04 #@! TD*
G04 #@! TA.AperFunction,ViaPad*
%ADD23C,0.800000*%
G04 #@! TD*
G04 #@! TA.AperFunction,Conductor*
%ADD24C,0.457200*%
G04 #@! TD*
G04 #@! TA.AperFunction,Conductor*
%ADD25C,0.300000*%
G04 #@! TD*
G04 #@! TA.AperFunction,Conductor*
%ADD26C,0.635000*%
G04 #@! TD*
G04 #@! TA.AperFunction,Conductor*
%ADD27C,0.508000*%
G04 #@! TD*
G04 #@! TA.AperFunction,Conductor*
%ADD28C,0.250000*%
G04 #@! TD*
G04 APERTURE END LIST*
D10*
X83120000Y-125000000D03*
D11*
X83120000Y-122460000D03*
D10*
X59580000Y-123300000D03*
D11*
X59580000Y-120760000D03*
G04 #@! TA.AperFunction,SMDPad,CuDef*
G36*
G01*
X68050000Y-86149999D02*
X68050000Y-87050001D01*
G75*
G02*
X67800001Y-87300000I-249999J0D01*
G01*
X67149999Y-87300000D01*
G75*
G02*
X66900000Y-87050001I0J249999D01*
G01*
X66900000Y-86149999D01*
G75*
G02*
X67149999Y-85900000I249999J0D01*
G01*
X67800001Y-85900000D01*
G75*
G02*
X68050000Y-86149999I0J-249999D01*
G01*
G37*
G04 #@! TD.AperFunction*
G04 #@! TA.AperFunction,SMDPad,CuDef*
G36*
G01*
X70100000Y-86149999D02*
X70100000Y-87050001D01*
G75*
G02*
X69850001Y-87300000I-249999J0D01*
G01*
X69199999Y-87300000D01*
G75*
G02*
X68950000Y-87050001I0J249999D01*
G01*
X68950000Y-86149999D01*
G75*
G02*
X69199999Y-85900000I249999J0D01*
G01*
X69850001Y-85900000D01*
G75*
G02*
X70100000Y-86149999I0J-249999D01*
G01*
G37*
G04 #@! TD.AperFunction*
G04 #@! TA.AperFunction,SMDPad,CuDef*
G36*
G01*
X68050001Y-88950000D02*
X67149999Y-88950000D01*
G75*
G02*
X66900000Y-88700001I0J249999D01*
G01*
X66900000Y-88049999D01*
G75*
G02*
X67149999Y-87800000I249999J0D01*
G01*
X68050001Y-87800000D01*
G75*
G02*
X68300000Y-88049999I0J-249999D01*
G01*
X68300000Y-88700001D01*
G75*
G02*
X68050001Y-88950000I-249999J0D01*
G01*
G37*
G04 #@! TD.AperFunction*
G04 #@! TA.AperFunction,SMDPad,CuDef*
G36*
G01*
X68050001Y-91000000D02*
X67149999Y-91000000D01*
G75*
G02*
X66900000Y-90750001I0J249999D01*
G01*
X66900000Y-90099999D01*
G75*
G02*
X67149999Y-89850000I249999J0D01*
G01*
X68050001Y-89850000D01*
G75*
G02*
X68300000Y-90099999I0J-249999D01*
G01*
X68300000Y-90750001D01*
G75*
G02*
X68050001Y-91000000I-249999J0D01*
G01*
G37*
G04 #@! TD.AperFunction*
G04 #@! TA.AperFunction,SMDPad,CuDef*
G36*
G01*
X65250000Y-84149999D02*
X65250000Y-85050001D01*
G75*
G02*
X65000001Y-85300000I-249999J0D01*
G01*
X64349999Y-85300000D01*
G75*
G02*
X64100000Y-85050001I0J249999D01*
G01*
X64100000Y-84149999D01*
G75*
G02*
X64349999Y-83900000I249999J0D01*
G01*
X65000001Y-83900000D01*
G75*
G02*
X65250000Y-84149999I0J-249999D01*
G01*
G37*
G04 #@! TD.AperFunction*
G04 #@! TA.AperFunction,SMDPad,CuDef*
G36*
G01*
X67300000Y-84149999D02*
X67300000Y-85050001D01*
G75*
G02*
X67050001Y-85300000I-249999J0D01*
G01*
X66399999Y-85300000D01*
G75*
G02*
X66150000Y-85050001I0J249999D01*
G01*
X66150000Y-84149999D01*
G75*
G02*
X66399999Y-83900000I249999J0D01*
G01*
X67050001Y-83900000D01*
G75*
G02*
X67300000Y-84149999I0J-249999D01*
G01*
G37*
G04 #@! TD.AperFunction*
G04 #@! TA.AperFunction,SMDPad,CuDef*
G36*
G01*
X52200000Y-110910001D02*
X52200000Y-110009999D01*
G75*
G02*
X52449999Y-109760000I249999J0D01*
G01*
X53100001Y-109760000D01*
G75*
G02*
X53350000Y-110009999I0J-249999D01*
G01*
X53350000Y-110910001D01*
G75*
G02*
X53100001Y-111160000I-249999J0D01*
G01*
X52449999Y-111160000D01*
G75*
G02*
X52200000Y-110910001I0J249999D01*
G01*
G37*
G04 #@! TD.AperFunction*
G04 #@! TA.AperFunction,SMDPad,CuDef*
G36*
G01*
X50150000Y-110910001D02*
X50150000Y-110009999D01*
G75*
G02*
X50399999Y-109760000I249999J0D01*
G01*
X51050001Y-109760000D01*
G75*
G02*
X51300000Y-110009999I0J-249999D01*
G01*
X51300000Y-110910001D01*
G75*
G02*
X51050001Y-111160000I-249999J0D01*
G01*
X50399999Y-111160000D01*
G75*
G02*
X50150000Y-110910001I0J249999D01*
G01*
G37*
G04 #@! TD.AperFunction*
G04 #@! TA.AperFunction,SMDPad,CuDef*
G36*
G01*
X78070000Y-124549999D02*
X78070000Y-125450001D01*
G75*
G02*
X77820001Y-125700000I-249999J0D01*
G01*
X77169999Y-125700000D01*
G75*
G02*
X76920000Y-125450001I0J249999D01*
G01*
X76920000Y-124549999D01*
G75*
G02*
X77169999Y-124300000I249999J0D01*
G01*
X77820001Y-124300000D01*
G75*
G02*
X78070000Y-124549999I0J-249999D01*
G01*
G37*
G04 #@! TD.AperFunction*
G04 #@! TA.AperFunction,SMDPad,CuDef*
G36*
G01*
X80120000Y-124549999D02*
X80120000Y-125450001D01*
G75*
G02*
X79870001Y-125700000I-249999J0D01*
G01*
X79219999Y-125700000D01*
G75*
G02*
X78970000Y-125450001I0J249999D01*
G01*
X78970000Y-124549999D01*
G75*
G02*
X79219999Y-124300000I249999J0D01*
G01*
X79870001Y-124300000D01*
G75*
G02*
X80120000Y-124549999I0J-249999D01*
G01*
G37*
G04 #@! TD.AperFunction*
G04 #@! TA.AperFunction,SMDPad,CuDef*
G36*
G01*
X44319999Y-119680000D02*
X45220001Y-119680000D01*
G75*
G02*
X45470000Y-119929999I0J-249999D01*
G01*
X45470000Y-120580001D01*
G75*
G02*
X45220001Y-120830000I-249999J0D01*
G01*
X44319999Y-120830000D01*
G75*
G02*
X44070000Y-120580001I0J249999D01*
G01*
X44070000Y-119929999D01*
G75*
G02*
X44319999Y-119680000I249999J0D01*
G01*
G37*
G04 #@! TD.AperFunction*
G04 #@! TA.AperFunction,SMDPad,CuDef*
G36*
G01*
X44319999Y-117630000D02*
X45220001Y-117630000D01*
G75*
G02*
X45470000Y-117879999I0J-249999D01*
G01*
X45470000Y-118530001D01*
G75*
G02*
X45220001Y-118780000I-249999J0D01*
G01*
X44319999Y-118780000D01*
G75*
G02*
X44070000Y-118530001I0J249999D01*
G01*
X44070000Y-117879999D01*
G75*
G02*
X44319999Y-117630000I249999J0D01*
G01*
G37*
G04 #@! TD.AperFunction*
G04 #@! TA.AperFunction,SMDPad,CuDef*
G36*
G01*
X56890001Y-126540000D02*
X55989999Y-126540000D01*
G75*
G02*
X55740000Y-126290001I0J249999D01*
G01*
X55740000Y-125639999D01*
G75*
G02*
X55989999Y-125390000I249999J0D01*
G01*
X56890001Y-125390000D01*
G75*
G02*
X57140000Y-125639999I0J-249999D01*
G01*
X57140000Y-126290001D01*
G75*
G02*
X56890001Y-126540000I-249999J0D01*
G01*
G37*
G04 #@! TD.AperFunction*
G04 #@! TA.AperFunction,SMDPad,CuDef*
G36*
G01*
X56890001Y-128590000D02*
X55989999Y-128590000D01*
G75*
G02*
X55740000Y-128340001I0J249999D01*
G01*
X55740000Y-127689999D01*
G75*
G02*
X55989999Y-127440000I249999J0D01*
G01*
X56890001Y-127440000D01*
G75*
G02*
X57140000Y-127689999I0J-249999D01*
G01*
X57140000Y-128340001D01*
G75*
G02*
X56890001Y-128590000I-249999J0D01*
G01*
G37*
G04 #@! TD.AperFunction*
G04 #@! TA.AperFunction,SMDPad,CuDef*
G36*
G01*
X43150001Y-118780000D02*
X42249999Y-118780000D01*
G75*
G02*
X42000000Y-118530001I0J249999D01*
G01*
X42000000Y-117879999D01*
G75*
G02*
X42249999Y-117630000I249999J0D01*
G01*
X43150001Y-117630000D01*
G75*
G02*
X43400000Y-117879999I0J-249999D01*
G01*
X43400000Y-118530001D01*
G75*
G02*
X43150001Y-118780000I-249999J0D01*
G01*
G37*
G04 #@! TD.AperFunction*
G04 #@! TA.AperFunction,SMDPad,CuDef*
G36*
G01*
X43150001Y-120830000D02*
X42249999Y-120830000D01*
G75*
G02*
X42000000Y-120580001I0J249999D01*
G01*
X42000000Y-119929999D01*
G75*
G02*
X42249999Y-119680000I249999J0D01*
G01*
X43150001Y-119680000D01*
G75*
G02*
X43400000Y-119929999I0J-249999D01*
G01*
X43400000Y-120580001D01*
G75*
G02*
X43150001Y-120830000I-249999J0D01*
G01*
G37*
G04 #@! TD.AperFunction*
G04 #@! TA.AperFunction,SMDPad,CuDef*
G36*
G01*
X87809999Y-124100000D02*
X88710001Y-124100000D01*
G75*
G02*
X88960000Y-124349999I0J-249999D01*
G01*
X88960000Y-125000001D01*
G75*
G02*
X88710001Y-125250000I-249999J0D01*
G01*
X87809999Y-125250000D01*
G75*
G02*
X87560000Y-125000001I0J249999D01*
G01*
X87560000Y-124349999D01*
G75*
G02*
X87809999Y-124100000I249999J0D01*
G01*
G37*
G04 #@! TD.AperFunction*
G04 #@! TA.AperFunction,SMDPad,CuDef*
G36*
G01*
X87809999Y-122050000D02*
X88710001Y-122050000D01*
G75*
G02*
X88960000Y-122299999I0J-249999D01*
G01*
X88960000Y-122950001D01*
G75*
G02*
X88710001Y-123200000I-249999J0D01*
G01*
X87809999Y-123200000D01*
G75*
G02*
X87560000Y-122950001I0J249999D01*
G01*
X87560000Y-122299999D01*
G75*
G02*
X87809999Y-122050000I249999J0D01*
G01*
G37*
G04 #@! TD.AperFunction*
G04 #@! TA.AperFunction,SMDPad,CuDef*
G36*
G01*
X80080000Y-118859999D02*
X80080000Y-119760001D01*
G75*
G02*
X79830001Y-120010000I-249999J0D01*
G01*
X79179999Y-120010000D01*
G75*
G02*
X78930000Y-119760001I0J249999D01*
G01*
X78930000Y-118859999D01*
G75*
G02*
X79179999Y-118610000I249999J0D01*
G01*
X79830001Y-118610000D01*
G75*
G02*
X80080000Y-118859999I0J-249999D01*
G01*
G37*
G04 #@! TD.AperFunction*
G04 #@! TA.AperFunction,SMDPad,CuDef*
G36*
G01*
X82130000Y-118859999D02*
X82130000Y-119760001D01*
G75*
G02*
X81880001Y-120010000I-249999J0D01*
G01*
X81229999Y-120010000D01*
G75*
G02*
X80980000Y-119760001I0J249999D01*
G01*
X80980000Y-118859999D01*
G75*
G02*
X81229999Y-118610000I249999J0D01*
G01*
X81880001Y-118610000D01*
G75*
G02*
X82130000Y-118859999I0J-249999D01*
G01*
G37*
G04 #@! TD.AperFunction*
G04 #@! TA.AperFunction,SMDPad,CuDef*
G36*
G01*
X64109999Y-122460000D02*
X65010001Y-122460000D01*
G75*
G02*
X65260000Y-122709999I0J-249999D01*
G01*
X65260000Y-123360001D01*
G75*
G02*
X65010001Y-123610000I-249999J0D01*
G01*
X64109999Y-123610000D01*
G75*
G02*
X63860000Y-123360001I0J249999D01*
G01*
X63860000Y-122709999D01*
G75*
G02*
X64109999Y-122460000I249999J0D01*
G01*
G37*
G04 #@! TD.AperFunction*
G04 #@! TA.AperFunction,SMDPad,CuDef*
G36*
G01*
X64109999Y-120410000D02*
X65010001Y-120410000D01*
G75*
G02*
X65260000Y-120659999I0J-249999D01*
G01*
X65260000Y-121310001D01*
G75*
G02*
X65010001Y-121560000I-249999J0D01*
G01*
X64109999Y-121560000D01*
G75*
G02*
X63860000Y-121310001I0J249999D01*
G01*
X63860000Y-120659999D01*
G75*
G02*
X64109999Y-120410000I249999J0D01*
G01*
G37*
G04 #@! TD.AperFunction*
G04 #@! TA.AperFunction,SMDPad,CuDef*
G36*
G01*
X72350000Y-103549999D02*
X72350000Y-104450001D01*
G75*
G02*
X72100001Y-104700000I-249999J0D01*
G01*
X71449999Y-104700000D01*
G75*
G02*
X71200000Y-104450001I0J249999D01*
G01*
X71200000Y-103549999D01*
G75*
G02*
X71449999Y-103300000I249999J0D01*
G01*
X72100001Y-103300000D01*
G75*
G02*
X72350000Y-103549999I0J-249999D01*
G01*
G37*
G04 #@! TD.AperFunction*
G04 #@! TA.AperFunction,SMDPad,CuDef*
G36*
G01*
X74400000Y-103549999D02*
X74400000Y-104450001D01*
G75*
G02*
X74150001Y-104700000I-249999J0D01*
G01*
X73499999Y-104700000D01*
G75*
G02*
X73250000Y-104450001I0J249999D01*
G01*
X73250000Y-103549999D01*
G75*
G02*
X73499999Y-103300000I249999J0D01*
G01*
X74150001Y-103300000D01*
G75*
G02*
X74400000Y-103549999I0J-249999D01*
G01*
G37*
G04 #@! TD.AperFunction*
G04 #@! TA.AperFunction,SMDPad,CuDef*
G36*
G01*
X73950000Y-93949999D02*
X73950000Y-94850001D01*
G75*
G02*
X73700001Y-95100000I-249999J0D01*
G01*
X73049999Y-95100000D01*
G75*
G02*
X72800000Y-94850001I0J249999D01*
G01*
X72800000Y-93949999D01*
G75*
G02*
X73049999Y-93700000I249999J0D01*
G01*
X73700001Y-93700000D01*
G75*
G02*
X73950000Y-93949999I0J-249999D01*
G01*
G37*
G04 #@! TD.AperFunction*
G04 #@! TA.AperFunction,SMDPad,CuDef*
G36*
G01*
X76000000Y-93949999D02*
X76000000Y-94850001D01*
G75*
G02*
X75750001Y-95100000I-249999J0D01*
G01*
X75099999Y-95100000D01*
G75*
G02*
X74850000Y-94850001I0J249999D01*
G01*
X74850000Y-93949999D01*
G75*
G02*
X75099999Y-93700000I249999J0D01*
G01*
X75750001Y-93700000D01*
G75*
G02*
X76000000Y-93949999I0J-249999D01*
G01*
G37*
G04 #@! TD.AperFunction*
G04 #@! TA.AperFunction,SMDPad,CuDef*
G36*
G01*
X74850000Y-92950001D02*
X74850000Y-92049999D01*
G75*
G02*
X75099999Y-91800000I249999J0D01*
G01*
X75750001Y-91800000D01*
G75*
G02*
X76000000Y-92049999I0J-249999D01*
G01*
X76000000Y-92950001D01*
G75*
G02*
X75750001Y-93200000I-249999J0D01*
G01*
X75099999Y-93200000D01*
G75*
G02*
X74850000Y-92950001I0J249999D01*
G01*
G37*
G04 #@! TD.AperFunction*
G04 #@! TA.AperFunction,SMDPad,CuDef*
G36*
G01*
X72800000Y-92950001D02*
X72800000Y-92049999D01*
G75*
G02*
X73049999Y-91800000I249999J0D01*
G01*
X73700001Y-91800000D01*
G75*
G02*
X73950000Y-92049999I0J-249999D01*
G01*
X73950000Y-92950001D01*
G75*
G02*
X73700001Y-93200000I-249999J0D01*
G01*
X73049999Y-93200000D01*
G75*
G02*
X72800000Y-92950001I0J249999D01*
G01*
G37*
G04 #@! TD.AperFunction*
G04 #@! TA.AperFunction,SMDPad,CuDef*
G36*
G01*
X78749999Y-91950000D02*
X79650001Y-91950000D01*
G75*
G02*
X79900000Y-92199999I0J-249999D01*
G01*
X79900000Y-92850001D01*
G75*
G02*
X79650001Y-93100000I-249999J0D01*
G01*
X78749999Y-93100000D01*
G75*
G02*
X78500000Y-92850001I0J249999D01*
G01*
X78500000Y-92199999D01*
G75*
G02*
X78749999Y-91950000I249999J0D01*
G01*
G37*
G04 #@! TD.AperFunction*
G04 #@! TA.AperFunction,SMDPad,CuDef*
G36*
G01*
X78749999Y-89900000D02*
X79650001Y-89900000D01*
G75*
G02*
X79900000Y-90149999I0J-249999D01*
G01*
X79900000Y-90800001D01*
G75*
G02*
X79650001Y-91050000I-249999J0D01*
G01*
X78749999Y-91050000D01*
G75*
G02*
X78500000Y-90800001I0J249999D01*
G01*
X78500000Y-90149999D01*
G75*
G02*
X78749999Y-89900000I249999J0D01*
G01*
G37*
G04 #@! TD.AperFunction*
G04 #@! TA.AperFunction,SMDPad,CuDef*
G36*
G01*
X72750000Y-87050001D02*
X72750000Y-86149999D01*
G75*
G02*
X72999999Y-85900000I249999J0D01*
G01*
X73650001Y-85900000D01*
G75*
G02*
X73900000Y-86149999I0J-249999D01*
G01*
X73900000Y-87050001D01*
G75*
G02*
X73650001Y-87300000I-249999J0D01*
G01*
X72999999Y-87300000D01*
G75*
G02*
X72750000Y-87050001I0J249999D01*
G01*
G37*
G04 #@! TD.AperFunction*
G04 #@! TA.AperFunction,SMDPad,CuDef*
G36*
G01*
X70700000Y-87050001D02*
X70700000Y-86149999D01*
G75*
G02*
X70949999Y-85900000I249999J0D01*
G01*
X71600001Y-85900000D01*
G75*
G02*
X71850000Y-86149999I0J-249999D01*
G01*
X71850000Y-87050001D01*
G75*
G02*
X71600001Y-87300000I-249999J0D01*
G01*
X70949999Y-87300000D01*
G75*
G02*
X70700000Y-87050001I0J249999D01*
G01*
G37*
G04 #@! TD.AperFunction*
G04 #@! TA.AperFunction,SMDPad,CuDef*
G36*
G01*
X69820000Y-84139999D02*
X69820000Y-85040001D01*
G75*
G02*
X69570001Y-85290000I-249999J0D01*
G01*
X68919999Y-85290000D01*
G75*
G02*
X68670000Y-85040001I0J249999D01*
G01*
X68670000Y-84139999D01*
G75*
G02*
X68919999Y-83890000I249999J0D01*
G01*
X69570001Y-83890000D01*
G75*
G02*
X69820000Y-84139999I0J-249999D01*
G01*
G37*
G04 #@! TD.AperFunction*
G04 #@! TA.AperFunction,SMDPad,CuDef*
G36*
G01*
X71870000Y-84139999D02*
X71870000Y-85040001D01*
G75*
G02*
X71620001Y-85290000I-249999J0D01*
G01*
X70969999Y-85290000D01*
G75*
G02*
X70720000Y-85040001I0J249999D01*
G01*
X70720000Y-84139999D01*
G75*
G02*
X70969999Y-83890000I249999J0D01*
G01*
X71620001Y-83890000D01*
G75*
G02*
X71870000Y-84139999I0J-249999D01*
G01*
G37*
G04 #@! TD.AperFunction*
G04 #@! TA.AperFunction,SMDPad,CuDef*
G36*
G01*
X67149999Y-93550000D02*
X68050001Y-93550000D01*
G75*
G02*
X68300000Y-93799999I0J-249999D01*
G01*
X68300000Y-94450001D01*
G75*
G02*
X68050001Y-94700000I-249999J0D01*
G01*
X67149999Y-94700000D01*
G75*
G02*
X66900000Y-94450001I0J249999D01*
G01*
X66900000Y-93799999D01*
G75*
G02*
X67149999Y-93550000I249999J0D01*
G01*
G37*
G04 #@! TD.AperFunction*
G04 #@! TA.AperFunction,SMDPad,CuDef*
G36*
G01*
X67149999Y-91500000D02*
X68050001Y-91500000D01*
G75*
G02*
X68300000Y-91749999I0J-249999D01*
G01*
X68300000Y-92400001D01*
G75*
G02*
X68050001Y-92650000I-249999J0D01*
G01*
X67149999Y-92650000D01*
G75*
G02*
X66900000Y-92400001I0J249999D01*
G01*
X66900000Y-91749999D01*
G75*
G02*
X67149999Y-91500000I249999J0D01*
G01*
G37*
G04 #@! TD.AperFunction*
G04 #@! TA.AperFunction,SMDPad,CuDef*
G36*
G01*
X70510000Y-78259999D02*
X70510000Y-79160001D01*
G75*
G02*
X70260001Y-79410000I-249999J0D01*
G01*
X69609999Y-79410000D01*
G75*
G02*
X69360000Y-79160001I0J249999D01*
G01*
X69360000Y-78259999D01*
G75*
G02*
X69609999Y-78010000I249999J0D01*
G01*
X70260001Y-78010000D01*
G75*
G02*
X70510000Y-78259999I0J-249999D01*
G01*
G37*
G04 #@! TD.AperFunction*
G04 #@! TA.AperFunction,SMDPad,CuDef*
G36*
G01*
X72560000Y-78259999D02*
X72560000Y-79160001D01*
G75*
G02*
X72310001Y-79410000I-249999J0D01*
G01*
X71659999Y-79410000D01*
G75*
G02*
X71410000Y-79160001I0J249999D01*
G01*
X71410000Y-78259999D01*
G75*
G02*
X71659999Y-78010000I249999J0D01*
G01*
X72310001Y-78010000D01*
G75*
G02*
X72560000Y-78259999I0J-249999D01*
G01*
G37*
G04 #@! TD.AperFunction*
G04 #@! TA.AperFunction,SMDPad,CuDef*
G36*
G01*
X72249999Y-123640000D02*
X73150001Y-123640000D01*
G75*
G02*
X73400000Y-123889999I0J-249999D01*
G01*
X73400000Y-124540001D01*
G75*
G02*
X73150001Y-124790000I-249999J0D01*
G01*
X72249999Y-124790000D01*
G75*
G02*
X72000000Y-124540001I0J249999D01*
G01*
X72000000Y-123889999D01*
G75*
G02*
X72249999Y-123640000I249999J0D01*
G01*
G37*
G04 #@! TD.AperFunction*
G04 #@! TA.AperFunction,SMDPad,CuDef*
G36*
G01*
X72249999Y-121590000D02*
X73150001Y-121590000D01*
G75*
G02*
X73400000Y-121839999I0J-249999D01*
G01*
X73400000Y-122490001D01*
G75*
G02*
X73150001Y-122740000I-249999J0D01*
G01*
X72249999Y-122740000D01*
G75*
G02*
X72000000Y-122490001I0J249999D01*
G01*
X72000000Y-121839999D01*
G75*
G02*
X72249999Y-121590000I249999J0D01*
G01*
G37*
G04 #@! TD.AperFunction*
G04 #@! TA.AperFunction,SMDPad,CuDef*
G36*
G01*
X59910000Y-128460001D02*
X59910000Y-127559999D01*
G75*
G02*
X60159999Y-127310000I249999J0D01*
G01*
X60810001Y-127310000D01*
G75*
G02*
X61060000Y-127559999I0J-249999D01*
G01*
X61060000Y-128460001D01*
G75*
G02*
X60810001Y-128710000I-249999J0D01*
G01*
X60159999Y-128710000D01*
G75*
G02*
X59910000Y-128460001I0J249999D01*
G01*
G37*
G04 #@! TD.AperFunction*
G04 #@! TA.AperFunction,SMDPad,CuDef*
G36*
G01*
X57860000Y-128460001D02*
X57860000Y-127559999D01*
G75*
G02*
X58109999Y-127310000I249999J0D01*
G01*
X58760001Y-127310000D01*
G75*
G02*
X59010000Y-127559999I0J-249999D01*
G01*
X59010000Y-128460001D01*
G75*
G02*
X58760001Y-128710000I-249999J0D01*
G01*
X58109999Y-128710000D01*
G75*
G02*
X57860000Y-128460001I0J249999D01*
G01*
G37*
G04 #@! TD.AperFunction*
G04 #@! TA.AperFunction,SMDPad,CuDef*
G36*
G01*
X53909999Y-127440000D02*
X54810001Y-127440000D01*
G75*
G02*
X55060000Y-127689999I0J-249999D01*
G01*
X55060000Y-128340001D01*
G75*
G02*
X54810001Y-128590000I-249999J0D01*
G01*
X53909999Y-128590000D01*
G75*
G02*
X53660000Y-128340001I0J249999D01*
G01*
X53660000Y-127689999D01*
G75*
G02*
X53909999Y-127440000I249999J0D01*
G01*
G37*
G04 #@! TD.AperFunction*
G04 #@! TA.AperFunction,SMDPad,CuDef*
G36*
G01*
X53909999Y-125390000D02*
X54810001Y-125390000D01*
G75*
G02*
X55060000Y-125639999I0J-249999D01*
G01*
X55060000Y-126290001D01*
G75*
G02*
X54810001Y-126540000I-249999J0D01*
G01*
X53909999Y-126540000D01*
G75*
G02*
X53660000Y-126290001I0J249999D01*
G01*
X53660000Y-125639999D01*
G75*
G02*
X53909999Y-125390000I249999J0D01*
G01*
G37*
G04 #@! TD.AperFunction*
G04 #@! TA.AperFunction,SMDPad,CuDef*
G36*
G01*
X51809999Y-127440000D02*
X52710001Y-127440000D01*
G75*
G02*
X52960000Y-127689999I0J-249999D01*
G01*
X52960000Y-128340001D01*
G75*
G02*
X52710001Y-128590000I-249999J0D01*
G01*
X51809999Y-128590000D01*
G75*
G02*
X51560000Y-128340001I0J249999D01*
G01*
X51560000Y-127689999D01*
G75*
G02*
X51809999Y-127440000I249999J0D01*
G01*
G37*
G04 #@! TD.AperFunction*
G04 #@! TA.AperFunction,SMDPad,CuDef*
G36*
G01*
X51809999Y-125390000D02*
X52710001Y-125390000D01*
G75*
G02*
X52960000Y-125639999I0J-249999D01*
G01*
X52960000Y-126290001D01*
G75*
G02*
X52710001Y-126540000I-249999J0D01*
G01*
X51809999Y-126540000D01*
G75*
G02*
X51560000Y-126290001I0J249999D01*
G01*
X51560000Y-125639999D01*
G75*
G02*
X51809999Y-125390000I249999J0D01*
G01*
G37*
G04 #@! TD.AperFunction*
G04 #@! TA.AperFunction,SMDPad,CuDef*
G36*
G01*
X46379999Y-119680000D02*
X47280001Y-119680000D01*
G75*
G02*
X47530000Y-119929999I0J-249999D01*
G01*
X47530000Y-120580001D01*
G75*
G02*
X47280001Y-120830000I-249999J0D01*
G01*
X46379999Y-120830000D01*
G75*
G02*
X46130000Y-120580001I0J249999D01*
G01*
X46130000Y-119929999D01*
G75*
G02*
X46379999Y-119680000I249999J0D01*
G01*
G37*
G04 #@! TD.AperFunction*
G04 #@! TA.AperFunction,SMDPad,CuDef*
G36*
G01*
X46379999Y-117630000D02*
X47280001Y-117630000D01*
G75*
G02*
X47530000Y-117879999I0J-249999D01*
G01*
X47530000Y-118530001D01*
G75*
G02*
X47280001Y-118780000I-249999J0D01*
G01*
X46379999Y-118780000D01*
G75*
G02*
X46130000Y-118530001I0J249999D01*
G01*
X46130000Y-117879999D01*
G75*
G02*
X46379999Y-117630000I249999J0D01*
G01*
G37*
G04 #@! TD.AperFunction*
G04 #@! TA.AperFunction,SMDPad,CuDef*
G36*
G01*
X85699999Y-124100000D02*
X86600001Y-124100000D01*
G75*
G02*
X86850000Y-124349999I0J-249999D01*
G01*
X86850000Y-125000001D01*
G75*
G02*
X86600001Y-125250000I-249999J0D01*
G01*
X85699999Y-125250000D01*
G75*
G02*
X85450000Y-125000001I0J249999D01*
G01*
X85450000Y-124349999D01*
G75*
G02*
X85699999Y-124100000I249999J0D01*
G01*
G37*
G04 #@! TD.AperFunction*
G04 #@! TA.AperFunction,SMDPad,CuDef*
G36*
G01*
X85699999Y-122050000D02*
X86600001Y-122050000D01*
G75*
G02*
X86850000Y-122299999I0J-249999D01*
G01*
X86850000Y-122950001D01*
G75*
G02*
X86600001Y-123200000I-249999J0D01*
G01*
X85699999Y-123200000D01*
G75*
G02*
X85450000Y-122950001I0J249999D01*
G01*
X85450000Y-122299999D01*
G75*
G02*
X85699999Y-122050000I249999J0D01*
G01*
G37*
G04 #@! TD.AperFunction*
G04 #@! TA.AperFunction,SMDPad,CuDef*
G36*
G01*
X62039999Y-122460000D02*
X62940001Y-122460000D01*
G75*
G02*
X63190000Y-122709999I0J-249999D01*
G01*
X63190000Y-123360001D01*
G75*
G02*
X62940001Y-123610000I-249999J0D01*
G01*
X62039999Y-123610000D01*
G75*
G02*
X61790000Y-123360001I0J249999D01*
G01*
X61790000Y-122709999D01*
G75*
G02*
X62039999Y-122460000I249999J0D01*
G01*
G37*
G04 #@! TD.AperFunction*
G04 #@! TA.AperFunction,SMDPad,CuDef*
G36*
G01*
X62039999Y-120410000D02*
X62940001Y-120410000D01*
G75*
G02*
X63190000Y-120659999I0J-249999D01*
G01*
X63190000Y-121310001D01*
G75*
G02*
X62940001Y-121560000I-249999J0D01*
G01*
X62039999Y-121560000D01*
G75*
G02*
X61790000Y-121310001I0J249999D01*
G01*
X61790000Y-120659999D01*
G75*
G02*
X62039999Y-120410000I249999J0D01*
G01*
G37*
G04 #@! TD.AperFunction*
G04 #@! TA.AperFunction,SMDPad,CuDef*
G36*
G01*
X57070001Y-121620000D02*
X56169999Y-121620000D01*
G75*
G02*
X55920000Y-121370001I0J249999D01*
G01*
X55920000Y-120719999D01*
G75*
G02*
X56169999Y-120470000I249999J0D01*
G01*
X57070001Y-120470000D01*
G75*
G02*
X57320000Y-120719999I0J-249999D01*
G01*
X57320000Y-121370001D01*
G75*
G02*
X57070001Y-121620000I-249999J0D01*
G01*
G37*
G04 #@! TD.AperFunction*
G04 #@! TA.AperFunction,SMDPad,CuDef*
G36*
G01*
X57070001Y-123670000D02*
X56169999Y-123670000D01*
G75*
G02*
X55920000Y-123420001I0J249999D01*
G01*
X55920000Y-122769999D01*
G75*
G02*
X56169999Y-122520000I249999J0D01*
G01*
X57070001Y-122520000D01*
G75*
G02*
X57320000Y-122769999I0J-249999D01*
G01*
X57320000Y-123420001D01*
G75*
G02*
X57070001Y-123670000I-249999J0D01*
G01*
G37*
G04 #@! TD.AperFunction*
G04 #@! TA.AperFunction,SMDPad,CuDef*
G36*
G01*
X68422500Y-115949999D02*
X68422500Y-116850001D01*
G75*
G02*
X68172501Y-117100000I-249999J0D01*
G01*
X67522499Y-117100000D01*
G75*
G02*
X67272500Y-116850001I0J249999D01*
G01*
X67272500Y-115949999D01*
G75*
G02*
X67522499Y-115700000I249999J0D01*
G01*
X68172501Y-115700000D01*
G75*
G02*
X68422500Y-115949999I0J-249999D01*
G01*
G37*
G04 #@! TD.AperFunction*
G04 #@! TA.AperFunction,SMDPad,CuDef*
G36*
G01*
X70472500Y-115949999D02*
X70472500Y-116850001D01*
G75*
G02*
X70222501Y-117100000I-249999J0D01*
G01*
X69572499Y-117100000D01*
G75*
G02*
X69322500Y-116850001I0J249999D01*
G01*
X69322500Y-115949999D01*
G75*
G02*
X69572499Y-115700000I249999J0D01*
G01*
X70222501Y-115700000D01*
G75*
G02*
X70472500Y-115949999I0J-249999D01*
G01*
G37*
G04 #@! TD.AperFunction*
G04 #@! TA.AperFunction,SMDPad,CuDef*
G36*
G01*
X68422500Y-113849999D02*
X68422500Y-114750001D01*
G75*
G02*
X68172501Y-115000000I-249999J0D01*
G01*
X67522499Y-115000000D01*
G75*
G02*
X67272500Y-114750001I0J249999D01*
G01*
X67272500Y-113849999D01*
G75*
G02*
X67522499Y-113600000I249999J0D01*
G01*
X68172501Y-113600000D01*
G75*
G02*
X68422500Y-113849999I0J-249999D01*
G01*
G37*
G04 #@! TD.AperFunction*
G04 #@! TA.AperFunction,SMDPad,CuDef*
G36*
G01*
X70472500Y-113849999D02*
X70472500Y-114750001D01*
G75*
G02*
X70222501Y-115000000I-249999J0D01*
G01*
X69572499Y-115000000D01*
G75*
G02*
X69322500Y-114750001I0J249999D01*
G01*
X69322500Y-113849999D01*
G75*
G02*
X69572499Y-113600000I249999J0D01*
G01*
X70222501Y-113600000D01*
G75*
G02*
X70472500Y-113849999I0J-249999D01*
G01*
G37*
G04 #@! TD.AperFunction*
G04 #@! TA.AperFunction,SMDPad,CuDef*
G36*
G01*
X78187500Y-113050001D02*
X78187500Y-112149999D01*
G75*
G02*
X78437499Y-111900000I249999J0D01*
G01*
X79087501Y-111900000D01*
G75*
G02*
X79337500Y-112149999I0J-249999D01*
G01*
X79337500Y-113050001D01*
G75*
G02*
X79087501Y-113300000I-249999J0D01*
G01*
X78437499Y-113300000D01*
G75*
G02*
X78187500Y-113050001I0J249999D01*
G01*
G37*
G04 #@! TD.AperFunction*
G04 #@! TA.AperFunction,SMDPad,CuDef*
G36*
G01*
X76137500Y-113050001D02*
X76137500Y-112149999D01*
G75*
G02*
X76387499Y-111900000I249999J0D01*
G01*
X77037501Y-111900000D01*
G75*
G02*
X77287500Y-112149999I0J-249999D01*
G01*
X77287500Y-113050001D01*
G75*
G02*
X77037501Y-113300000I-249999J0D01*
G01*
X76387499Y-113300000D01*
G75*
G02*
X76137500Y-113050001I0J249999D01*
G01*
G37*
G04 #@! TD.AperFunction*
G04 #@! TA.AperFunction,SMDPad,CuDef*
G36*
G01*
X78149999Y-110087500D02*
X79050001Y-110087500D01*
G75*
G02*
X79300000Y-110337499I0J-249999D01*
G01*
X79300000Y-110987501D01*
G75*
G02*
X79050001Y-111237500I-249999J0D01*
G01*
X78149999Y-111237500D01*
G75*
G02*
X77900000Y-110987501I0J249999D01*
G01*
X77900000Y-110337499D01*
G75*
G02*
X78149999Y-110087500I249999J0D01*
G01*
G37*
G04 #@! TD.AperFunction*
G04 #@! TA.AperFunction,SMDPad,CuDef*
G36*
G01*
X78149999Y-108037500D02*
X79050001Y-108037500D01*
G75*
G02*
X79300000Y-108287499I0J-249999D01*
G01*
X79300000Y-108937501D01*
G75*
G02*
X79050001Y-109187500I-249999J0D01*
G01*
X78149999Y-109187500D01*
G75*
G02*
X77900000Y-108937501I0J249999D01*
G01*
X77900000Y-108287499D01*
G75*
G02*
X78149999Y-108037500I249999J0D01*
G01*
G37*
G04 #@! TD.AperFunction*
G04 #@! TA.AperFunction,SMDPad,CuDef*
G36*
G01*
X81749999Y-110112500D02*
X82650001Y-110112500D01*
G75*
G02*
X82900000Y-110362499I0J-249999D01*
G01*
X82900000Y-111012501D01*
G75*
G02*
X82650001Y-111262500I-249999J0D01*
G01*
X81749999Y-111262500D01*
G75*
G02*
X81500000Y-111012501I0J249999D01*
G01*
X81500000Y-110362499D01*
G75*
G02*
X81749999Y-110112500I249999J0D01*
G01*
G37*
G04 #@! TD.AperFunction*
G04 #@! TA.AperFunction,SMDPad,CuDef*
G36*
G01*
X81749999Y-108062500D02*
X82650001Y-108062500D01*
G75*
G02*
X82900000Y-108312499I0J-249999D01*
G01*
X82900000Y-108962501D01*
G75*
G02*
X82650001Y-109212500I-249999J0D01*
G01*
X81749999Y-109212500D01*
G75*
G02*
X81500000Y-108962501I0J249999D01*
G01*
X81500000Y-108312499D01*
G75*
G02*
X81749999Y-108062500I249999J0D01*
G01*
G37*
G04 #@! TD.AperFunction*
G04 #@! TA.AperFunction,SMDPad,CuDef*
G36*
G01*
X80049999Y-110087500D02*
X80950001Y-110087500D01*
G75*
G02*
X81200000Y-110337499I0J-249999D01*
G01*
X81200000Y-110987501D01*
G75*
G02*
X80950001Y-111237500I-249999J0D01*
G01*
X80049999Y-111237500D01*
G75*
G02*
X79800000Y-110987501I0J249999D01*
G01*
X79800000Y-110337499D01*
G75*
G02*
X80049999Y-110087500I249999J0D01*
G01*
G37*
G04 #@! TD.AperFunction*
G04 #@! TA.AperFunction,SMDPad,CuDef*
G36*
G01*
X80049999Y-108037500D02*
X80950001Y-108037500D01*
G75*
G02*
X81200000Y-108287499I0J-249999D01*
G01*
X81200000Y-108937501D01*
G75*
G02*
X80950001Y-109187500I-249999J0D01*
G01*
X80049999Y-109187500D01*
G75*
G02*
X79800000Y-108937501I0J249999D01*
G01*
X79800000Y-108287499D01*
G75*
G02*
X80049999Y-108037500I249999J0D01*
G01*
G37*
G04 #@! TD.AperFunction*
G04 #@! TA.AperFunction,SMDPad,CuDef*
G36*
G01*
X69412500Y-106550001D02*
X69412500Y-105649999D01*
G75*
G02*
X69662499Y-105400000I249999J0D01*
G01*
X70312501Y-105400000D01*
G75*
G02*
X70562500Y-105649999I0J-249999D01*
G01*
X70562500Y-106550001D01*
G75*
G02*
X70312501Y-106800000I-249999J0D01*
G01*
X69662499Y-106800000D01*
G75*
G02*
X69412500Y-106550001I0J249999D01*
G01*
G37*
G04 #@! TD.AperFunction*
G04 #@! TA.AperFunction,SMDPad,CuDef*
G36*
G01*
X67362500Y-106550001D02*
X67362500Y-105649999D01*
G75*
G02*
X67612499Y-105400000I249999J0D01*
G01*
X68262501Y-105400000D01*
G75*
G02*
X68512500Y-105649999I0J-249999D01*
G01*
X68512500Y-106550001D01*
G75*
G02*
X68262501Y-106800000I-249999J0D01*
G01*
X67612499Y-106800000D01*
G75*
G02*
X67362500Y-106550001I0J249999D01*
G01*
G37*
G04 #@! TD.AperFunction*
G04 #@! TA.AperFunction,SMDPad,CuDef*
G36*
G01*
X78287500Y-107150001D02*
X78287500Y-106249999D01*
G75*
G02*
X78537499Y-106000000I249999J0D01*
G01*
X79187501Y-106000000D01*
G75*
G02*
X79437500Y-106249999I0J-249999D01*
G01*
X79437500Y-107150001D01*
G75*
G02*
X79187501Y-107400000I-249999J0D01*
G01*
X78537499Y-107400000D01*
G75*
G02*
X78287500Y-107150001I0J249999D01*
G01*
G37*
G04 #@! TD.AperFunction*
G04 #@! TA.AperFunction,SMDPad,CuDef*
G36*
G01*
X76237500Y-107150001D02*
X76237500Y-106249999D01*
G75*
G02*
X76487499Y-106000000I249999J0D01*
G01*
X77137501Y-106000000D01*
G75*
G02*
X77387500Y-106249999I0J-249999D01*
G01*
X77387500Y-107150001D01*
G75*
G02*
X77137501Y-107400000I-249999J0D01*
G01*
X76487499Y-107400000D01*
G75*
G02*
X76237500Y-107150001I0J249999D01*
G01*
G37*
G04 #@! TD.AperFunction*
G04 #@! TA.AperFunction,SMDPad,CuDef*
G36*
G01*
X69412500Y-108550001D02*
X69412500Y-107649999D01*
G75*
G02*
X69662499Y-107400000I249999J0D01*
G01*
X70312501Y-107400000D01*
G75*
G02*
X70562500Y-107649999I0J-249999D01*
G01*
X70562500Y-108550001D01*
G75*
G02*
X70312501Y-108800000I-249999J0D01*
G01*
X69662499Y-108800000D01*
G75*
G02*
X69412500Y-108550001I0J249999D01*
G01*
G37*
G04 #@! TD.AperFunction*
G04 #@! TA.AperFunction,SMDPad,CuDef*
G36*
G01*
X67362500Y-108550001D02*
X67362500Y-107649999D01*
G75*
G02*
X67612499Y-107400000I249999J0D01*
G01*
X68262501Y-107400000D01*
G75*
G02*
X68512500Y-107649999I0J-249999D01*
G01*
X68512500Y-108550001D01*
G75*
G02*
X68262501Y-108800000I-249999J0D01*
G01*
X67612499Y-108800000D01*
G75*
G02*
X67362500Y-108550001I0J249999D01*
G01*
G37*
G04 #@! TD.AperFunction*
G04 #@! TA.AperFunction,SMDPad,CuDef*
G36*
G01*
X92500000Y-88770001D02*
X92500000Y-87869999D01*
G75*
G02*
X92749999Y-87620000I249999J0D01*
G01*
X93400001Y-87620000D01*
G75*
G02*
X93650000Y-87869999I0J-249999D01*
G01*
X93650000Y-88770001D01*
G75*
G02*
X93400001Y-89020000I-249999J0D01*
G01*
X92749999Y-89020000D01*
G75*
G02*
X92500000Y-88770001I0J249999D01*
G01*
G37*
G04 #@! TD.AperFunction*
G04 #@! TA.AperFunction,SMDPad,CuDef*
G36*
G01*
X90450000Y-88770001D02*
X90450000Y-87869999D01*
G75*
G02*
X90699999Y-87620000I249999J0D01*
G01*
X91350001Y-87620000D01*
G75*
G02*
X91600000Y-87869999I0J-249999D01*
G01*
X91600000Y-88770001D01*
G75*
G02*
X91350001Y-89020000I-249999J0D01*
G01*
X90699999Y-89020000D01*
G75*
G02*
X90450000Y-88770001I0J249999D01*
G01*
G37*
G04 #@! TD.AperFunction*
G04 #@! TA.AperFunction,SMDPad,CuDef*
G36*
G01*
X88600000Y-88770001D02*
X88600000Y-87869999D01*
G75*
G02*
X88849999Y-87620000I249999J0D01*
G01*
X89500001Y-87620000D01*
G75*
G02*
X89750000Y-87869999I0J-249999D01*
G01*
X89750000Y-88770001D01*
G75*
G02*
X89500001Y-89020000I-249999J0D01*
G01*
X88849999Y-89020000D01*
G75*
G02*
X88600000Y-88770001I0J249999D01*
G01*
G37*
G04 #@! TD.AperFunction*
G04 #@! TA.AperFunction,SMDPad,CuDef*
G36*
G01*
X86550000Y-88770001D02*
X86550000Y-87869999D01*
G75*
G02*
X86799999Y-87620000I249999J0D01*
G01*
X87450001Y-87620000D01*
G75*
G02*
X87700000Y-87869999I0J-249999D01*
G01*
X87700000Y-88770001D01*
G75*
G02*
X87450001Y-89020000I-249999J0D01*
G01*
X86799999Y-89020000D01*
G75*
G02*
X86550000Y-88770001I0J249999D01*
G01*
G37*
G04 #@! TD.AperFunction*
G04 #@! TA.AperFunction,SMDPad,CuDef*
G36*
G01*
X75387500Y-102250001D02*
X75387500Y-101349999D01*
G75*
G02*
X75637499Y-101100000I249999J0D01*
G01*
X76287501Y-101100000D01*
G75*
G02*
X76537500Y-101349999I0J-249999D01*
G01*
X76537500Y-102250001D01*
G75*
G02*
X76287501Y-102500000I-249999J0D01*
G01*
X75637499Y-102500000D01*
G75*
G02*
X75387500Y-102250001I0J249999D01*
G01*
G37*
G04 #@! TD.AperFunction*
G04 #@! TA.AperFunction,SMDPad,CuDef*
G36*
G01*
X73337500Y-102250001D02*
X73337500Y-101349999D01*
G75*
G02*
X73587499Y-101100000I249999J0D01*
G01*
X74237501Y-101100000D01*
G75*
G02*
X74487500Y-101349999I0J-249999D01*
G01*
X74487500Y-102250001D01*
G75*
G02*
X74237501Y-102500000I-249999J0D01*
G01*
X73587499Y-102500000D01*
G75*
G02*
X73337500Y-102250001I0J249999D01*
G01*
G37*
G04 #@! TD.AperFunction*
G04 #@! TA.AperFunction,SMDPad,CuDef*
G36*
G01*
X74412500Y-95649999D02*
X74412500Y-96550001D01*
G75*
G02*
X74162501Y-96800000I-249999J0D01*
G01*
X73512499Y-96800000D01*
G75*
G02*
X73262500Y-96550001I0J249999D01*
G01*
X73262500Y-95649999D01*
G75*
G02*
X73512499Y-95400000I249999J0D01*
G01*
X74162501Y-95400000D01*
G75*
G02*
X74412500Y-95649999I0J-249999D01*
G01*
G37*
G04 #@! TD.AperFunction*
G04 #@! TA.AperFunction,SMDPad,CuDef*
G36*
G01*
X76462500Y-95649999D02*
X76462500Y-96550001D01*
G75*
G02*
X76212501Y-96800000I-249999J0D01*
G01*
X75562499Y-96800000D01*
G75*
G02*
X75312500Y-96550001I0J249999D01*
G01*
X75312500Y-95649999D01*
G75*
G02*
X75562499Y-95400000I249999J0D01*
G01*
X76212501Y-95400000D01*
G75*
G02*
X76462500Y-95649999I0J-249999D01*
G01*
G37*
G04 #@! TD.AperFunction*
G04 #@! TA.AperFunction,SMDPad,CuDef*
G36*
G01*
X75112500Y-97449999D02*
X75112500Y-98350001D01*
G75*
G02*
X74862501Y-98600000I-249999J0D01*
G01*
X74212499Y-98600000D01*
G75*
G02*
X73962500Y-98350001I0J249999D01*
G01*
X73962500Y-97449999D01*
G75*
G02*
X74212499Y-97200000I249999J0D01*
G01*
X74862501Y-97200000D01*
G75*
G02*
X75112500Y-97449999I0J-249999D01*
G01*
G37*
G04 #@! TD.AperFunction*
G04 #@! TA.AperFunction,SMDPad,CuDef*
G36*
G01*
X77162500Y-97449999D02*
X77162500Y-98350001D01*
G75*
G02*
X76912501Y-98600000I-249999J0D01*
G01*
X76262499Y-98600000D01*
G75*
G02*
X76012500Y-98350001I0J249999D01*
G01*
X76012500Y-97449999D01*
G75*
G02*
X76262499Y-97200000I249999J0D01*
G01*
X76912501Y-97200000D01*
G75*
G02*
X77162500Y-97449999I0J-249999D01*
G01*
G37*
G04 #@! TD.AperFunction*
G04 #@! TA.AperFunction,SMDPad,CuDef*
G36*
G01*
X87810000Y-98360001D02*
X87810000Y-97459999D01*
G75*
G02*
X88059999Y-97210000I249999J0D01*
G01*
X88710001Y-97210000D01*
G75*
G02*
X88960000Y-97459999I0J-249999D01*
G01*
X88960000Y-98360001D01*
G75*
G02*
X88710001Y-98610000I-249999J0D01*
G01*
X88059999Y-98610000D01*
G75*
G02*
X87810000Y-98360001I0J249999D01*
G01*
G37*
G04 #@! TD.AperFunction*
G04 #@! TA.AperFunction,SMDPad,CuDef*
G36*
G01*
X85760000Y-98360001D02*
X85760000Y-97459999D01*
G75*
G02*
X86009999Y-97210000I249999J0D01*
G01*
X86660001Y-97210000D01*
G75*
G02*
X86910000Y-97459999I0J-249999D01*
G01*
X86910000Y-98360001D01*
G75*
G02*
X86660001Y-98610000I-249999J0D01*
G01*
X86009999Y-98610000D01*
G75*
G02*
X85760000Y-98360001I0J249999D01*
G01*
G37*
G04 #@! TD.AperFunction*
G04 #@! TA.AperFunction,SMDPad,CuDef*
G36*
G01*
X83449999Y-97112500D02*
X84350001Y-97112500D01*
G75*
G02*
X84600000Y-97362499I0J-249999D01*
G01*
X84600000Y-98012501D01*
G75*
G02*
X84350001Y-98262500I-249999J0D01*
G01*
X83449999Y-98262500D01*
G75*
G02*
X83200000Y-98012501I0J249999D01*
G01*
X83200000Y-97362499D01*
G75*
G02*
X83449999Y-97112500I249999J0D01*
G01*
G37*
G04 #@! TD.AperFunction*
G04 #@! TA.AperFunction,SMDPad,CuDef*
G36*
G01*
X83449999Y-95062500D02*
X84350001Y-95062500D01*
G75*
G02*
X84600000Y-95312499I0J-249999D01*
G01*
X84600000Y-95962501D01*
G75*
G02*
X84350001Y-96212500I-249999J0D01*
G01*
X83449999Y-96212500D01*
G75*
G02*
X83200000Y-95962501I0J249999D01*
G01*
X83200000Y-95312499D01*
G75*
G02*
X83449999Y-95062500I249999J0D01*
G01*
G37*
G04 #@! TD.AperFunction*
G04 #@! TA.AperFunction,SMDPad,CuDef*
G36*
G01*
X81349999Y-97050000D02*
X82250001Y-97050000D01*
G75*
G02*
X82500000Y-97299999I0J-249999D01*
G01*
X82500000Y-97950001D01*
G75*
G02*
X82250001Y-98200000I-249999J0D01*
G01*
X81349999Y-98200000D01*
G75*
G02*
X81100000Y-97950001I0J249999D01*
G01*
X81100000Y-97299999D01*
G75*
G02*
X81349999Y-97050000I249999J0D01*
G01*
G37*
G04 #@! TD.AperFunction*
G04 #@! TA.AperFunction,SMDPad,CuDef*
G36*
G01*
X81349999Y-95000000D02*
X82250001Y-95000000D01*
G75*
G02*
X82500000Y-95249999I0J-249999D01*
G01*
X82500000Y-95900001D01*
G75*
G02*
X82250001Y-96150000I-249999J0D01*
G01*
X81349999Y-96150000D01*
G75*
G02*
X81100000Y-95900001I0J249999D01*
G01*
X81100000Y-95249999D01*
G75*
G02*
X81349999Y-95000000I249999J0D01*
G01*
G37*
G04 #@! TD.AperFunction*
G04 #@! TA.AperFunction,SMDPad,CuDef*
G36*
G01*
X77687500Y-88149999D02*
X77687500Y-89050001D01*
G75*
G02*
X77437501Y-89300000I-249999J0D01*
G01*
X76787499Y-89300000D01*
G75*
G02*
X76537500Y-89050001I0J249999D01*
G01*
X76537500Y-88149999D01*
G75*
G02*
X76787499Y-87900000I249999J0D01*
G01*
X77437501Y-87900000D01*
G75*
G02*
X77687500Y-88149999I0J-249999D01*
G01*
G37*
G04 #@! TD.AperFunction*
G04 #@! TA.AperFunction,SMDPad,CuDef*
G36*
G01*
X79737500Y-88149999D02*
X79737500Y-89050001D01*
G75*
G02*
X79487501Y-89300000I-249999J0D01*
G01*
X78837499Y-89300000D01*
G75*
G02*
X78587500Y-89050001I0J249999D01*
G01*
X78587500Y-88149999D01*
G75*
G02*
X78837499Y-87900000I249999J0D01*
G01*
X79487501Y-87900000D01*
G75*
G02*
X79737500Y-88149999I0J-249999D01*
G01*
G37*
G04 #@! TD.AperFunction*
G04 #@! TA.AperFunction,SMDPad,CuDef*
G36*
G01*
X81750001Y-91012500D02*
X80849999Y-91012500D01*
G75*
G02*
X80600000Y-90762501I0J249999D01*
G01*
X80600000Y-90112499D01*
G75*
G02*
X80849999Y-89862500I249999J0D01*
G01*
X81750001Y-89862500D01*
G75*
G02*
X82000000Y-90112499I0J-249999D01*
G01*
X82000000Y-90762501D01*
G75*
G02*
X81750001Y-91012500I-249999J0D01*
G01*
G37*
G04 #@! TD.AperFunction*
G04 #@! TA.AperFunction,SMDPad,CuDef*
G36*
G01*
X81750001Y-93062500D02*
X80849999Y-93062500D01*
G75*
G02*
X80600000Y-92812501I0J249999D01*
G01*
X80600000Y-92162499D01*
G75*
G02*
X80849999Y-91912500I249999J0D01*
G01*
X81750001Y-91912500D01*
G75*
G02*
X82000000Y-92162499I0J-249999D01*
G01*
X82000000Y-92812501D01*
G75*
G02*
X81750001Y-93062500I-249999J0D01*
G01*
G37*
G04 #@! TD.AperFunction*
G04 #@! TA.AperFunction,SMDPad,CuDef*
G36*
G01*
X83900001Y-91000000D02*
X82999999Y-91000000D01*
G75*
G02*
X82750000Y-90750001I0J249999D01*
G01*
X82750000Y-90099999D01*
G75*
G02*
X82999999Y-89850000I249999J0D01*
G01*
X83900001Y-89850000D01*
G75*
G02*
X84150000Y-90099999I0J-249999D01*
G01*
X84150000Y-90750001D01*
G75*
G02*
X83900001Y-91000000I-249999J0D01*
G01*
G37*
G04 #@! TD.AperFunction*
G04 #@! TA.AperFunction,SMDPad,CuDef*
G36*
G01*
X83900001Y-93050000D02*
X82999999Y-93050000D01*
G75*
G02*
X82750000Y-92800001I0J249999D01*
G01*
X82750000Y-92149999D01*
G75*
G02*
X82999999Y-91900000I249999J0D01*
G01*
X83900001Y-91900000D01*
G75*
G02*
X84150000Y-92149999I0J-249999D01*
G01*
X84150000Y-92800001D01*
G75*
G02*
X83900001Y-93050000I-249999J0D01*
G01*
G37*
G04 #@! TD.AperFunction*
G04 #@! TA.AperFunction,SMDPad,CuDef*
G36*
G01*
X74787500Y-89050001D02*
X74787500Y-88149999D01*
G75*
G02*
X75037499Y-87900000I249999J0D01*
G01*
X75687501Y-87900000D01*
G75*
G02*
X75937500Y-88149999I0J-249999D01*
G01*
X75937500Y-89050001D01*
G75*
G02*
X75687501Y-89300000I-249999J0D01*
G01*
X75037499Y-89300000D01*
G75*
G02*
X74787500Y-89050001I0J249999D01*
G01*
G37*
G04 #@! TD.AperFunction*
G04 #@! TA.AperFunction,SMDPad,CuDef*
G36*
G01*
X72737500Y-89050001D02*
X72737500Y-88149999D01*
G75*
G02*
X72987499Y-87900000I249999J0D01*
G01*
X73637501Y-87900000D01*
G75*
G02*
X73887500Y-88149999I0J-249999D01*
G01*
X73887500Y-89050001D01*
G75*
G02*
X73637501Y-89300000I-249999J0D01*
G01*
X72987499Y-89300000D01*
G75*
G02*
X72737500Y-89050001I0J249999D01*
G01*
G37*
G04 #@! TD.AperFunction*
G04 #@! TA.AperFunction,SMDPad,CuDef*
G36*
G01*
X74812500Y-91050001D02*
X74812500Y-90149999D01*
G75*
G02*
X75062499Y-89900000I249999J0D01*
G01*
X75712501Y-89900000D01*
G75*
G02*
X75962500Y-90149999I0J-249999D01*
G01*
X75962500Y-91050001D01*
G75*
G02*
X75712501Y-91300000I-249999J0D01*
G01*
X75062499Y-91300000D01*
G75*
G02*
X74812500Y-91050001I0J249999D01*
G01*
G37*
G04 #@! TD.AperFunction*
G04 #@! TA.AperFunction,SMDPad,CuDef*
G36*
G01*
X72762500Y-91050001D02*
X72762500Y-90149999D01*
G75*
G02*
X73012499Y-89900000I249999J0D01*
G01*
X73662501Y-89900000D01*
G75*
G02*
X73912500Y-90149999I0J-249999D01*
G01*
X73912500Y-91050001D01*
G75*
G02*
X73662501Y-91300000I-249999J0D01*
G01*
X73012499Y-91300000D01*
G75*
G02*
X72762500Y-91050001I0J249999D01*
G01*
G37*
G04 #@! TD.AperFunction*
G04 #@! TA.AperFunction,SMDPad,CuDef*
G36*
G01*
X70849999Y-90012500D02*
X71750001Y-90012500D01*
G75*
G02*
X72000000Y-90262499I0J-249999D01*
G01*
X72000000Y-90912501D01*
G75*
G02*
X71750001Y-91162500I-249999J0D01*
G01*
X70849999Y-91162500D01*
G75*
G02*
X70600000Y-90912501I0J249999D01*
G01*
X70600000Y-90262499D01*
G75*
G02*
X70849999Y-90012500I249999J0D01*
G01*
G37*
G04 #@! TD.AperFunction*
G04 #@! TA.AperFunction,SMDPad,CuDef*
G36*
G01*
X70849999Y-87962500D02*
X71750001Y-87962500D01*
G75*
G02*
X72000000Y-88212499I0J-249999D01*
G01*
X72000000Y-88862501D01*
G75*
G02*
X71750001Y-89112500I-249999J0D01*
G01*
X70849999Y-89112500D01*
G75*
G02*
X70600000Y-88862501I0J249999D01*
G01*
X70600000Y-88212499D01*
G75*
G02*
X70849999Y-87962500I249999J0D01*
G01*
G37*
G04 #@! TD.AperFunction*
G04 #@! TA.AperFunction,SMDPad,CuDef*
G36*
G01*
X66249999Y-102912500D02*
X67150001Y-102912500D01*
G75*
G02*
X67400000Y-103162499I0J-249999D01*
G01*
X67400000Y-103812501D01*
G75*
G02*
X67150001Y-104062500I-249999J0D01*
G01*
X66249999Y-104062500D01*
G75*
G02*
X66000000Y-103812501I0J249999D01*
G01*
X66000000Y-103162499D01*
G75*
G02*
X66249999Y-102912500I249999J0D01*
G01*
G37*
G04 #@! TD.AperFunction*
G04 #@! TA.AperFunction,SMDPad,CuDef*
G36*
G01*
X66249999Y-100862500D02*
X67150001Y-100862500D01*
G75*
G02*
X67400000Y-101112499I0J-249999D01*
G01*
X67400000Y-101762501D01*
G75*
G02*
X67150001Y-102012500I-249999J0D01*
G01*
X66249999Y-102012500D01*
G75*
G02*
X66000000Y-101762501I0J249999D01*
G01*
X66000000Y-101112499D01*
G75*
G02*
X66249999Y-100862500I249999J0D01*
G01*
G37*
G04 #@! TD.AperFunction*
G04 #@! TA.AperFunction,SMDPad,CuDef*
G36*
G01*
X58149999Y-102987500D02*
X59050001Y-102987500D01*
G75*
G02*
X59300000Y-103237499I0J-249999D01*
G01*
X59300000Y-103887501D01*
G75*
G02*
X59050001Y-104137500I-249999J0D01*
G01*
X58149999Y-104137500D01*
G75*
G02*
X57900000Y-103887501I0J249999D01*
G01*
X57900000Y-103237499D01*
G75*
G02*
X58149999Y-102987500I249999J0D01*
G01*
G37*
G04 #@! TD.AperFunction*
G04 #@! TA.AperFunction,SMDPad,CuDef*
G36*
G01*
X58149999Y-100937500D02*
X59050001Y-100937500D01*
G75*
G02*
X59300000Y-101187499I0J-249999D01*
G01*
X59300000Y-101837501D01*
G75*
G02*
X59050001Y-102087500I-249999J0D01*
G01*
X58149999Y-102087500D01*
G75*
G02*
X57900000Y-101837501I0J249999D01*
G01*
X57900000Y-101187499D01*
G75*
G02*
X58149999Y-100937500I249999J0D01*
G01*
G37*
G04 #@! TD.AperFunction*
G04 #@! TA.AperFunction,SMDPad,CuDef*
G36*
G01*
X64387500Y-100050001D02*
X64387500Y-99149999D01*
G75*
G02*
X64637499Y-98900000I249999J0D01*
G01*
X65287501Y-98900000D01*
G75*
G02*
X65537500Y-99149999I0J-249999D01*
G01*
X65537500Y-100050001D01*
G75*
G02*
X65287501Y-100300000I-249999J0D01*
G01*
X64637499Y-100300000D01*
G75*
G02*
X64387500Y-100050001I0J249999D01*
G01*
G37*
G04 #@! TD.AperFunction*
G04 #@! TA.AperFunction,SMDPad,CuDef*
G36*
G01*
X62337500Y-100050001D02*
X62337500Y-99149999D01*
G75*
G02*
X62587499Y-98900000I249999J0D01*
G01*
X63237501Y-98900000D01*
G75*
G02*
X63487500Y-99149999I0J-249999D01*
G01*
X63487500Y-100050001D01*
G75*
G02*
X63237501Y-100300000I-249999J0D01*
G01*
X62587499Y-100300000D01*
G75*
G02*
X62337500Y-100050001I0J249999D01*
G01*
G37*
G04 #@! TD.AperFunction*
G04 #@! TA.AperFunction,SMDPad,CuDef*
G36*
G01*
X60487500Y-100050001D02*
X60487500Y-99149999D01*
G75*
G02*
X60737499Y-98900000I249999J0D01*
G01*
X61387501Y-98900000D01*
G75*
G02*
X61637500Y-99149999I0J-249999D01*
G01*
X61637500Y-100050001D01*
G75*
G02*
X61387501Y-100300000I-249999J0D01*
G01*
X60737499Y-100300000D01*
G75*
G02*
X60487500Y-100050001I0J249999D01*
G01*
G37*
G04 #@! TD.AperFunction*
G04 #@! TA.AperFunction,SMDPad,CuDef*
G36*
G01*
X58437500Y-100050001D02*
X58437500Y-99149999D01*
G75*
G02*
X58687499Y-98900000I249999J0D01*
G01*
X59337501Y-98900000D01*
G75*
G02*
X59587500Y-99149999I0J-249999D01*
G01*
X59587500Y-100050001D01*
G75*
G02*
X59337501Y-100300000I-249999J0D01*
G01*
X58687499Y-100300000D01*
G75*
G02*
X58437500Y-100050001I0J249999D01*
G01*
G37*
G04 #@! TD.AperFunction*
G04 #@! TA.AperFunction,SMDPad,CuDef*
G36*
G01*
X57625999Y-87611500D02*
X58526001Y-87611500D01*
G75*
G02*
X58776000Y-87861499I0J-249999D01*
G01*
X58776000Y-88511501D01*
G75*
G02*
X58526001Y-88761500I-249999J0D01*
G01*
X57625999Y-88761500D01*
G75*
G02*
X57376000Y-88511501I0J249999D01*
G01*
X57376000Y-87861499D01*
G75*
G02*
X57625999Y-87611500I249999J0D01*
G01*
G37*
G04 #@! TD.AperFunction*
G04 #@! TA.AperFunction,SMDPad,CuDef*
G36*
G01*
X57625999Y-85561500D02*
X58526001Y-85561500D01*
G75*
G02*
X58776000Y-85811499I0J-249999D01*
G01*
X58776000Y-86461501D01*
G75*
G02*
X58526001Y-86711500I-249999J0D01*
G01*
X57625999Y-86711500D01*
G75*
G02*
X57376000Y-86461501I0J249999D01*
G01*
X57376000Y-85811499D01*
G75*
G02*
X57625999Y-85561500I249999J0D01*
G01*
G37*
G04 #@! TD.AperFunction*
G04 #@! TA.AperFunction,SMDPad,CuDef*
G36*
G01*
X52425999Y-87611500D02*
X53326001Y-87611500D01*
G75*
G02*
X53576000Y-87861499I0J-249999D01*
G01*
X53576000Y-88511501D01*
G75*
G02*
X53326001Y-88761500I-249999J0D01*
G01*
X52425999Y-88761500D01*
G75*
G02*
X52176000Y-88511501I0J249999D01*
G01*
X52176000Y-87861499D01*
G75*
G02*
X52425999Y-87611500I249999J0D01*
G01*
G37*
G04 #@! TD.AperFunction*
G04 #@! TA.AperFunction,SMDPad,CuDef*
G36*
G01*
X52425999Y-85561500D02*
X53326001Y-85561500D01*
G75*
G02*
X53576000Y-85811499I0J-249999D01*
G01*
X53576000Y-86461501D01*
G75*
G02*
X53326001Y-86711500I-249999J0D01*
G01*
X52425999Y-86711500D01*
G75*
G02*
X52176000Y-86461501I0J249999D01*
G01*
X52176000Y-85811499D01*
G75*
G02*
X52425999Y-85561500I249999J0D01*
G01*
G37*
G04 #@! TD.AperFunction*
G04 #@! TA.AperFunction,SMDPad,CuDef*
G36*
G01*
X47225999Y-87611500D02*
X48126001Y-87611500D01*
G75*
G02*
X48376000Y-87861499I0J-249999D01*
G01*
X48376000Y-88511501D01*
G75*
G02*
X48126001Y-88761500I-249999J0D01*
G01*
X47225999Y-88761500D01*
G75*
G02*
X46976000Y-88511501I0J249999D01*
G01*
X46976000Y-87861499D01*
G75*
G02*
X47225999Y-87611500I249999J0D01*
G01*
G37*
G04 #@! TD.AperFunction*
G04 #@! TA.AperFunction,SMDPad,CuDef*
G36*
G01*
X47225999Y-85561500D02*
X48126001Y-85561500D01*
G75*
G02*
X48376000Y-85811499I0J-249999D01*
G01*
X48376000Y-86461501D01*
G75*
G02*
X48126001Y-86711500I-249999J0D01*
G01*
X47225999Y-86711500D01*
G75*
G02*
X46976000Y-86461501I0J249999D01*
G01*
X46976000Y-85811499D01*
G75*
G02*
X47225999Y-85561500I249999J0D01*
G01*
G37*
G04 #@! TD.AperFunction*
G04 #@! TA.AperFunction,SMDPad,CuDef*
G36*
G01*
X44025999Y-87611500D02*
X44926001Y-87611500D01*
G75*
G02*
X45176000Y-87861499I0J-249999D01*
G01*
X45176000Y-88511501D01*
G75*
G02*
X44926001Y-88761500I-249999J0D01*
G01*
X44025999Y-88761500D01*
G75*
G02*
X43776000Y-88511501I0J249999D01*
G01*
X43776000Y-87861499D01*
G75*
G02*
X44025999Y-87611500I249999J0D01*
G01*
G37*
G04 #@! TD.AperFunction*
G04 #@! TA.AperFunction,SMDPad,CuDef*
G36*
G01*
X44025999Y-85561500D02*
X44926001Y-85561500D01*
G75*
G02*
X45176000Y-85811499I0J-249999D01*
G01*
X45176000Y-86461501D01*
G75*
G02*
X44926001Y-86711500I-249999J0D01*
G01*
X44025999Y-86711500D01*
G75*
G02*
X43776000Y-86461501I0J249999D01*
G01*
X43776000Y-85811499D01*
G75*
G02*
X44025999Y-85561500I249999J0D01*
G01*
G37*
G04 #@! TD.AperFunction*
G04 #@! TA.AperFunction,SMDPad,CuDef*
G36*
G01*
X86240001Y-79960000D02*
X85339999Y-79960000D01*
G75*
G02*
X85090000Y-79710001I0J249999D01*
G01*
X85090000Y-79059999D01*
G75*
G02*
X85339999Y-78810000I249999J0D01*
G01*
X86240001Y-78810000D01*
G75*
G02*
X86490000Y-79059999I0J-249999D01*
G01*
X86490000Y-79710001D01*
G75*
G02*
X86240001Y-79960000I-249999J0D01*
G01*
G37*
G04 #@! TD.AperFunction*
G04 #@! TA.AperFunction,SMDPad,CuDef*
G36*
G01*
X86240001Y-82010000D02*
X85339999Y-82010000D01*
G75*
G02*
X85090000Y-81760001I0J249999D01*
G01*
X85090000Y-81109999D01*
G75*
G02*
X85339999Y-80860000I249999J0D01*
G01*
X86240001Y-80860000D01*
G75*
G02*
X86490000Y-81109999I0J-249999D01*
G01*
X86490000Y-81760001D01*
G75*
G02*
X86240001Y-82010000I-249999J0D01*
G01*
G37*
G04 #@! TD.AperFunction*
G04 #@! TA.AperFunction,SMDPad,CuDef*
G36*
G01*
X57035000Y-111085000D02*
X57035000Y-109835000D01*
G75*
G02*
X57285000Y-109585000I250000J0D01*
G01*
X58210000Y-109585000D01*
G75*
G02*
X58460000Y-109835000I0J-250000D01*
G01*
X58460000Y-111085000D01*
G75*
G02*
X58210000Y-111335000I-250000J0D01*
G01*
X57285000Y-111335000D01*
G75*
G02*
X57035000Y-111085000I0J250000D01*
G01*
G37*
G04 #@! TD.AperFunction*
G04 #@! TA.AperFunction,SMDPad,CuDef*
G36*
G01*
X54060000Y-111085000D02*
X54060000Y-109835000D01*
G75*
G02*
X54310000Y-109585000I250000J0D01*
G01*
X55235000Y-109585000D01*
G75*
G02*
X55485000Y-109835000I0J-250000D01*
G01*
X55485000Y-111085000D01*
G75*
G02*
X55235000Y-111335000I-250000J0D01*
G01*
X54310000Y-111335000D01*
G75*
G02*
X54060000Y-111085000I0J250000D01*
G01*
G37*
G04 #@! TD.AperFunction*
G04 #@! TA.AperFunction,SMDPad,CuDef*
G36*
G01*
X51245000Y-113385000D02*
X49995000Y-113385000D01*
G75*
G02*
X49745000Y-113135000I0J250000D01*
G01*
X49745000Y-112210000D01*
G75*
G02*
X49995000Y-111960000I250000J0D01*
G01*
X51245000Y-111960000D01*
G75*
G02*
X51495000Y-112210000I0J-250000D01*
G01*
X51495000Y-113135000D01*
G75*
G02*
X51245000Y-113385000I-250000J0D01*
G01*
G37*
G04 #@! TD.AperFunction*
G04 #@! TA.AperFunction,SMDPad,CuDef*
G36*
G01*
X51245000Y-116360000D02*
X49995000Y-116360000D01*
G75*
G02*
X49745000Y-116110000I0J250000D01*
G01*
X49745000Y-115185000D01*
G75*
G02*
X49995000Y-114935000I250000J0D01*
G01*
X51245000Y-114935000D01*
G75*
G02*
X51495000Y-115185000I0J-250000D01*
G01*
X51495000Y-116110000D01*
G75*
G02*
X51245000Y-116360000I-250000J0D01*
G01*
G37*
G04 #@! TD.AperFunction*
G04 #@! TA.AperFunction,SMDPad,CuDef*
G36*
G01*
X68175000Y-122905000D02*
X68175000Y-124155000D01*
G75*
G02*
X67925000Y-124405000I-250000J0D01*
G01*
X67000000Y-124405000D01*
G75*
G02*
X66750000Y-124155000I0J250000D01*
G01*
X66750000Y-122905000D01*
G75*
G02*
X67000000Y-122655000I250000J0D01*
G01*
X67925000Y-122655000D01*
G75*
G02*
X68175000Y-122905000I0J-250000D01*
G01*
G37*
G04 #@! TD.AperFunction*
G04 #@! TA.AperFunction,SMDPad,CuDef*
G36*
G01*
X71150000Y-122905000D02*
X71150000Y-124155000D01*
G75*
G02*
X70900000Y-124405000I-250000J0D01*
G01*
X69975000Y-124405000D01*
G75*
G02*
X69725000Y-124155000I0J250000D01*
G01*
X69725000Y-122905000D01*
G75*
G02*
X69975000Y-122655000I250000J0D01*
G01*
X70900000Y-122655000D01*
G75*
G02*
X71150000Y-122905000I0J-250000D01*
G01*
G37*
G04 #@! TD.AperFunction*
G04 #@! TA.AperFunction,SMDPad,CuDef*
G36*
G01*
X48765000Y-113385000D02*
X47515000Y-113385000D01*
G75*
G02*
X47265000Y-113135000I0J250000D01*
G01*
X47265000Y-112210000D01*
G75*
G02*
X47515000Y-111960000I250000J0D01*
G01*
X48765000Y-111960000D01*
G75*
G02*
X49015000Y-112210000I0J-250000D01*
G01*
X49015000Y-113135000D01*
G75*
G02*
X48765000Y-113385000I-250000J0D01*
G01*
G37*
G04 #@! TD.AperFunction*
G04 #@! TA.AperFunction,SMDPad,CuDef*
G36*
G01*
X48765000Y-116360000D02*
X47515000Y-116360000D01*
G75*
G02*
X47265000Y-116110000I0J250000D01*
G01*
X47265000Y-115185000D01*
G75*
G02*
X47515000Y-114935000I250000J0D01*
G01*
X48765000Y-114935000D01*
G75*
G02*
X49015000Y-115185000I0J-250000D01*
G01*
X49015000Y-116110000D01*
G75*
G02*
X48765000Y-116360000I-250000J0D01*
G01*
G37*
G04 #@! TD.AperFunction*
G04 #@! TA.AperFunction,SMDPad,CuDef*
G36*
G01*
X68165000Y-120515000D02*
X68165000Y-121765000D01*
G75*
G02*
X67915000Y-122015000I-250000J0D01*
G01*
X66990000Y-122015000D01*
G75*
G02*
X66740000Y-121765000I0J250000D01*
G01*
X66740000Y-120515000D01*
G75*
G02*
X66990000Y-120265000I250000J0D01*
G01*
X67915000Y-120265000D01*
G75*
G02*
X68165000Y-120515000I0J-250000D01*
G01*
G37*
G04 #@! TD.AperFunction*
G04 #@! TA.AperFunction,SMDPad,CuDef*
G36*
G01*
X71140000Y-120515000D02*
X71140000Y-121765000D01*
G75*
G02*
X70890000Y-122015000I-250000J0D01*
G01*
X69965000Y-122015000D01*
G75*
G02*
X69715000Y-121765000I0J250000D01*
G01*
X69715000Y-120515000D01*
G75*
G02*
X69965000Y-120265000I250000J0D01*
G01*
X70890000Y-120265000D01*
G75*
G02*
X71140000Y-120515000I0J-250000D01*
G01*
G37*
G04 #@! TD.AperFunction*
G04 #@! TA.AperFunction,SMDPad,CuDef*
G36*
G01*
X91225000Y-105775000D02*
X89975000Y-105775000D01*
G75*
G02*
X89725000Y-105525000I0J250000D01*
G01*
X89725000Y-104600000D01*
G75*
G02*
X89975000Y-104350000I250000J0D01*
G01*
X91225000Y-104350000D01*
G75*
G02*
X91475000Y-104600000I0J-250000D01*
G01*
X91475000Y-105525000D01*
G75*
G02*
X91225000Y-105775000I-250000J0D01*
G01*
G37*
G04 #@! TD.AperFunction*
G04 #@! TA.AperFunction,SMDPad,CuDef*
G36*
G01*
X91225000Y-108750000D02*
X89975000Y-108750000D01*
G75*
G02*
X89725000Y-108500000I0J250000D01*
G01*
X89725000Y-107575000D01*
G75*
G02*
X89975000Y-107325000I250000J0D01*
G01*
X91225000Y-107325000D01*
G75*
G02*
X91475000Y-107575000I0J-250000D01*
G01*
X91475000Y-108500000D01*
G75*
G02*
X91225000Y-108750000I-250000J0D01*
G01*
G37*
G04 #@! TD.AperFunction*
G04 #@! TA.AperFunction,SMDPad,CuDef*
G36*
G01*
X69575000Y-101175000D02*
X69575000Y-102425000D01*
G75*
G02*
X69325000Y-102675000I-250000J0D01*
G01*
X68400000Y-102675000D01*
G75*
G02*
X68150000Y-102425000I0J250000D01*
G01*
X68150000Y-101175000D01*
G75*
G02*
X68400000Y-100925000I250000J0D01*
G01*
X69325000Y-100925000D01*
G75*
G02*
X69575000Y-101175000I0J-250000D01*
G01*
G37*
G04 #@! TD.AperFunction*
G04 #@! TA.AperFunction,SMDPad,CuDef*
G36*
G01*
X72550000Y-101175000D02*
X72550000Y-102425000D01*
G75*
G02*
X72300000Y-102675000I-250000J0D01*
G01*
X71375000Y-102675000D01*
G75*
G02*
X71125000Y-102425000I0J250000D01*
G01*
X71125000Y-101175000D01*
G75*
G02*
X71375000Y-100925000I250000J0D01*
G01*
X72300000Y-100925000D01*
G75*
G02*
X72550000Y-101175000I0J-250000D01*
G01*
G37*
G04 #@! TD.AperFunction*
G04 #@! TA.AperFunction,SMDPad,CuDef*
G36*
G01*
X88725000Y-105775000D02*
X87475000Y-105775000D01*
G75*
G02*
X87225000Y-105525000I0J250000D01*
G01*
X87225000Y-104600000D01*
G75*
G02*
X87475000Y-104350000I250000J0D01*
G01*
X88725000Y-104350000D01*
G75*
G02*
X88975000Y-104600000I0J-250000D01*
G01*
X88975000Y-105525000D01*
G75*
G02*
X88725000Y-105775000I-250000J0D01*
G01*
G37*
G04 #@! TD.AperFunction*
G04 #@! TA.AperFunction,SMDPad,CuDef*
G36*
G01*
X88725000Y-108750000D02*
X87475000Y-108750000D01*
G75*
G02*
X87225000Y-108500000I0J250000D01*
G01*
X87225000Y-107575000D01*
G75*
G02*
X87475000Y-107325000I250000J0D01*
G01*
X88725000Y-107325000D01*
G75*
G02*
X88975000Y-107575000I0J-250000D01*
G01*
X88975000Y-108500000D01*
G75*
G02*
X88725000Y-108750000I-250000J0D01*
G01*
G37*
G04 #@! TD.AperFunction*
G04 #@! TA.AperFunction,SMDPad,CuDef*
G36*
G01*
X56925000Y-99125000D02*
X55675000Y-99125000D01*
G75*
G02*
X55425000Y-98875000I0J250000D01*
G01*
X55425000Y-97950000D01*
G75*
G02*
X55675000Y-97700000I250000J0D01*
G01*
X56925000Y-97700000D01*
G75*
G02*
X57175000Y-97950000I0J-250000D01*
G01*
X57175000Y-98875000D01*
G75*
G02*
X56925000Y-99125000I-250000J0D01*
G01*
G37*
G04 #@! TD.AperFunction*
G04 #@! TA.AperFunction,SMDPad,CuDef*
G36*
G01*
X56925000Y-102100000D02*
X55675000Y-102100000D01*
G75*
G02*
X55425000Y-101850000I0J250000D01*
G01*
X55425000Y-100925000D01*
G75*
G02*
X55675000Y-100675000I250000J0D01*
G01*
X56925000Y-100675000D01*
G75*
G02*
X57175000Y-100925000I0J-250000D01*
G01*
X57175000Y-101850000D01*
G75*
G02*
X56925000Y-102100000I-250000J0D01*
G01*
G37*
G04 #@! TD.AperFunction*
G04 #@! TA.AperFunction,SMDPad,CuDef*
G36*
G01*
X54225000Y-92825000D02*
X54225000Y-91575000D01*
G75*
G02*
X54475000Y-91325000I250000J0D01*
G01*
X55400000Y-91325000D01*
G75*
G02*
X55650000Y-91575000I0J-250000D01*
G01*
X55650000Y-92825000D01*
G75*
G02*
X55400000Y-93075000I-250000J0D01*
G01*
X54475000Y-93075000D01*
G75*
G02*
X54225000Y-92825000I0J250000D01*
G01*
G37*
G04 #@! TD.AperFunction*
G04 #@! TA.AperFunction,SMDPad,CuDef*
G36*
G01*
X51250000Y-92825000D02*
X51250000Y-91575000D01*
G75*
G02*
X51500000Y-91325000I250000J0D01*
G01*
X52425000Y-91325000D01*
G75*
G02*
X52675000Y-91575000I0J-250000D01*
G01*
X52675000Y-92825000D01*
G75*
G02*
X52425000Y-93075000I-250000J0D01*
G01*
X51500000Y-93075000D01*
G75*
G02*
X51250000Y-92825000I0J250000D01*
G01*
G37*
G04 #@! TD.AperFunction*
G04 #@! TA.AperFunction,SMDPad,CuDef*
G36*
G01*
X62125000Y-84325000D02*
X62125000Y-83075000D01*
G75*
G02*
X62375000Y-82825000I250000J0D01*
G01*
X63300000Y-82825000D01*
G75*
G02*
X63550000Y-83075000I0J-250000D01*
G01*
X63550000Y-84325000D01*
G75*
G02*
X63300000Y-84575000I-250000J0D01*
G01*
X62375000Y-84575000D01*
G75*
G02*
X62125000Y-84325000I0J250000D01*
G01*
G37*
G04 #@! TD.AperFunction*
G04 #@! TA.AperFunction,SMDPad,CuDef*
G36*
G01*
X59150000Y-84325000D02*
X59150000Y-83075000D01*
G75*
G02*
X59400000Y-82825000I250000J0D01*
G01*
X60325000Y-82825000D01*
G75*
G02*
X60575000Y-83075000I0J-250000D01*
G01*
X60575000Y-84325000D01*
G75*
G02*
X60325000Y-84575000I-250000J0D01*
G01*
X59400000Y-84575000D01*
G75*
G02*
X59150000Y-84325000I0J250000D01*
G01*
G37*
G04 #@! TD.AperFunction*
D12*
X41340000Y-102380000D03*
X41340000Y-93620000D03*
D13*
X37900000Y-102380000D03*
X37900000Y-93620000D03*
D14*
X37900000Y-98000000D03*
D12*
X41136000Y-87916000D03*
X41136000Y-79156000D03*
D13*
X37696000Y-87916000D03*
X37696000Y-79156000D03*
D14*
X37696000Y-83536000D03*
G04 #@! TA.AperFunction,SMDPad,CuDef*
G36*
G01*
X68165000Y-118145000D02*
X68165000Y-119395000D01*
G75*
G02*
X67915000Y-119645000I-250000J0D01*
G01*
X66990000Y-119645000D01*
G75*
G02*
X66740000Y-119395000I0J250000D01*
G01*
X66740000Y-118145000D01*
G75*
G02*
X66990000Y-117895000I250000J0D01*
G01*
X67915000Y-117895000D01*
G75*
G02*
X68165000Y-118145000I0J-250000D01*
G01*
G37*
G04 #@! TD.AperFunction*
G04 #@! TA.AperFunction,SMDPad,CuDef*
G36*
G01*
X71140000Y-118145000D02*
X71140000Y-119395000D01*
G75*
G02*
X70890000Y-119645000I-250000J0D01*
G01*
X69965000Y-119645000D01*
G75*
G02*
X69715000Y-119395000I0J250000D01*
G01*
X69715000Y-118145000D01*
G75*
G02*
X69965000Y-117895000I250000J0D01*
G01*
X70890000Y-117895000D01*
G75*
G02*
X71140000Y-118145000I0J-250000D01*
G01*
G37*
G04 #@! TD.AperFunction*
G04 #@! TA.AperFunction,SMDPad,CuDef*
G36*
G01*
X61117500Y-101560000D02*
X61117500Y-101240000D01*
G75*
G02*
X61277500Y-101080000I160000J0D01*
G01*
X61722500Y-101080000D01*
G75*
G02*
X61882500Y-101240000I0J-160000D01*
G01*
X61882500Y-101560000D01*
G75*
G02*
X61722500Y-101720000I-160000J0D01*
G01*
X61277500Y-101720000D01*
G75*
G02*
X61117500Y-101560000I0J160000D01*
G01*
G37*
G04 #@! TD.AperFunction*
G04 #@! TA.AperFunction,SMDPad,CuDef*
G36*
G01*
X59972500Y-101560000D02*
X59972500Y-101240000D01*
G75*
G02*
X60132500Y-101080000I160000J0D01*
G01*
X60577500Y-101080000D01*
G75*
G02*
X60737500Y-101240000I0J-160000D01*
G01*
X60737500Y-101560000D01*
G75*
G02*
X60577500Y-101720000I-160000J0D01*
G01*
X60132500Y-101720000D01*
G75*
G02*
X59972500Y-101560000I0J160000D01*
G01*
G37*
G04 #@! TD.AperFunction*
D15*
X92000000Y-86130000D03*
X87120000Y-86130000D03*
G04 #@! TA.AperFunction,SMDPad,CuDef*
G36*
G01*
X65975000Y-91625000D02*
X66175000Y-91625000D01*
G75*
G02*
X66275000Y-91725000I0J-100000D01*
G01*
X66275000Y-93000000D01*
G75*
G02*
X66175000Y-93100000I-100000J0D01*
G01*
X65975000Y-93100000D01*
G75*
G02*
X65875000Y-93000000I0J100000D01*
G01*
X65875000Y-91725000D01*
G75*
G02*
X65975000Y-91625000I100000J0D01*
G01*
G37*
G04 #@! TD.AperFunction*
G04 #@! TA.AperFunction,SMDPad,CuDef*
G36*
G01*
X65325000Y-91625000D02*
X65525000Y-91625000D01*
G75*
G02*
X65625000Y-91725000I0J-100000D01*
G01*
X65625000Y-93000000D01*
G75*
G02*
X65525000Y-93100000I-100000J0D01*
G01*
X65325000Y-93100000D01*
G75*
G02*
X65225000Y-93000000I0J100000D01*
G01*
X65225000Y-91725000D01*
G75*
G02*
X65325000Y-91625000I100000J0D01*
G01*
G37*
G04 #@! TD.AperFunction*
G04 #@! TA.AperFunction,SMDPad,CuDef*
G36*
G01*
X64675000Y-91625000D02*
X64875000Y-91625000D01*
G75*
G02*
X64975000Y-91725000I0J-100000D01*
G01*
X64975000Y-93000000D01*
G75*
G02*
X64875000Y-93100000I-100000J0D01*
G01*
X64675000Y-93100000D01*
G75*
G02*
X64575000Y-93000000I0J100000D01*
G01*
X64575000Y-91725000D01*
G75*
G02*
X64675000Y-91625000I100000J0D01*
G01*
G37*
G04 #@! TD.AperFunction*
G04 #@! TA.AperFunction,SMDPad,CuDef*
G36*
G01*
X64025000Y-91625000D02*
X64225000Y-91625000D01*
G75*
G02*
X64325000Y-91725000I0J-100000D01*
G01*
X64325000Y-93000000D01*
G75*
G02*
X64225000Y-93100000I-100000J0D01*
G01*
X64025000Y-93100000D01*
G75*
G02*
X63925000Y-93000000I0J100000D01*
G01*
X63925000Y-91725000D01*
G75*
G02*
X64025000Y-91625000I100000J0D01*
G01*
G37*
G04 #@! TD.AperFunction*
G04 #@! TA.AperFunction,SMDPad,CuDef*
G36*
G01*
X63375000Y-91625000D02*
X63575000Y-91625000D01*
G75*
G02*
X63675000Y-91725000I0J-100000D01*
G01*
X63675000Y-93000000D01*
G75*
G02*
X63575000Y-93100000I-100000J0D01*
G01*
X63375000Y-93100000D01*
G75*
G02*
X63275000Y-93000000I0J100000D01*
G01*
X63275000Y-91725000D01*
G75*
G02*
X63375000Y-91625000I100000J0D01*
G01*
G37*
G04 #@! TD.AperFunction*
G04 #@! TA.AperFunction,SMDPad,CuDef*
G36*
G01*
X62725000Y-91625000D02*
X62925000Y-91625000D01*
G75*
G02*
X63025000Y-91725000I0J-100000D01*
G01*
X63025000Y-93000000D01*
G75*
G02*
X62925000Y-93100000I-100000J0D01*
G01*
X62725000Y-93100000D01*
G75*
G02*
X62625000Y-93000000I0J100000D01*
G01*
X62625000Y-91725000D01*
G75*
G02*
X62725000Y-91625000I100000J0D01*
G01*
G37*
G04 #@! TD.AperFunction*
G04 #@! TA.AperFunction,SMDPad,CuDef*
G36*
G01*
X62075000Y-91625000D02*
X62275000Y-91625000D01*
G75*
G02*
X62375000Y-91725000I0J-100000D01*
G01*
X62375000Y-93000000D01*
G75*
G02*
X62275000Y-93100000I-100000J0D01*
G01*
X62075000Y-93100000D01*
G75*
G02*
X61975000Y-93000000I0J100000D01*
G01*
X61975000Y-91725000D01*
G75*
G02*
X62075000Y-91625000I100000J0D01*
G01*
G37*
G04 #@! TD.AperFunction*
G04 #@! TA.AperFunction,SMDPad,CuDef*
G36*
G01*
X61425000Y-91625000D02*
X61625000Y-91625000D01*
G75*
G02*
X61725000Y-91725000I0J-100000D01*
G01*
X61725000Y-93000000D01*
G75*
G02*
X61625000Y-93100000I-100000J0D01*
G01*
X61425000Y-93100000D01*
G75*
G02*
X61325000Y-93000000I0J100000D01*
G01*
X61325000Y-91725000D01*
G75*
G02*
X61425000Y-91625000I100000J0D01*
G01*
G37*
G04 #@! TD.AperFunction*
G04 #@! TA.AperFunction,SMDPad,CuDef*
G36*
G01*
X61425000Y-85900000D02*
X61625000Y-85900000D01*
G75*
G02*
X61725000Y-86000000I0J-100000D01*
G01*
X61725000Y-87275000D01*
G75*
G02*
X61625000Y-87375000I-100000J0D01*
G01*
X61425000Y-87375000D01*
G75*
G02*
X61325000Y-87275000I0J100000D01*
G01*
X61325000Y-86000000D01*
G75*
G02*
X61425000Y-85900000I100000J0D01*
G01*
G37*
G04 #@! TD.AperFunction*
G04 #@! TA.AperFunction,SMDPad,CuDef*
G36*
G01*
X62075000Y-85900000D02*
X62275000Y-85900000D01*
G75*
G02*
X62375000Y-86000000I0J-100000D01*
G01*
X62375000Y-87275000D01*
G75*
G02*
X62275000Y-87375000I-100000J0D01*
G01*
X62075000Y-87375000D01*
G75*
G02*
X61975000Y-87275000I0J100000D01*
G01*
X61975000Y-86000000D01*
G75*
G02*
X62075000Y-85900000I100000J0D01*
G01*
G37*
G04 #@! TD.AperFunction*
G04 #@! TA.AperFunction,SMDPad,CuDef*
G36*
G01*
X62725000Y-85900000D02*
X62925000Y-85900000D01*
G75*
G02*
X63025000Y-86000000I0J-100000D01*
G01*
X63025000Y-87275000D01*
G75*
G02*
X62925000Y-87375000I-100000J0D01*
G01*
X62725000Y-87375000D01*
G75*
G02*
X62625000Y-87275000I0J100000D01*
G01*
X62625000Y-86000000D01*
G75*
G02*
X62725000Y-85900000I100000J0D01*
G01*
G37*
G04 #@! TD.AperFunction*
G04 #@! TA.AperFunction,SMDPad,CuDef*
G36*
G01*
X63375000Y-85900000D02*
X63575000Y-85900000D01*
G75*
G02*
X63675000Y-86000000I0J-100000D01*
G01*
X63675000Y-87275000D01*
G75*
G02*
X63575000Y-87375000I-100000J0D01*
G01*
X63375000Y-87375000D01*
G75*
G02*
X63275000Y-87275000I0J100000D01*
G01*
X63275000Y-86000000D01*
G75*
G02*
X63375000Y-85900000I100000J0D01*
G01*
G37*
G04 #@! TD.AperFunction*
G04 #@! TA.AperFunction,SMDPad,CuDef*
G36*
G01*
X64025000Y-85900000D02*
X64225000Y-85900000D01*
G75*
G02*
X64325000Y-86000000I0J-100000D01*
G01*
X64325000Y-87275000D01*
G75*
G02*
X64225000Y-87375000I-100000J0D01*
G01*
X64025000Y-87375000D01*
G75*
G02*
X63925000Y-87275000I0J100000D01*
G01*
X63925000Y-86000000D01*
G75*
G02*
X64025000Y-85900000I100000J0D01*
G01*
G37*
G04 #@! TD.AperFunction*
G04 #@! TA.AperFunction,SMDPad,CuDef*
G36*
G01*
X64675000Y-85900000D02*
X64875000Y-85900000D01*
G75*
G02*
X64975000Y-86000000I0J-100000D01*
G01*
X64975000Y-87275000D01*
G75*
G02*
X64875000Y-87375000I-100000J0D01*
G01*
X64675000Y-87375000D01*
G75*
G02*
X64575000Y-87275000I0J100000D01*
G01*
X64575000Y-86000000D01*
G75*
G02*
X64675000Y-85900000I100000J0D01*
G01*
G37*
G04 #@! TD.AperFunction*
G04 #@! TA.AperFunction,SMDPad,CuDef*
G36*
G01*
X65325000Y-85900000D02*
X65525000Y-85900000D01*
G75*
G02*
X65625000Y-86000000I0J-100000D01*
G01*
X65625000Y-87275000D01*
G75*
G02*
X65525000Y-87375000I-100000J0D01*
G01*
X65325000Y-87375000D01*
G75*
G02*
X65225000Y-87275000I0J100000D01*
G01*
X65225000Y-86000000D01*
G75*
G02*
X65325000Y-85900000I100000J0D01*
G01*
G37*
G04 #@! TD.AperFunction*
G04 #@! TA.AperFunction,SMDPad,CuDef*
G36*
G01*
X65975000Y-85900000D02*
X66175000Y-85900000D01*
G75*
G02*
X66275000Y-86000000I0J-100000D01*
G01*
X66275000Y-87275000D01*
G75*
G02*
X66175000Y-87375000I-100000J0D01*
G01*
X65975000Y-87375000D01*
G75*
G02*
X65875000Y-87275000I0J100000D01*
G01*
X65875000Y-86000000D01*
G75*
G02*
X65975000Y-85900000I100000J0D01*
G01*
G37*
G04 #@! TD.AperFunction*
G04 #@! TA.AperFunction,SMDPad,CuDef*
G36*
G01*
X78700000Y-121255000D02*
X78700000Y-121055000D01*
G75*
G02*
X78800000Y-120955000I100000J0D01*
G01*
X80225000Y-120955000D01*
G75*
G02*
X80325000Y-121055000I0J-100000D01*
G01*
X80325000Y-121255000D01*
G75*
G02*
X80225000Y-121355000I-100000J0D01*
G01*
X78800000Y-121355000D01*
G75*
G02*
X78700000Y-121255000I0J100000D01*
G01*
G37*
G04 #@! TD.AperFunction*
G04 #@! TA.AperFunction,SMDPad,CuDef*
G36*
G01*
X78700000Y-121905000D02*
X78700000Y-121705000D01*
G75*
G02*
X78800000Y-121605000I100000J0D01*
G01*
X80225000Y-121605000D01*
G75*
G02*
X80325000Y-121705000I0J-100000D01*
G01*
X80325000Y-121905000D01*
G75*
G02*
X80225000Y-122005000I-100000J0D01*
G01*
X78800000Y-122005000D01*
G75*
G02*
X78700000Y-121905000I0J100000D01*
G01*
G37*
G04 #@! TD.AperFunction*
G04 #@! TA.AperFunction,SMDPad,CuDef*
G36*
G01*
X78700000Y-122555000D02*
X78700000Y-122355000D01*
G75*
G02*
X78800000Y-122255000I100000J0D01*
G01*
X80225000Y-122255000D01*
G75*
G02*
X80325000Y-122355000I0J-100000D01*
G01*
X80325000Y-122555000D01*
G75*
G02*
X80225000Y-122655000I-100000J0D01*
G01*
X78800000Y-122655000D01*
G75*
G02*
X78700000Y-122555000I0J100000D01*
G01*
G37*
G04 #@! TD.AperFunction*
G04 #@! TA.AperFunction,SMDPad,CuDef*
G36*
G01*
X78700000Y-123205000D02*
X78700000Y-123005000D01*
G75*
G02*
X78800000Y-122905000I100000J0D01*
G01*
X80225000Y-122905000D01*
G75*
G02*
X80325000Y-123005000I0J-100000D01*
G01*
X80325000Y-123205000D01*
G75*
G02*
X80225000Y-123305000I-100000J0D01*
G01*
X78800000Y-123305000D01*
G75*
G02*
X78700000Y-123205000I0J100000D01*
G01*
G37*
G04 #@! TD.AperFunction*
G04 #@! TA.AperFunction,SMDPad,CuDef*
G36*
G01*
X74475000Y-123205000D02*
X74475000Y-123005000D01*
G75*
G02*
X74575000Y-122905000I100000J0D01*
G01*
X76000000Y-122905000D01*
G75*
G02*
X76100000Y-123005000I0J-100000D01*
G01*
X76100000Y-123205000D01*
G75*
G02*
X76000000Y-123305000I-100000J0D01*
G01*
X74575000Y-123305000D01*
G75*
G02*
X74475000Y-123205000I0J100000D01*
G01*
G37*
G04 #@! TD.AperFunction*
G04 #@! TA.AperFunction,SMDPad,CuDef*
G36*
G01*
X74475000Y-122555000D02*
X74475000Y-122355000D01*
G75*
G02*
X74575000Y-122255000I100000J0D01*
G01*
X76000000Y-122255000D01*
G75*
G02*
X76100000Y-122355000I0J-100000D01*
G01*
X76100000Y-122555000D01*
G75*
G02*
X76000000Y-122655000I-100000J0D01*
G01*
X74575000Y-122655000D01*
G75*
G02*
X74475000Y-122555000I0J100000D01*
G01*
G37*
G04 #@! TD.AperFunction*
G04 #@! TA.AperFunction,SMDPad,CuDef*
G36*
G01*
X74475000Y-121905000D02*
X74475000Y-121705000D01*
G75*
G02*
X74575000Y-121605000I100000J0D01*
G01*
X76000000Y-121605000D01*
G75*
G02*
X76100000Y-121705000I0J-100000D01*
G01*
X76100000Y-121905000D01*
G75*
G02*
X76000000Y-122005000I-100000J0D01*
G01*
X74575000Y-122005000D01*
G75*
G02*
X74475000Y-121905000I0J100000D01*
G01*
G37*
G04 #@! TD.AperFunction*
G04 #@! TA.AperFunction,SMDPad,CuDef*
G36*
G01*
X74475000Y-121255000D02*
X74475000Y-121055000D01*
G75*
G02*
X74575000Y-120955000I100000J0D01*
G01*
X76000000Y-120955000D01*
G75*
G02*
X76100000Y-121055000I0J-100000D01*
G01*
X76100000Y-121255000D01*
G75*
G02*
X76000000Y-121355000I-100000J0D01*
G01*
X74575000Y-121355000D01*
G75*
G02*
X74475000Y-121255000I0J100000D01*
G01*
G37*
G04 #@! TD.AperFunction*
G04 #@! TA.AperFunction,SMDPad,CuDef*
G36*
G01*
X86005000Y-91420000D02*
X85705000Y-91420000D01*
G75*
G02*
X85555000Y-91270000I0J150000D01*
G01*
X85555000Y-89820000D01*
G75*
G02*
X85705000Y-89670000I150000J0D01*
G01*
X86005000Y-89670000D01*
G75*
G02*
X86155000Y-89820000I0J-150000D01*
G01*
X86155000Y-91270000D01*
G75*
G02*
X86005000Y-91420000I-150000J0D01*
G01*
G37*
G04 #@! TD.AperFunction*
G04 #@! TA.AperFunction,SMDPad,CuDef*
G36*
G01*
X87275000Y-91420000D02*
X86975000Y-91420000D01*
G75*
G02*
X86825000Y-91270000I0J150000D01*
G01*
X86825000Y-89820000D01*
G75*
G02*
X86975000Y-89670000I150000J0D01*
G01*
X87275000Y-89670000D01*
G75*
G02*
X87425000Y-89820000I0J-150000D01*
G01*
X87425000Y-91270000D01*
G75*
G02*
X87275000Y-91420000I-150000J0D01*
G01*
G37*
G04 #@! TD.AperFunction*
G04 #@! TA.AperFunction,SMDPad,CuDef*
G36*
G01*
X88545000Y-91420000D02*
X88245000Y-91420000D01*
G75*
G02*
X88095000Y-91270000I0J150000D01*
G01*
X88095000Y-89820000D01*
G75*
G02*
X88245000Y-89670000I150000J0D01*
G01*
X88545000Y-89670000D01*
G75*
G02*
X88695000Y-89820000I0J-150000D01*
G01*
X88695000Y-91270000D01*
G75*
G02*
X88545000Y-91420000I-150000J0D01*
G01*
G37*
G04 #@! TD.AperFunction*
G04 #@! TA.AperFunction,SMDPad,CuDef*
G36*
G01*
X89815000Y-91420000D02*
X89515000Y-91420000D01*
G75*
G02*
X89365000Y-91270000I0J150000D01*
G01*
X89365000Y-89820000D01*
G75*
G02*
X89515000Y-89670000I150000J0D01*
G01*
X89815000Y-89670000D01*
G75*
G02*
X89965000Y-89820000I0J-150000D01*
G01*
X89965000Y-91270000D01*
G75*
G02*
X89815000Y-91420000I-150000J0D01*
G01*
G37*
G04 #@! TD.AperFunction*
G04 #@! TA.AperFunction,SMDPad,CuDef*
G36*
G01*
X89815000Y-96570000D02*
X89515000Y-96570000D01*
G75*
G02*
X89365000Y-96420000I0J150000D01*
G01*
X89365000Y-94970000D01*
G75*
G02*
X89515000Y-94820000I150000J0D01*
G01*
X89815000Y-94820000D01*
G75*
G02*
X89965000Y-94970000I0J-150000D01*
G01*
X89965000Y-96420000D01*
G75*
G02*
X89815000Y-96570000I-150000J0D01*
G01*
G37*
G04 #@! TD.AperFunction*
G04 #@! TA.AperFunction,SMDPad,CuDef*
G36*
G01*
X88545000Y-96570000D02*
X88245000Y-96570000D01*
G75*
G02*
X88095000Y-96420000I0J150000D01*
G01*
X88095000Y-94970000D01*
G75*
G02*
X88245000Y-94820000I150000J0D01*
G01*
X88545000Y-94820000D01*
G75*
G02*
X88695000Y-94970000I0J-150000D01*
G01*
X88695000Y-96420000D01*
G75*
G02*
X88545000Y-96570000I-150000J0D01*
G01*
G37*
G04 #@! TD.AperFunction*
G04 #@! TA.AperFunction,SMDPad,CuDef*
G36*
G01*
X87275000Y-96570000D02*
X86975000Y-96570000D01*
G75*
G02*
X86825000Y-96420000I0J150000D01*
G01*
X86825000Y-94970000D01*
G75*
G02*
X86975000Y-94820000I150000J0D01*
G01*
X87275000Y-94820000D01*
G75*
G02*
X87425000Y-94970000I0J-150000D01*
G01*
X87425000Y-96420000D01*
G75*
G02*
X87275000Y-96570000I-150000J0D01*
G01*
G37*
G04 #@! TD.AperFunction*
G04 #@! TA.AperFunction,SMDPad,CuDef*
G36*
G01*
X86005000Y-96570000D02*
X85705000Y-96570000D01*
G75*
G02*
X85555000Y-96420000I0J150000D01*
G01*
X85555000Y-94970000D01*
G75*
G02*
X85705000Y-94820000I150000J0D01*
G01*
X86005000Y-94820000D01*
G75*
G02*
X86155000Y-94970000I0J-150000D01*
G01*
X86155000Y-96420000D01*
G75*
G02*
X86005000Y-96570000I-150000J0D01*
G01*
G37*
G04 #@! TD.AperFunction*
D16*
X47300000Y-97000000D03*
D17*
X51872000Y-100810000D03*
X51872000Y-98270000D03*
X51872000Y-95730000D03*
X46792000Y-100810000D03*
X46792000Y-98270000D03*
X46792000Y-95730000D03*
D18*
X53523000Y-100810000D03*
X45141000Y-98270000D03*
X45141000Y-95730000D03*
D19*
X51364000Y-100810000D03*
D18*
X49332000Y-100810000D03*
X49332000Y-99540000D03*
X49332000Y-98270000D03*
X49332000Y-97000000D03*
X49332000Y-95730000D03*
D20*
X49332000Y-98270000D03*
D10*
X60720000Y-111720000D03*
D11*
X60720000Y-109180000D03*
X67700000Y-98700000D03*
D10*
X85100000Y-110940000D03*
D11*
X85100000Y-108400000D03*
D10*
X90600000Y-102200000D03*
D11*
X88060000Y-102200000D03*
X54000000Y-104400000D03*
X56300000Y-95600000D03*
X71700000Y-98700000D03*
X49000000Y-91500000D03*
X57900000Y-91800000D03*
X61400000Y-80600000D03*
X56900000Y-80800000D03*
D21*
X51570000Y-117550000D03*
X51570000Y-118850000D03*
X49670000Y-118200000D03*
X51570000Y-118200000D03*
X49670000Y-118850000D03*
X49670000Y-117550000D03*
D22*
X79700000Y-100850000D03*
X77700000Y-101800000D03*
X77700000Y-99900000D03*
G04 #@! TA.AperFunction,SMDPad,CuDef*
G36*
G01*
X51635000Y-121745000D02*
X49485000Y-121745000D01*
G75*
G02*
X49235000Y-121495000I0J250000D01*
G01*
X49235000Y-120570000D01*
G75*
G02*
X49485000Y-120320000I250000J0D01*
G01*
X51635000Y-120320000D01*
G75*
G02*
X51885000Y-120570000I0J-250000D01*
G01*
X51885000Y-121495000D01*
G75*
G02*
X51635000Y-121745000I-250000J0D01*
G01*
G37*
G04 #@! TD.AperFunction*
G04 #@! TA.AperFunction,SMDPad,CuDef*
G36*
G01*
X51635000Y-124720000D02*
X49485000Y-124720000D01*
G75*
G02*
X49235000Y-124470000I0J250000D01*
G01*
X49235000Y-123545000D01*
G75*
G02*
X49485000Y-123295000I250000J0D01*
G01*
X51635000Y-123295000D01*
G75*
G02*
X51885000Y-123545000I0J-250000D01*
G01*
X51885000Y-124470000D01*
G75*
G02*
X51635000Y-124720000I-250000J0D01*
G01*
G37*
G04 #@! TD.AperFunction*
G04 #@! TA.AperFunction,SMDPad,CuDef*
G36*
G01*
X52885000Y-123305000D02*
X55035000Y-123305000D01*
G75*
G02*
X55285000Y-123555000I0J-250000D01*
G01*
X55285000Y-124480000D01*
G75*
G02*
X55035000Y-124730000I-250000J0D01*
G01*
X52885000Y-124730000D01*
G75*
G02*
X52635000Y-124480000I0J250000D01*
G01*
X52635000Y-123555000D01*
G75*
G02*
X52885000Y-123305000I250000J0D01*
G01*
G37*
G04 #@! TD.AperFunction*
G04 #@! TA.AperFunction,SMDPad,CuDef*
G36*
G01*
X52885000Y-120330000D02*
X55035000Y-120330000D01*
G75*
G02*
X55285000Y-120580000I0J-250000D01*
G01*
X55285000Y-121505000D01*
G75*
G02*
X55035000Y-121755000I-250000J0D01*
G01*
X52885000Y-121755000D01*
G75*
G02*
X52635000Y-121505000I0J250000D01*
G01*
X52635000Y-120580000D01*
G75*
G02*
X52885000Y-120330000I250000J0D01*
G01*
G37*
G04 #@! TD.AperFunction*
G04 #@! TA.AperFunction,SMDPad,CuDef*
G36*
G01*
X64225000Y-113587500D02*
X66375000Y-113587500D01*
G75*
G02*
X66625000Y-113837500I0J-250000D01*
G01*
X66625000Y-114762500D01*
G75*
G02*
X66375000Y-115012500I-250000J0D01*
G01*
X64225000Y-115012500D01*
G75*
G02*
X63975000Y-114762500I0J250000D01*
G01*
X63975000Y-113837500D01*
G75*
G02*
X64225000Y-113587500I250000J0D01*
G01*
G37*
G04 #@! TD.AperFunction*
G04 #@! TA.AperFunction,SMDPad,CuDef*
G36*
G01*
X64225000Y-110612500D02*
X66375000Y-110612500D01*
G75*
G02*
X66625000Y-110862500I0J-250000D01*
G01*
X66625000Y-111787500D01*
G75*
G02*
X66375000Y-112037500I-250000J0D01*
G01*
X64225000Y-112037500D01*
G75*
G02*
X63975000Y-111787500I0J250000D01*
G01*
X63975000Y-110862500D01*
G75*
G02*
X64225000Y-110612500I250000J0D01*
G01*
G37*
G04 #@! TD.AperFunction*
G04 #@! TA.AperFunction,SMDPad,CuDef*
G36*
G01*
X64225000Y-108887500D02*
X66375000Y-108887500D01*
G75*
G02*
X66625000Y-109137500I0J-250000D01*
G01*
X66625000Y-110062500D01*
G75*
G02*
X66375000Y-110312500I-250000J0D01*
G01*
X64225000Y-110312500D01*
G75*
G02*
X63975000Y-110062500I0J250000D01*
G01*
X63975000Y-109137500D01*
G75*
G02*
X64225000Y-108887500I250000J0D01*
G01*
G37*
G04 #@! TD.AperFunction*
G04 #@! TA.AperFunction,SMDPad,CuDef*
G36*
G01*
X64225000Y-105912500D02*
X66375000Y-105912500D01*
G75*
G02*
X66625000Y-106162500I0J-250000D01*
G01*
X66625000Y-107087500D01*
G75*
G02*
X66375000Y-107337500I-250000J0D01*
G01*
X64225000Y-107337500D01*
G75*
G02*
X63975000Y-107087500I0J250000D01*
G01*
X63975000Y-106162500D01*
G75*
G02*
X64225000Y-105912500I250000J0D01*
G01*
G37*
G04 #@! TD.AperFunction*
G04 #@! TA.AperFunction,SMDPad,CuDef*
G36*
G01*
X69249999Y-111475000D02*
X70150001Y-111475000D01*
G75*
G02*
X70400000Y-111724999I0J-249999D01*
G01*
X70400000Y-112375001D01*
G75*
G02*
X70150001Y-112625000I-249999J0D01*
G01*
X69249999Y-112625000D01*
G75*
G02*
X69000000Y-112375001I0J249999D01*
G01*
X69000000Y-111724999D01*
G75*
G02*
X69249999Y-111475000I249999J0D01*
G01*
G37*
G04 #@! TD.AperFunction*
G04 #@! TA.AperFunction,SMDPad,CuDef*
G36*
G01*
X69249999Y-109425000D02*
X70150001Y-109425000D01*
G75*
G02*
X70400000Y-109674999I0J-249999D01*
G01*
X70400000Y-110325001D01*
G75*
G02*
X70150001Y-110575000I-249999J0D01*
G01*
X69249999Y-110575000D01*
G75*
G02*
X69000000Y-110325001I0J249999D01*
G01*
X69000000Y-109674999D01*
G75*
G02*
X69249999Y-109425000I249999J0D01*
G01*
G37*
G04 #@! TD.AperFunction*
G04 #@! TA.AperFunction,SMDPad,CuDef*
G36*
G01*
X72537500Y-110925000D02*
X72537500Y-113075000D01*
G75*
G02*
X72287500Y-113325000I-250000J0D01*
G01*
X71362500Y-113325000D01*
G75*
G02*
X71112500Y-113075000I0J250000D01*
G01*
X71112500Y-110925000D01*
G75*
G02*
X71362500Y-110675000I250000J0D01*
G01*
X72287500Y-110675000D01*
G75*
G02*
X72537500Y-110925000I0J-250000D01*
G01*
G37*
G04 #@! TD.AperFunction*
G04 #@! TA.AperFunction,SMDPad,CuDef*
G36*
G01*
X75512500Y-110925000D02*
X75512500Y-113075000D01*
G75*
G02*
X75262500Y-113325000I-250000J0D01*
G01*
X74337500Y-113325000D01*
G75*
G02*
X74087500Y-113075000I0J250000D01*
G01*
X74087500Y-110925000D01*
G75*
G02*
X74337500Y-110675000I250000J0D01*
G01*
X75262500Y-110675000D01*
G75*
G02*
X75512500Y-110925000I0J-250000D01*
G01*
G37*
G04 #@! TD.AperFunction*
G04 #@! TA.AperFunction,SMDPad,CuDef*
G36*
G01*
X72637500Y-106225000D02*
X72637500Y-108375000D01*
G75*
G02*
X72387500Y-108625000I-250000J0D01*
G01*
X71462500Y-108625000D01*
G75*
G02*
X71212500Y-108375000I0J250000D01*
G01*
X71212500Y-106225000D01*
G75*
G02*
X71462500Y-105975000I250000J0D01*
G01*
X72387500Y-105975000D01*
G75*
G02*
X72637500Y-106225000I0J-250000D01*
G01*
G37*
G04 #@! TD.AperFunction*
G04 #@! TA.AperFunction,SMDPad,CuDef*
G36*
G01*
X75612500Y-106225000D02*
X75612500Y-108375000D01*
G75*
G02*
X75362500Y-108625000I-250000J0D01*
G01*
X74437500Y-108625000D01*
G75*
G02*
X74187500Y-108375000I0J250000D01*
G01*
X74187500Y-106225000D01*
G75*
G02*
X74437500Y-105975000I250000J0D01*
G01*
X75362500Y-105975000D01*
G75*
G02*
X75612500Y-106225000I0J-250000D01*
G01*
G37*
G04 #@! TD.AperFunction*
G04 #@! TA.AperFunction,SMDPad,CuDef*
G36*
G01*
X80925000Y-112149999D02*
X80925000Y-113050001D01*
G75*
G02*
X80675001Y-113300000I-249999J0D01*
G01*
X80024999Y-113300000D01*
G75*
G02*
X79775000Y-113050001I0J249999D01*
G01*
X79775000Y-112149999D01*
G75*
G02*
X80024999Y-111900000I249999J0D01*
G01*
X80675001Y-111900000D01*
G75*
G02*
X80925000Y-112149999I0J-249999D01*
G01*
G37*
G04 #@! TD.AperFunction*
G04 #@! TA.AperFunction,SMDPad,CuDef*
G36*
G01*
X82975000Y-112149999D02*
X82975000Y-113050001D01*
G75*
G02*
X82725001Y-113300000I-249999J0D01*
G01*
X82074999Y-113300000D01*
G75*
G02*
X81825000Y-113050001I0J249999D01*
G01*
X81825000Y-112149999D01*
G75*
G02*
X82074999Y-111900000I249999J0D01*
G01*
X82725001Y-111900000D01*
G75*
G02*
X82975000Y-112149999I0J-249999D01*
G01*
G37*
G04 #@! TD.AperFunction*
G04 #@! TA.AperFunction,SMDPad,CuDef*
G36*
G01*
X80975000Y-106249999D02*
X80975000Y-107150001D01*
G75*
G02*
X80725001Y-107400000I-249999J0D01*
G01*
X80074999Y-107400000D01*
G75*
G02*
X79825000Y-107150001I0J249999D01*
G01*
X79825000Y-106249999D01*
G75*
G02*
X80074999Y-106000000I249999J0D01*
G01*
X80725001Y-106000000D01*
G75*
G02*
X80975000Y-106249999I0J-249999D01*
G01*
G37*
G04 #@! TD.AperFunction*
G04 #@! TA.AperFunction,SMDPad,CuDef*
G36*
G01*
X83025000Y-106249999D02*
X83025000Y-107150001D01*
G75*
G02*
X82775001Y-107400000I-249999J0D01*
G01*
X82124999Y-107400000D01*
G75*
G02*
X81875000Y-107150001I0J249999D01*
G01*
X81875000Y-106249999D01*
G75*
G02*
X82124999Y-106000000I249999J0D01*
G01*
X82775001Y-106000000D01*
G75*
G02*
X83025000Y-106249999I0J-249999D01*
G01*
G37*
G04 #@! TD.AperFunction*
G04 #@! TA.AperFunction,SMDPad,CuDef*
G36*
G01*
X76225000Y-103549999D02*
X76225000Y-104450001D01*
G75*
G02*
X75975001Y-104700000I-249999J0D01*
G01*
X75324999Y-104700000D01*
G75*
G02*
X75075000Y-104450001I0J249999D01*
G01*
X75075000Y-103549999D01*
G75*
G02*
X75324999Y-103300000I249999J0D01*
G01*
X75975001Y-103300000D01*
G75*
G02*
X76225000Y-103549999I0J-249999D01*
G01*
G37*
G04 #@! TD.AperFunction*
G04 #@! TA.AperFunction,SMDPad,CuDef*
G36*
G01*
X78275000Y-103549999D02*
X78275000Y-104450001D01*
G75*
G02*
X78025001Y-104700000I-249999J0D01*
G01*
X77374999Y-104700000D01*
G75*
G02*
X77125000Y-104450001I0J249999D01*
G01*
X77125000Y-103549999D01*
G75*
G02*
X77374999Y-103300000I249999J0D01*
G01*
X78025001Y-103300000D01*
G75*
G02*
X78275000Y-103549999I0J-249999D01*
G01*
G37*
G04 #@! TD.AperFunction*
G04 #@! TA.AperFunction,SMDPad,CuDef*
G36*
G01*
X78125000Y-97287500D02*
X80275000Y-97287500D01*
G75*
G02*
X80525000Y-97537500I0J-250000D01*
G01*
X80525000Y-98462500D01*
G75*
G02*
X80275000Y-98712500I-250000J0D01*
G01*
X78125000Y-98712500D01*
G75*
G02*
X77875000Y-98462500I0J250000D01*
G01*
X77875000Y-97537500D01*
G75*
G02*
X78125000Y-97287500I250000J0D01*
G01*
G37*
G04 #@! TD.AperFunction*
G04 #@! TA.AperFunction,SMDPad,CuDef*
G36*
G01*
X78125000Y-94312500D02*
X80275000Y-94312500D01*
G75*
G02*
X80525000Y-94562500I0J-250000D01*
G01*
X80525000Y-95487500D01*
G75*
G02*
X80275000Y-95737500I-250000J0D01*
G01*
X78125000Y-95737500D01*
G75*
G02*
X77875000Y-95487500I0J250000D01*
G01*
X77875000Y-94562500D01*
G75*
G02*
X78125000Y-94312500I250000J0D01*
G01*
G37*
G04 #@! TD.AperFunction*
G04 #@! TA.AperFunction,SMDPad,CuDef*
G36*
G01*
X64662500Y-102625000D02*
X65137500Y-102625000D01*
G75*
G02*
X65375000Y-102862500I0J-237500D01*
G01*
X65375000Y-103437500D01*
G75*
G02*
X65137500Y-103675000I-237500J0D01*
G01*
X64662500Y-103675000D01*
G75*
G02*
X64425000Y-103437500I0J237500D01*
G01*
X64425000Y-102862500D01*
G75*
G02*
X64662500Y-102625000I237500J0D01*
G01*
G37*
G04 #@! TD.AperFunction*
G04 #@! TA.AperFunction,SMDPad,CuDef*
G36*
G01*
X64662500Y-100875000D02*
X65137500Y-100875000D01*
G75*
G02*
X65375000Y-101112500I0J-237500D01*
G01*
X65375000Y-101687500D01*
G75*
G02*
X65137500Y-101925000I-237500J0D01*
G01*
X64662500Y-101925000D01*
G75*
G02*
X64425000Y-101687500I0J237500D01*
G01*
X64425000Y-101112500D01*
G75*
G02*
X64662500Y-100875000I237500J0D01*
G01*
G37*
G04 #@! TD.AperFunction*
G04 #@! TA.AperFunction,SMDPad,CuDef*
G36*
G01*
X64275000Y-98137500D02*
X64275000Y-97662500D01*
G75*
G02*
X64512500Y-97425000I237500J0D01*
G01*
X65087500Y-97425000D01*
G75*
G02*
X65325000Y-97662500I0J-237500D01*
G01*
X65325000Y-98137500D01*
G75*
G02*
X65087500Y-98375000I-237500J0D01*
G01*
X64512500Y-98375000D01*
G75*
G02*
X64275000Y-98137500I0J237500D01*
G01*
G37*
G04 #@! TD.AperFunction*
G04 #@! TA.AperFunction,SMDPad,CuDef*
G36*
G01*
X62525000Y-98137500D02*
X62525000Y-97662500D01*
G75*
G02*
X62762500Y-97425000I237500J0D01*
G01*
X63337500Y-97425000D01*
G75*
G02*
X63575000Y-97662500I0J-237500D01*
G01*
X63575000Y-98137500D01*
G75*
G02*
X63337500Y-98375000I-237500J0D01*
G01*
X62762500Y-98375000D01*
G75*
G02*
X62525000Y-98137500I0J237500D01*
G01*
G37*
G04 #@! TD.AperFunction*
G04 #@! TA.AperFunction,SMDPad,CuDef*
G36*
G01*
X56562500Y-104375000D02*
X57037500Y-104375000D01*
G75*
G02*
X57275000Y-104612500I0J-237500D01*
G01*
X57275000Y-105187500D01*
G75*
G02*
X57037500Y-105425000I-237500J0D01*
G01*
X56562500Y-105425000D01*
G75*
G02*
X56325000Y-105187500I0J237500D01*
G01*
X56325000Y-104612500D01*
G75*
G02*
X56562500Y-104375000I237500J0D01*
G01*
G37*
G04 #@! TD.AperFunction*
G04 #@! TA.AperFunction,SMDPad,CuDef*
G36*
G01*
X56562500Y-102625000D02*
X57037500Y-102625000D01*
G75*
G02*
X57275000Y-102862500I0J-237500D01*
G01*
X57275000Y-103437500D01*
G75*
G02*
X57037500Y-103675000I-237500J0D01*
G01*
X56562500Y-103675000D01*
G75*
G02*
X56325000Y-103437500I0J237500D01*
G01*
X56325000Y-102862500D01*
G75*
G02*
X56562500Y-102625000I237500J0D01*
G01*
G37*
G04 #@! TD.AperFunction*
D10*
X74900000Y-78900000D03*
D11*
X74900000Y-81440000D03*
D10*
X69540000Y-81800000D03*
D11*
X67000000Y-81800000D03*
D10*
X61060000Y-95300000D03*
D11*
X63600000Y-95300000D03*
G04 #@! TA.AperFunction,SMDPad,CuDef*
G36*
G01*
X67460000Y-79160001D02*
X67460000Y-78259999D01*
G75*
G02*
X67709999Y-78010000I249999J0D01*
G01*
X68360001Y-78010000D01*
G75*
G02*
X68610000Y-78259999I0J-249999D01*
G01*
X68610000Y-79160001D01*
G75*
G02*
X68360001Y-79410000I-249999J0D01*
G01*
X67709999Y-79410000D01*
G75*
G02*
X67460000Y-79160001I0J249999D01*
G01*
G37*
G04 #@! TD.AperFunction*
G04 #@! TA.AperFunction,SMDPad,CuDef*
G36*
G01*
X65410000Y-79160001D02*
X65410000Y-78259999D01*
G75*
G02*
X65659999Y-78010000I249999J0D01*
G01*
X66310001Y-78010000D01*
G75*
G02*
X66560000Y-78259999I0J-249999D01*
G01*
X66560000Y-79160001D01*
G75*
G02*
X66310001Y-79410000I-249999J0D01*
G01*
X65659999Y-79410000D01*
G75*
G02*
X65410000Y-79160001I0J249999D01*
G01*
G37*
G04 #@! TD.AperFunction*
G04 #@! TA.AperFunction,SMDPad,CuDef*
G36*
G01*
X81100000Y-80290000D02*
X80000000Y-80290000D01*
G75*
G02*
X79750000Y-80040000I0J250000D01*
G01*
X79750000Y-77040000D01*
G75*
G02*
X80000000Y-76790000I250000J0D01*
G01*
X81100000Y-76790000D01*
G75*
G02*
X81350000Y-77040000I0J-250000D01*
G01*
X81350000Y-80040000D01*
G75*
G02*
X81100000Y-80290000I-250000J0D01*
G01*
G37*
G04 #@! TD.AperFunction*
G04 #@! TA.AperFunction,SMDPad,CuDef*
G36*
G01*
X81100000Y-85890000D02*
X80000000Y-85890000D01*
G75*
G02*
X79750000Y-85640000I0J250000D01*
G01*
X79750000Y-82640000D01*
G75*
G02*
X80000000Y-82390000I250000J0D01*
G01*
X81100000Y-82390000D01*
G75*
G02*
X81350000Y-82640000I0J-250000D01*
G01*
X81350000Y-85640000D01*
G75*
G02*
X81100000Y-85890000I-250000J0D01*
G01*
G37*
G04 #@! TD.AperFunction*
G04 #@! TA.AperFunction,SMDPad,CuDef*
G36*
G01*
X57188500Y-84549000D02*
X57188500Y-83299000D01*
G75*
G02*
X57438500Y-83049000I250000J0D01*
G01*
X58363500Y-83049000D01*
G75*
G02*
X58613500Y-83299000I0J-250000D01*
G01*
X58613500Y-84549000D01*
G75*
G02*
X58363500Y-84799000I-250000J0D01*
G01*
X57438500Y-84799000D01*
G75*
G02*
X57188500Y-84549000I0J250000D01*
G01*
G37*
G04 #@! TD.AperFunction*
G04 #@! TA.AperFunction,SMDPad,CuDef*
G36*
G01*
X54213500Y-84549000D02*
X54213500Y-83299000D01*
G75*
G02*
X54463500Y-83049000I250000J0D01*
G01*
X55388500Y-83049000D01*
G75*
G02*
X55638500Y-83299000I0J-250000D01*
G01*
X55638500Y-84549000D01*
G75*
G02*
X55388500Y-84799000I-250000J0D01*
G01*
X54463500Y-84799000D01*
G75*
G02*
X54213500Y-84549000I0J250000D01*
G01*
G37*
G04 #@! TD.AperFunction*
G04 #@! TA.AperFunction,SMDPad,CuDef*
G36*
G01*
X51988500Y-84549000D02*
X51988500Y-83299000D01*
G75*
G02*
X52238500Y-83049000I250000J0D01*
G01*
X53163500Y-83049000D01*
G75*
G02*
X53413500Y-83299000I0J-250000D01*
G01*
X53413500Y-84549000D01*
G75*
G02*
X53163500Y-84799000I-250000J0D01*
G01*
X52238500Y-84799000D01*
G75*
G02*
X51988500Y-84549000I0J250000D01*
G01*
G37*
G04 #@! TD.AperFunction*
G04 #@! TA.AperFunction,SMDPad,CuDef*
G36*
G01*
X49013500Y-84549000D02*
X49013500Y-83299000D01*
G75*
G02*
X49263500Y-83049000I250000J0D01*
G01*
X50188500Y-83049000D01*
G75*
G02*
X50438500Y-83299000I0J-250000D01*
G01*
X50438500Y-84549000D01*
G75*
G02*
X50188500Y-84799000I-250000J0D01*
G01*
X49263500Y-84799000D01*
G75*
G02*
X49013500Y-84549000I0J250000D01*
G01*
G37*
G04 #@! TD.AperFunction*
G04 #@! TA.AperFunction,SMDPad,CuDef*
G36*
G01*
X46788500Y-84549000D02*
X46788500Y-83299000D01*
G75*
G02*
X47038500Y-83049000I250000J0D01*
G01*
X47963500Y-83049000D01*
G75*
G02*
X48213500Y-83299000I0J-250000D01*
G01*
X48213500Y-84549000D01*
G75*
G02*
X47963500Y-84799000I-250000J0D01*
G01*
X47038500Y-84799000D01*
G75*
G02*
X46788500Y-84549000I0J250000D01*
G01*
G37*
G04 #@! TD.AperFunction*
G04 #@! TA.AperFunction,SMDPad,CuDef*
G36*
G01*
X43813500Y-84549000D02*
X43813500Y-83299000D01*
G75*
G02*
X44063500Y-83049000I250000J0D01*
G01*
X44988500Y-83049000D01*
G75*
G02*
X45238500Y-83299000I0J-250000D01*
G01*
X45238500Y-84549000D01*
G75*
G02*
X44988500Y-84799000I-250000J0D01*
G01*
X44063500Y-84799000D01*
G75*
G02*
X43813500Y-84549000I0J250000D01*
G01*
G37*
G04 #@! TD.AperFunction*
D23*
X88390000Y-94320000D03*
X72700000Y-125130000D03*
X65050000Y-78710000D03*
X80550000Y-80640000D03*
X85780000Y-78450000D03*
X83450000Y-89490000D03*
X78050000Y-121140000D03*
X46830000Y-121290000D03*
X44770000Y-121290000D03*
X52260000Y-129070000D03*
X54360000Y-129070000D03*
X61550000Y-128010000D03*
X49660000Y-110460000D03*
X66075000Y-88025000D03*
X69200000Y-87600000D03*
X61100000Y-86700000D03*
X43500000Y-88200000D03*
X46701000Y-88199000D03*
X51800000Y-88200000D03*
X57100000Y-88200000D03*
X65431898Y-93754972D03*
X58000000Y-104800000D03*
X65400000Y-104200000D03*
X70200000Y-90900000D03*
X76200000Y-90600000D03*
X76200000Y-88600000D03*
X72600000Y-94400000D03*
X72900000Y-96100000D03*
X74000000Y-98900000D03*
X70900000Y-104000000D03*
X81300000Y-89500000D03*
X81750000Y-126380000D03*
X59890000Y-113500000D03*
X63800000Y-93800000D03*
X62000000Y-93800000D03*
X62806330Y-85293664D03*
X64199574Y-87788664D03*
X76900000Y-92500000D03*
X73400000Y-92500000D03*
X48270000Y-118200000D03*
X52490000Y-118300000D03*
D24*
X66075000Y-86637500D02*
X66075000Y-88025000D01*
X69500000Y-87300000D02*
X69200000Y-87600000D01*
X69500000Y-86600000D02*
X69500000Y-87300000D01*
X61162500Y-86637500D02*
X61100000Y-86700000D01*
X61525000Y-86637500D02*
X61162500Y-86637500D01*
X43501000Y-88199000D02*
X43500000Y-88200000D01*
X44476000Y-88199000D02*
X43501000Y-88199000D01*
X47676000Y-88199000D02*
X46701000Y-88199000D01*
X52876000Y-88199000D02*
X52899000Y-88199000D01*
X52898000Y-88200000D02*
X51800000Y-88200000D01*
X52899000Y-88199000D02*
X52898000Y-88200000D01*
X57101000Y-88199000D02*
X57100000Y-88200000D01*
X58076000Y-88199000D02*
X57101000Y-88199000D01*
D25*
X65425000Y-93748074D02*
X65431898Y-93754972D01*
X65425000Y-92362500D02*
X65425000Y-93748074D01*
X57900000Y-104900000D02*
X58000000Y-104800000D01*
X56800000Y-104900000D02*
X57900000Y-104900000D01*
X58600000Y-104200000D02*
X58000000Y-104800000D01*
X58600000Y-103575000D02*
X58600000Y-104200000D01*
X66100000Y-103500000D02*
X65400000Y-104200000D01*
X66700000Y-103500000D02*
X66100000Y-103500000D01*
X64900000Y-103700000D02*
X65400000Y-104200000D01*
X64900000Y-103150000D02*
X64900000Y-103700000D01*
X70500000Y-90600000D02*
X70200000Y-90900000D01*
X71300000Y-90600000D02*
X70500000Y-90600000D01*
X75400000Y-90600000D02*
X76200000Y-90600000D01*
X73400000Y-94400000D02*
X72600000Y-94400000D01*
X73825000Y-96100000D02*
X72900000Y-96100000D01*
X74525000Y-98375000D02*
X74000000Y-98900000D01*
X74525000Y-97900000D02*
X74525000Y-98375000D01*
X71800000Y-104000000D02*
X70900000Y-104000000D01*
X81300000Y-90425000D02*
X81300000Y-89500000D01*
D26*
X77100000Y-88600000D02*
X76200000Y-88600000D01*
X76200000Y-88600000D02*
X75375000Y-88600000D01*
D27*
X37696000Y-79156000D02*
X41136000Y-79156000D01*
X37696000Y-87916000D02*
X41136000Y-87916000D01*
X37900000Y-93620000D02*
X41340000Y-93620000D01*
X37900000Y-102380000D02*
X41340000Y-102380000D01*
D25*
X50725000Y-110460000D02*
X49660000Y-110460000D01*
X52260000Y-129070000D02*
X52260000Y-128015000D01*
X54360000Y-129070000D02*
X54360000Y-128015000D01*
X61550000Y-128010000D02*
X60485000Y-128010000D01*
X44770000Y-121290000D02*
X44770000Y-120255000D01*
X46830000Y-120255000D02*
X46830000Y-121290000D01*
X79512500Y-122455000D02*
X78295000Y-122455000D01*
X78295000Y-122455000D02*
X78050000Y-122210000D01*
X78050000Y-122210000D02*
X78050000Y-121700000D01*
X78050000Y-121700000D02*
X78050000Y-121140000D01*
X93075000Y-87205000D02*
X92000000Y-86130000D01*
X93075000Y-88320000D02*
X93075000Y-87205000D01*
X88385000Y-95705000D02*
X88395000Y-95695000D01*
X88385000Y-97910000D02*
X88385000Y-95705000D01*
X83450000Y-90425000D02*
X83450000Y-89490000D01*
X85790000Y-78460000D02*
X85780000Y-78450000D01*
X85790000Y-79385000D02*
X85790000Y-78460000D01*
X80550000Y-78540000D02*
X80550000Y-80640000D01*
X65985000Y-78710000D02*
X65050000Y-78710000D01*
X72700000Y-125130000D02*
X72700000Y-124215000D01*
X88395000Y-94325000D02*
X88390000Y-94320000D01*
X88395000Y-95695000D02*
X88395000Y-94325000D01*
D24*
X44138000Y-83536000D02*
X44526000Y-83924000D01*
X37696000Y-83536000D02*
X44138000Y-83536000D01*
X44526000Y-86074000D02*
X44476000Y-86124000D01*
X44526000Y-83924000D02*
X44526000Y-86074000D01*
D25*
X62056329Y-84543671D02*
X62900000Y-83700000D01*
X62056329Y-85653665D02*
X62056329Y-84543671D01*
X62175000Y-85772336D02*
X62056329Y-85653665D01*
X62175000Y-86637500D02*
X62175000Y-85772336D01*
X62900000Y-82100000D02*
X61400000Y-80600000D01*
X62900000Y-83700000D02*
X62900000Y-82100000D01*
D24*
X67337500Y-92362500D02*
X67600000Y-92100000D01*
X66075000Y-92362500D02*
X67337500Y-92362500D01*
D25*
X67600000Y-92100000D02*
X70700000Y-89000000D01*
X71300000Y-88400000D02*
X70700000Y-89000000D01*
X71300000Y-86600000D02*
X71300000Y-88400000D01*
X79200000Y-88625000D02*
X79175000Y-88600000D01*
X79200000Y-90500000D02*
X79200000Y-88625000D01*
D27*
X85787500Y-81450000D02*
X85790000Y-81447500D01*
D25*
X79507500Y-121800000D02*
X79512500Y-121805000D01*
X75287500Y-122455000D02*
X74185000Y-122455000D01*
X74185000Y-122455000D02*
X73910000Y-122730000D01*
X56445000Y-128010000D02*
X56440000Y-128015000D01*
X58435000Y-128010000D02*
X58440000Y-128010000D01*
X73910000Y-122730000D02*
X73910000Y-124190000D01*
X58435000Y-128010000D02*
X58435000Y-128005000D01*
X80560000Y-118520000D02*
X81020000Y-118060000D01*
X80560000Y-120270000D02*
X80560000Y-118520000D01*
X80910000Y-120620000D02*
X80560000Y-120270000D01*
X80605000Y-121805000D02*
X80910000Y-121500000D01*
X79512500Y-121805000D02*
X80605000Y-121805000D01*
X90010000Y-118060000D02*
X90020000Y-118070000D01*
X80910000Y-121500000D02*
X80910000Y-120620000D01*
X81020000Y-118060000D02*
X90010000Y-118060000D01*
X71275000Y-84610000D02*
X71295000Y-84590000D01*
X71275000Y-86600000D02*
X71275000Y-84610000D01*
X71295000Y-84590000D02*
X73260000Y-84590000D01*
X74900000Y-82950000D02*
X74900000Y-81440000D01*
X73260000Y-84590000D02*
X74900000Y-82950000D01*
X74900000Y-81440000D02*
X73010000Y-81440000D01*
X71985000Y-80415000D02*
X71985000Y-78710000D01*
X73010000Y-81440000D02*
X71985000Y-80415000D01*
X85775000Y-81450000D02*
X85790000Y-81435000D01*
D27*
X74900000Y-81440000D02*
X76850000Y-81440000D01*
X80550000Y-84140000D02*
X80550000Y-83190000D01*
X78800000Y-81440000D02*
X76850000Y-81440000D01*
X80550000Y-83190000D02*
X78800000Y-81440000D01*
D25*
X80550000Y-87212500D02*
X79162500Y-88600000D01*
X80550000Y-84140000D02*
X80550000Y-87212500D01*
X85790000Y-81435000D02*
X85655000Y-81435000D01*
D27*
X82950000Y-84140000D02*
X80550000Y-84140000D01*
X85655000Y-81435000D02*
X82950000Y-84140000D01*
X85790000Y-81435000D02*
X92555000Y-81435000D01*
X92555000Y-81435000D02*
X96280000Y-85160000D01*
X96280000Y-111810000D02*
X90020000Y-118070000D01*
X96280000Y-85160000D02*
X96280000Y-111810000D01*
X90020000Y-125740000D02*
X88480000Y-127280000D01*
X90020000Y-118070000D02*
X90020000Y-125740000D01*
X58430000Y-128015000D02*
X58435000Y-128010000D01*
X56440000Y-128015000D02*
X58430000Y-128015000D01*
X58435000Y-128010000D02*
X59875000Y-126570000D01*
X59875000Y-126570000D02*
X73910000Y-126570000D01*
D25*
X73910000Y-124190000D02*
X73910000Y-126570000D01*
D27*
X74620000Y-127280000D02*
X73910000Y-126570000D01*
X88480000Y-127280000D02*
X74620000Y-127280000D01*
D26*
X58076000Y-83924000D02*
X58076000Y-86124000D01*
D25*
X58125000Y-83700000D02*
X57901000Y-83924000D01*
X59800000Y-83700000D02*
X58125000Y-83700000D01*
X57901000Y-81801000D02*
X56900000Y-80800000D01*
X57901000Y-83924000D02*
X57901000Y-81801000D01*
X90640000Y-108140000D02*
X90600000Y-108100000D01*
X85100000Y-110940000D02*
X87960000Y-110940000D01*
X90600000Y-108300000D02*
X87960000Y-110940000D01*
X90600000Y-108100000D02*
X90600000Y-108300000D01*
X82175000Y-110675000D02*
X82200000Y-110700000D01*
X80500000Y-110675000D02*
X82175000Y-110675000D01*
X82400000Y-110900000D02*
X82200000Y-110700000D01*
X82400000Y-112600000D02*
X82400000Y-110900000D01*
X84860000Y-110700000D02*
X85100000Y-110940000D01*
X82200000Y-110700000D02*
X84860000Y-110700000D01*
X85100000Y-108400000D02*
X88000000Y-108400000D01*
X82175000Y-108600000D02*
X82200000Y-108625000D01*
X80500000Y-108600000D02*
X82175000Y-108600000D01*
X82200000Y-106950000D02*
X82450000Y-106700000D01*
X82200000Y-108625000D02*
X82200000Y-106950000D01*
X84875000Y-108625000D02*
X85100000Y-108400000D01*
X82200000Y-108625000D02*
X84875000Y-108625000D01*
X64675010Y-94224990D02*
X63600000Y-95300000D01*
X64675010Y-92724990D02*
X64675010Y-94224990D01*
X64775000Y-92625000D02*
X64675010Y-92724990D01*
X64775000Y-92362500D02*
X64775000Y-92625000D01*
X66400000Y-95300000D02*
X63600000Y-95300000D01*
X67600000Y-94100000D02*
X66400000Y-95300000D01*
X65749990Y-83050010D02*
X67000000Y-81800000D01*
X65749990Y-85198556D02*
X65749990Y-83050010D01*
X65425000Y-85523546D02*
X65749990Y-85198556D01*
X65425000Y-86637500D02*
X65425000Y-85523546D01*
X69245000Y-84590000D02*
X69245000Y-84475000D01*
X67000000Y-82230000D02*
X67000000Y-81800000D01*
X69245000Y-84245000D02*
X69245000Y-84590000D01*
X67000000Y-82000000D02*
X69245000Y-84245000D01*
X67000000Y-81800000D02*
X67000000Y-82000000D01*
X55162500Y-92362500D02*
X55000000Y-92200000D01*
X58462500Y-92362500D02*
X57900000Y-91800000D01*
X61525000Y-92362500D02*
X58462500Y-92362500D01*
X55400000Y-91800000D02*
X55000000Y-92200000D01*
X57900000Y-91800000D02*
X55400000Y-91800000D01*
X66925000Y-111325000D02*
X65300000Y-111325000D01*
X68870000Y-113270000D02*
X66925000Y-111325000D01*
X68880000Y-116170000D02*
X68870000Y-116160000D01*
X68870000Y-116160000D02*
X68870000Y-113270000D01*
X68880000Y-122112500D02*
X67462500Y-123530000D01*
X68880000Y-116170000D02*
X68880000Y-122112500D01*
X65300000Y-110460000D02*
X63010000Y-110460000D01*
X65300000Y-111325000D02*
X65300000Y-110460000D01*
X65300000Y-110460000D02*
X65300000Y-109600000D01*
X63010000Y-110460000D02*
X57747500Y-110460000D01*
D24*
X62175000Y-92362500D02*
X62175000Y-88725000D01*
X62825000Y-88075000D02*
X62825000Y-86637500D01*
X62175000Y-88725000D02*
X62825000Y-88075000D01*
D25*
X75290000Y-123107500D02*
X75287500Y-123105000D01*
X81555000Y-120895000D02*
X83120000Y-122460000D01*
X81555000Y-119310000D02*
X81555000Y-120895000D01*
X88260000Y-122625000D02*
X86150000Y-122625000D01*
X83285000Y-122625000D02*
X83120000Y-122460000D01*
X86150000Y-122625000D02*
X83285000Y-122625000D01*
X75287500Y-123105000D02*
X75287500Y-125127500D01*
X76540000Y-126380000D02*
X75287500Y-125127500D01*
X81750000Y-126380000D02*
X76540000Y-126380000D01*
X90600000Y-105000000D02*
X90600000Y-102200000D01*
X90600000Y-102200000D02*
X90600000Y-93180000D01*
X89665000Y-92245000D02*
X89665000Y-90545000D01*
X90600000Y-93180000D02*
X89665000Y-92245000D01*
X88100000Y-102240000D02*
X88060000Y-102200000D01*
X88100000Y-105000000D02*
X88100000Y-102240000D01*
X89665000Y-100595000D02*
X88060000Y-102200000D01*
X89665000Y-95695000D02*
X89665000Y-100595000D01*
X71900000Y-98900000D02*
X71700000Y-98700000D01*
X71900000Y-101800000D02*
X71900000Y-98900000D01*
X73900000Y-101800000D02*
X71900000Y-101800000D01*
X83970000Y-95695000D02*
X83900000Y-95625000D01*
X83957500Y-95695000D02*
X83900000Y-95637500D01*
X85855000Y-95695000D02*
X83957500Y-95695000D01*
X75500000Y-106700000D02*
X74900000Y-107300000D01*
X76800000Y-106700000D02*
X75500000Y-106700000D01*
X69935000Y-78710000D02*
X68035000Y-78710000D01*
X51570000Y-118850000D02*
X50930000Y-118850000D01*
X50620000Y-118540000D02*
X50620000Y-115647500D01*
X50930000Y-118850000D02*
X50620000Y-118540000D01*
X48150000Y-115657500D02*
X48140000Y-115647500D01*
X49670000Y-117550000D02*
X48800000Y-117550000D01*
X48140000Y-116890000D02*
X48140000Y-115647500D01*
X48800000Y-117550000D02*
X48140000Y-116890000D01*
X67525000Y-114300000D02*
X67825000Y-114000000D01*
X65300000Y-114300000D02*
X67835000Y-114300000D01*
X67835000Y-116400000D02*
X67835000Y-114300000D01*
X67452500Y-118770000D02*
X66972500Y-119250000D01*
X67452500Y-118770000D02*
X66180000Y-118770000D01*
X66180000Y-118770000D02*
X60730000Y-113320000D01*
X59767500Y-112672500D02*
X60720000Y-111720000D01*
X50620000Y-112672500D02*
X59767500Y-112672500D01*
X60730000Y-111730000D02*
X60720000Y-111720000D01*
X60730000Y-113320000D02*
X60730000Y-111730000D01*
X63300000Y-114300000D02*
X60720000Y-111720000D01*
X65300000Y-114300000D02*
X63300000Y-114300000D01*
X67925000Y-106100000D02*
X67925000Y-108100000D01*
X65825000Y-106100000D02*
X65300000Y-106625000D01*
X67925000Y-106100000D02*
X65825000Y-106100000D01*
X67452500Y-121140000D02*
X67452500Y-121132500D01*
X67452500Y-121140000D02*
X67170000Y-121140000D01*
X67452500Y-121140000D02*
X67452500Y-121062500D01*
X67452500Y-121062500D02*
X61600000Y-115210000D01*
X61600000Y-115210000D02*
X59890000Y-113500000D01*
X63275000Y-106625000D02*
X60720000Y-109180000D01*
X65300000Y-106625000D02*
X63275000Y-106625000D01*
X59770000Y-108230000D02*
X60720000Y-109180000D01*
X48140000Y-110170000D02*
X50080000Y-108230000D01*
X50080000Y-108230000D02*
X59770000Y-108230000D01*
X48140000Y-112672500D02*
X48140000Y-110170000D01*
D28*
X64105017Y-92382483D02*
X64125000Y-92362500D01*
D24*
X65252430Y-90400000D02*
X67600000Y-90400000D01*
X64125000Y-91527430D02*
X65252430Y-90400000D01*
X64125000Y-92362500D02*
X64125000Y-91527430D01*
D28*
X63475000Y-93475000D02*
X63800000Y-93800000D01*
X63475000Y-92362500D02*
X63475000Y-93475000D01*
X62125000Y-93800000D02*
X62000000Y-93800000D01*
X62825000Y-93100000D02*
X62125000Y-93800000D01*
X62825000Y-92362500D02*
X62825000Y-93100000D01*
D25*
X63475000Y-86637500D02*
X63475000Y-85900000D01*
X63475000Y-85900000D02*
X62868664Y-85293664D01*
X62868664Y-85293664D02*
X62806330Y-85293664D01*
X64125000Y-87714090D02*
X64199574Y-87788664D01*
X64125000Y-86637500D02*
X64125000Y-87714090D01*
D28*
X64800000Y-86662500D02*
X64775000Y-86637500D01*
D25*
X64775000Y-84675000D02*
X64700000Y-84600000D01*
X64775000Y-86637500D02*
X64775000Y-84675000D01*
X59000000Y-101100000D02*
X58600000Y-101500000D01*
X59000000Y-99600000D02*
X59000000Y-101100000D01*
X58700000Y-101400000D02*
X58600000Y-101500000D01*
X60355000Y-101400000D02*
X58700000Y-101400000D01*
X56350000Y-101500000D02*
X56300000Y-101450000D01*
X58600000Y-101500000D02*
X56350000Y-101500000D01*
X60400000Y-101445000D02*
X60355000Y-101400000D01*
X56800000Y-101950000D02*
X56300000Y-101450000D01*
X56800000Y-103150000D02*
X56800000Y-101950000D01*
X55250000Y-103150000D02*
X54000000Y-104400000D01*
X56800000Y-103150000D02*
X55250000Y-103150000D01*
X64875000Y-99700000D02*
X64975000Y-99600000D01*
D24*
X64925000Y-101425000D02*
X64900000Y-101400000D01*
X66700000Y-101425000D02*
X64925000Y-101425000D01*
X64975000Y-101325000D02*
X64900000Y-101400000D01*
X64975000Y-99600000D02*
X64975000Y-101325000D01*
X64800000Y-99425000D02*
X64975000Y-99600000D01*
X64800000Y-97900000D02*
X64800000Y-99425000D01*
D25*
X71825000Y-112000000D02*
X71500000Y-112000000D01*
X71425000Y-111600000D02*
X71825000Y-112000000D01*
X69750000Y-112000000D02*
X69700000Y-112050000D01*
X71825000Y-112000000D02*
X69750000Y-112000000D01*
X69900000Y-112250000D02*
X69700000Y-112050000D01*
X69910000Y-116400000D02*
X69910000Y-114300000D01*
D24*
X69910000Y-112260000D02*
X69700000Y-112050000D01*
D25*
X69910000Y-114300000D02*
X69910000Y-112260000D01*
X73300000Y-86600000D02*
X73300000Y-88600000D01*
X73325000Y-88625000D02*
X73300000Y-88600000D01*
X73325000Y-90600000D02*
X73325000Y-88625000D01*
X73400000Y-90675000D02*
X73325000Y-90600000D01*
X73400000Y-92500000D02*
X73400000Y-90675000D01*
X79737500Y-95562500D02*
X79200000Y-95025000D01*
X81800000Y-95562500D02*
X79737500Y-95562500D01*
X76900000Y-92725000D02*
X76900000Y-92500000D01*
X79200000Y-95025000D02*
X76900000Y-92725000D01*
X75400000Y-92500000D02*
X75400000Y-94400000D01*
X75400000Y-95600000D02*
X75900000Y-96100000D01*
X75400000Y-94400000D02*
X75400000Y-95600000D01*
X75900000Y-97200000D02*
X76600000Y-97900000D01*
X75900000Y-96100000D02*
X75900000Y-97200000D01*
X76600000Y-98800000D02*
X77700000Y-99900000D01*
X76600000Y-97900000D02*
X76600000Y-98800000D01*
X70000000Y-106100000D02*
X70000000Y-108100000D01*
X70000000Y-109700000D02*
X69700000Y-110000000D01*
X70000000Y-108100000D02*
X70000000Y-109700000D01*
X70800000Y-107300000D02*
X70000000Y-108100000D01*
X71925000Y-107300000D02*
X70800000Y-107300000D01*
X73800000Y-104000000D02*
X75650000Y-104000000D01*
D24*
X67600000Y-86700000D02*
X67500000Y-86600000D01*
X67600000Y-88400000D02*
X67600000Y-86700000D01*
D25*
X67500000Y-85400000D02*
X66700000Y-84600000D01*
X67500000Y-86600000D02*
X67500000Y-85400000D01*
D26*
X52876000Y-83924000D02*
X52876000Y-86124000D01*
X52876000Y-83924000D02*
X54751000Y-83924000D01*
D25*
X87125000Y-97120000D02*
X86335000Y-97910000D01*
X87125000Y-95695000D02*
X87125000Y-97120000D01*
X91025000Y-88320000D02*
X89175000Y-88320000D01*
X88395000Y-89100000D02*
X89175000Y-88320000D01*
X88395000Y-90545000D02*
X88395000Y-89100000D01*
X80200000Y-106900000D02*
X80400000Y-106700000D01*
X80400000Y-106700000D02*
X78875000Y-106700000D01*
X78600000Y-106975000D02*
X78875000Y-106700000D01*
X78600000Y-108600000D02*
X78600000Y-106975000D01*
X42700000Y-118205000D02*
X44770000Y-118205000D01*
X44770000Y-118205000D02*
X46830000Y-118205000D01*
X49670000Y-118200000D02*
X48270000Y-118200000D01*
X52390000Y-118200000D02*
X52490000Y-118300000D01*
X51570000Y-118200000D02*
X52390000Y-118200000D01*
X46835000Y-118200000D02*
X46830000Y-118205000D01*
X48270000Y-118200000D02*
X46835000Y-118200000D01*
X37900000Y-98000000D02*
X41300000Y-98000000D01*
X44110000Y-100810000D02*
X46792000Y-100810000D01*
X41300000Y-98000000D02*
X44110000Y-100810000D01*
X51900000Y-95702000D02*
X51872000Y-95730000D01*
X51900000Y-92200000D02*
X51900000Y-95702000D01*
X51200000Y-91500000D02*
X51900000Y-92200000D01*
X49000000Y-91500000D02*
X51200000Y-91500000D01*
X51952000Y-98350000D02*
X51872000Y-98270000D01*
X56300000Y-98350000D02*
X51952000Y-98350000D01*
X56300000Y-95600000D02*
X56300000Y-98350000D01*
D24*
X68800000Y-99800000D02*
X67700000Y-98700000D01*
X68800000Y-101800000D02*
X68800000Y-99800000D01*
D25*
X79512500Y-119317500D02*
X79505000Y-119310000D01*
X79512500Y-121155000D02*
X79512500Y-119317500D01*
X70957500Y-119300000D02*
X70427500Y-118770000D01*
X70967500Y-119310000D02*
X70427500Y-118770000D01*
X79505000Y-119310000D02*
X70967500Y-119310000D01*
D26*
X47676000Y-83924000D02*
X47676000Y-86124000D01*
X47676000Y-83924000D02*
X49551000Y-83924000D01*
D25*
X61500000Y-100025000D02*
X61075000Y-99600000D01*
X61500000Y-101400000D02*
X61500000Y-100025000D01*
X62900000Y-99600000D02*
X61075000Y-99600000D01*
X63125000Y-99825000D02*
X62900000Y-99600000D01*
X63050000Y-99450000D02*
X62900000Y-99600000D01*
X63050000Y-97900000D02*
X63050000Y-99450000D01*
X81300000Y-92500000D02*
X79200000Y-92500000D01*
X81312500Y-92475000D02*
X81300000Y-92487500D01*
X83450000Y-92475000D02*
X81312500Y-92475000D01*
X85855000Y-90545000D02*
X85855000Y-91695000D01*
X85075000Y-92475000D02*
X83450000Y-92475000D01*
X85855000Y-91695000D02*
X85075000Y-92475000D01*
X79562500Y-97637500D02*
X79200000Y-98000000D01*
X81800000Y-97637500D02*
X79562500Y-97637500D01*
X79200000Y-100350000D02*
X79700000Y-100850000D01*
X79200000Y-98000000D02*
X79200000Y-100350000D01*
X81862500Y-97700000D02*
X81800000Y-97637500D01*
X83900000Y-97700000D02*
X81862500Y-97700000D01*
X77700000Y-104000000D02*
X77700000Y-101800000D01*
X75975000Y-101800000D02*
X77700000Y-101800000D01*
X87125000Y-90545000D02*
X87125000Y-88320000D01*
X87125000Y-86135000D02*
X87120000Y-86130000D01*
X87125000Y-88320000D02*
X87125000Y-86135000D01*
X80200000Y-112450000D02*
X80350000Y-112600000D01*
X78775000Y-112600000D02*
X80350000Y-112600000D01*
X78600000Y-112425000D02*
X78775000Y-112600000D01*
X78600000Y-110675000D02*
X78600000Y-112425000D01*
X75400000Y-112600000D02*
X74800000Y-112000000D01*
X76700000Y-112600000D02*
X75400000Y-112600000D01*
X51570000Y-117550000D02*
X53140000Y-117550000D01*
X53960000Y-118370000D02*
X53960000Y-121042500D01*
X53140000Y-117550000D02*
X53960000Y-118370000D01*
X56617500Y-121042500D02*
X56620000Y-121045000D01*
X53960000Y-121042500D02*
X56617500Y-121042500D01*
X59295000Y-121045000D02*
X59580000Y-120760000D01*
X56620000Y-121045000D02*
X59295000Y-121045000D01*
X59805000Y-120985000D02*
X59580000Y-120760000D01*
X62490000Y-120985000D02*
X59805000Y-120985000D01*
X64560000Y-120985000D02*
X62490000Y-120985000D01*
X50560000Y-121032500D02*
X49862500Y-121032500D01*
X49670000Y-120840000D02*
X49670000Y-118850000D01*
X49862500Y-121032500D02*
X49670000Y-120840000D01*
X56050000Y-122530000D02*
X56615000Y-123095000D01*
X52650000Y-122530000D02*
X56050000Y-122530000D01*
X51152500Y-121032500D02*
X52650000Y-122530000D01*
X56615000Y-123095000D02*
X56620000Y-123095000D01*
X50560000Y-121032500D02*
X51152500Y-121032500D01*
X64560000Y-123035000D02*
X62490000Y-123035000D01*
X59375000Y-123095000D02*
X59580000Y-123300000D01*
X56620000Y-123095000D02*
X59375000Y-123095000D01*
X59845000Y-123035000D02*
X59580000Y-123300000D01*
X62490000Y-123035000D02*
X59845000Y-123035000D01*
X79520000Y-123112500D02*
X79512500Y-123105000D01*
X79520000Y-125000000D02*
X79520000Y-123112500D01*
X83120000Y-125000000D02*
X79545000Y-125000000D01*
X86150000Y-124675000D02*
X88260000Y-124675000D01*
X83445000Y-124675000D02*
X83120000Y-125000000D01*
X86150000Y-124675000D02*
X83445000Y-124675000D01*
X50570000Y-124017500D02*
X50560000Y-124007500D01*
X54340000Y-125945000D02*
X54360000Y-125965000D01*
X52270000Y-124030000D02*
X52257500Y-124017500D01*
X52257500Y-124017500D02*
X50570000Y-124017500D01*
X53960000Y-124017500D02*
X52257500Y-124017500D01*
X52260000Y-124020000D02*
X52257500Y-124017500D01*
X52260000Y-125965000D02*
X52260000Y-124020000D01*
X42700000Y-120255000D02*
X42700000Y-121370000D01*
X47295000Y-125965000D02*
X52260000Y-125965000D01*
X42700000Y-121370000D02*
X47295000Y-125965000D01*
D27*
X54360000Y-125965000D02*
X56440000Y-125965000D01*
X54360000Y-125965000D02*
X52260000Y-125965000D01*
D25*
X73060000Y-121805000D02*
X72700000Y-122165000D01*
X75287500Y-121805000D02*
X73060000Y-121805000D01*
X71335000Y-123530000D02*
X72700000Y-122165000D01*
X70437500Y-123530000D02*
X71335000Y-123530000D01*
X77520000Y-125000000D02*
X77520000Y-122200000D01*
X76475000Y-121155000D02*
X75287500Y-121155000D01*
X77520000Y-122200000D02*
X76475000Y-121155000D01*
X70432500Y-121145000D02*
X70427500Y-121140000D01*
X75282500Y-121150000D02*
X75287500Y-121155000D01*
X70442500Y-121155000D02*
X70427500Y-121140000D01*
X75287500Y-121155000D02*
X70442500Y-121155000D01*
X54772500Y-110460000D02*
X52775000Y-110460000D01*
M02*
